<?xml version="1.0" encoding="us-ascii" standalone="no"?><svg xmlns="http://www.w3.org/2000/svg" xmlns:xlink="http://www.w3.org/1999/xlink" contentStyleType="text/css" height="652px" preserveAspectRatio="none" style="width:1040px;height:652px;background:#FFFFFF;" version="1.1" viewBox="0 0 1040 652" width="1040px" zoomAndPan="magnify"><defs/><g><!--class Role--><g id="elem_Role"><rect codeLine="3" fill="#F1F1F1" height="96.8906" id="Role" rx="2.5" ry="2.5" style="stroke:#181818;stroke-width:0.5;" width="108" x="7" y="343"/><ellipse cx="41.8" cy="359" fill="#EB937F" rx="11" ry="11" style="stroke:#181818;stroke-width:1.0;"/><path d="M40.5969,359.875 L42.05,359.875 L42.05,359.9844 C42.05,360.3906 42.0813,360.5469 42.1594,360.7031 C42.3156,360.9531 42.5969,361.1094 42.8938,361.1094 C43.1438,361.1094 43.4094,360.9688 43.5656,360.75 C43.6906,360.5938 43.7219,360.4375 43.7219,359.9844 L43.7219,358.0625 C43.7219,357.9063 43.7219,357.8594 43.7063,357.7031 C43.6438,357.2344 43.3313,356.9219 42.8781,356.9219 C42.6281,356.9219 42.3625,357.0625 42.1906,357.2813 C42.0813,357.4531 42.05,357.6094 42.05,358.0625 L42.05,358.1875 L40.5969,358.1875 L40.5969,355.7813 L44.5813,355.7813 L44.5813,356.6406 C44.5813,357.0469 44.6125,357.2188 44.6906,357.375 C44.8625,357.625 45.1438,357.7813 45.425,357.7813 C45.6906,357.7813 45.9563,357.6406 46.1281,357.4219 C46.2375,357.25 46.2688,357.1094 46.2688,356.6406 L46.2688,354.0938 L38.6438,354.0938 C38.2063,354.0938 38.0813,354.1094 37.925,354.2031 C37.675,354.3594 37.5188,354.6563 37.5188,354.9375 C37.5188,355.2188 37.6594,355.4688 37.8781,355.6406 C38.0344,355.75 38.2219,355.7813 38.6438,355.7813 L38.8938,355.7813 L38.8938,362.2969 L38.6438,362.2969 C38.2375,362.2969 38.0813,362.3125 37.925,362.4219 C37.675,362.5938 37.5188,362.8594 37.5188,363.1563 C37.5188,363.4219 37.6594,363.6719 37.8781,363.8281 C38.0188,363.9531 38.2531,364 38.6438,364 L46.6438,364 L46.6438,361.4219 C46.6438,360.9844 46.6125,360.8438 46.5344,360.6875 C46.3625,360.4375 46.0813,360.2813 45.8,360.2813 C45.5344,360.2813 45.2688,360.3906 45.0969,360.6406 C44.9875,360.7969 44.9563,360.9375 44.9563,361.4219 L44.9563,362.2969 L40.5969,362.2969 L40.5969,359.875 Z " fill="#000000"/><text fill="#000000" font-family="sans-serif" font-size="14" lengthAdjust="spacing" textLength="32" x="60.2" y="363.8467">Role</text><line style="stroke:#181818;stroke-width:0.5;" x1="8" x2="114" y1="375" y2="375"/><text fill="#000000" font-family="sans-serif" font-size="14" lengthAdjust="spacing" textLength="37" x="13" y="391.9951">USER</text><text fill="#000000" font-family="sans-serif" font-size="14" lengthAdjust="spacing" textLength="96" x="13" y="408.292">OPEN_ACTOR</text><text fill="#000000" font-family="sans-serif" font-size="14" lengthAdjust="spacing" textLength="47" x="13" y="424.5889">ADMIN</text><line style="stroke:#181818;stroke-width:0.5;" x1="8" x2="114" y1="431.8906" y2="431.8906"/></g><!--class User--><g id="elem_User"><rect codeLine="9" fill="#F1F1F1" height="227.2656" id="User" rx="2.5" ry="2.5" style="stroke:#181818;stroke-width:0.5;" width="269" x="279.5" y="7"/><ellipse cx="394.25" cy="23" fill="#ADD1B2" rx="11" ry="11" style="stroke:#181818;stroke-width:1.0;"/><path d="M393.0469,23.875 L394.5,23.875 L394.5,23.9844 C394.5,24.3906 394.5313,24.5469 394.6094,24.7031 C394.7656,24.9531 395.0469,25.1094 395.3438,25.1094 C395.5938,25.1094 395.8594,24.9688 396.0156,24.75 C396.1406,24.5938 396.1719,24.4375 396.1719,23.9844 L396.1719,22.0625 C396.1719,21.9063 396.1719,21.8594 396.1563,21.7031 C396.0938,21.2344 395.7813,20.9219 395.3281,20.9219 C395.0781,20.9219 394.8125,21.0625 394.6406,21.2813 C394.5313,21.4531 394.5,21.6094 394.5,22.0625 L394.5,22.1875 L393.0469,22.1875 L393.0469,19.7813 L397.0313,19.7813 L397.0313,20.6406 C397.0313,21.0469 397.0625,21.2188 397.1406,21.375 C397.3125,21.625 397.5938,21.7813 397.875,21.7813 C398.1406,21.7813 398.4063,21.6406 398.5781,21.4219 C398.6875,21.25 398.7188,21.1094 398.7188,20.6406 L398.7188,18.0938 L391.0938,18.0938 C390.6563,18.0938 390.5313,18.1094 390.375,18.2031 C390.125,18.3594 389.9688,18.6563 389.9688,18.9375 C389.9688,19.2188 390.1094,19.4688 390.3281,19.6406 C390.4844,19.75 390.6719,19.7813 391.0938,19.7813 L391.3438,19.7813 L391.3438,26.2969 L391.0938,26.2969 C390.6875,26.2969 390.5313,26.3125 390.375,26.4219 C390.125,26.5938 389.9688,26.8594 389.9688,27.1563 C389.9688,27.4219 390.1094,27.6719 390.3281,27.8281 C390.4688,27.9531 390.7031,28 391.0938,28 L399.0938,28 L399.0938,25.4219 C399.0938,24.9844 399.0625,24.8438 398.9844,24.6875 C398.8125,24.4375 398.5313,24.2813 398.25,24.2813 C397.9844,24.2813 397.7188,24.3906 397.5469,24.6406 C397.4375,24.7969 397.4063,24.9375 397.4063,25.4219 L397.4063,26.2969 L393.0469,26.2969 L393.0469,23.875 Z " fill="#000000"/><text fill="#000000" font-family="sans-serif" font-size="14" lengthAdjust="spacing" textLength="31" x="414.75" y="27.8467">User</text><line style="stroke:#181818;stroke-width:0.5;" x1="280.5" x2="547.5" y1="39" y2="39"/><ellipse cx="290.5" cy="52.6484" fill="#000000" rx="3" ry="3" style="stroke:#000000;stroke-width:1.0;"/><text fill="#000000" font-family="sans-serif" font-size="14" lengthAdjust="spacing" textLength="66" x="299.5" y="55.9951">id: String</text><ellipse cx="290.5" cy="68.9453" fill="#000000" rx="3" ry="3" style="stroke:#000000;stroke-width:1.0;"/><text fill="#000000" font-family="sans-serif" font-size="14" lengthAdjust="spacing" textLength="153" x="299.5" y="72.292">createdAt: DateTime</text><ellipse cx="290.5" cy="85.2422" fill="#000000" rx="3" ry="3" style="stroke:#000000;stroke-width:1.0;"/><text fill="#000000" font-family="sans-serif" font-size="14" lengthAdjust="spacing" textLength="157" x="299.5" y="88.5889">updatedAt: DateTime</text><text fill="#000000" font-family="sans-serif" font-size="14" lengthAdjust="spacing" textLength="99" x="299.5" y="104.8857">email: String?</text><text fill="#000000" font-family="sans-serif" font-size="14" lengthAdjust="spacing" textLength="104" x="299.5" y="121.1826">image: String?</text><text fill="#000000" font-family="sans-serif" font-size="14" lengthAdjust="spacing" textLength="100" x="299.5" y="137.4795">name: String?</text><ellipse cx="290.5" cy="150.4297" fill="#000000" rx="3" ry="3" style="stroke:#000000;stroke-width:1.0;"/><text fill="#000000" font-family="sans-serif" font-size="14" lengthAdjust="spacing" textLength="69" x="299.5" y="153.7764">role: Role</text><ellipse cx="290.5" cy="166.7266" fill="#000000" rx="3" ry="3" style="stroke:#000000;stroke-width:1.0;"/><text fill="#000000" font-family="sans-serif" font-size="14" lengthAdjust="spacing" textLength="147" x="299.5" y="170.0732">blogPost: BlogPost[]</text><ellipse cx="290.5" cy="183.0234" fill="#000000" rx="3" ry="3" style="stroke:#000000;stroke-width:1.0;"/><text fill="#000000" font-family="sans-serif" font-size="14" lengthAdjust="spacing" textLength="176" x="299.5" y="186.3701">permission: Permission[]</text><text fill="#000000" font-family="sans-serif" font-size="14" lengthAdjust="spacing" textLength="111" x="299.5" y="202.667">profile: Profile?</text><ellipse cx="290.5" cy="215.6172" fill="#000000" rx="3" ry="3" style="stroke:#000000;stroke-width:1.0;"/><text fill="#000000" font-family="sans-serif" font-size="14" lengthAdjust="spacing" textLength="243" x="299.5" y="218.9639">userPermissions: UserPermission[]</text><line style="stroke:#181818;stroke-width:0.5;" x1="280.5" x2="547.5" y1="226.2656" y2="226.2656"/></g><!--class Permission--><g id="elem_Permission"><rect codeLine="23" fill="#F1F1F1" height="145.7813" id="Permission" rx="2.5" ry="2.5" style="stroke:#181818;stroke-width:0.5;" width="259" x="150.5" y="318.5"/><ellipse cx="236.75" cy="334.5" fill="#ADD1B2" rx="11" ry="11" style="stroke:#181818;stroke-width:1.0;"/><path d="M235.5469,335.375 L237,335.375 L237,335.4844 C237,335.8906 237.0313,336.0469 237.1094,336.2031 C237.2656,336.4531 237.5469,336.6094 237.8438,336.6094 C238.0938,336.6094 238.3594,336.4688 238.5156,336.25 C238.6406,336.0938 238.6719,335.9375 238.6719,335.4844 L238.6719,333.5625 C238.6719,333.4063 238.6719,333.3594 238.6563,333.2031 C238.5938,332.7344 238.2813,332.4219 237.8281,332.4219 C237.5781,332.4219 237.3125,332.5625 237.1406,332.7813 C237.0313,332.9531 237,333.1094 237,333.5625 L237,333.6875 L235.5469,333.6875 L235.5469,331.2813 L239.5313,331.2813 L239.5313,332.1406 C239.5313,332.5469 239.5625,332.7188 239.6406,332.875 C239.8125,333.125 240.0938,333.2813 240.375,333.2813 C240.6406,333.2813 240.9063,333.1406 241.0781,332.9219 C241.1875,332.75 241.2188,332.6094 241.2188,332.1406 L241.2188,329.5938 L233.5938,329.5938 C233.1563,329.5938 233.0313,329.6094 232.875,329.7031 C232.625,329.8594 232.4688,330.1563 232.4688,330.4375 C232.4688,330.7188 232.6094,330.9688 232.8281,331.1406 C232.9844,331.25 233.1719,331.2813 233.5938,331.2813 L233.8438,331.2813 L233.8438,337.7969 L233.5938,337.7969 C233.1875,337.7969 233.0313,337.8125 232.875,337.9219 C232.625,338.0938 232.4688,338.3594 232.4688,338.6563 C232.4688,338.9219 232.6094,339.1719 232.8281,339.3281 C232.9688,339.4531 233.2031,339.5 233.5938,339.5 L241.5938,339.5 L241.5938,336.9219 C241.5938,336.4844 241.5625,336.3438 241.4844,336.1875 C241.3125,335.9375 241.0313,335.7813 240.75,335.7813 C240.4844,335.7813 240.2188,335.8906 240.0469,336.1406 C239.9375,336.2969 239.9063,336.4375 239.9063,336.9219 L239.9063,337.7969 L235.5469,337.7969 L235.5469,335.375 Z " fill="#000000"/><text fill="#000000" font-family="sans-serif" font-size="14" lengthAdjust="spacing" textLength="78" x="257.25" y="339.3467">Permission</text><line style="stroke:#181818;stroke-width:0.5;" x1="151.5" x2="408.5" y1="350.5" y2="350.5"/><ellipse cx="161.5" cy="364.1484" fill="#000000" rx="3" ry="3" style="stroke:#000000;stroke-width:1.0;"/><text fill="#000000" font-family="sans-serif" font-size="14" lengthAdjust="spacing" textLength="66" x="170.5" y="367.4951">id: String</text><ellipse cx="161.5" cy="380.4453" fill="#000000" rx="3" ry="3" style="stroke:#000000;stroke-width:1.0;"/><text fill="#000000" font-family="sans-serif" font-size="14" lengthAdjust="spacing" textLength="96" x="170.5" y="383.792">userId: String</text><ellipse cx="161.5" cy="396.7422" fill="#000000" rx="3" ry="3" style="stroke:#000000;stroke-width:1.0;"/><text fill="#000000" font-family="sans-serif" font-size="14" lengthAdjust="spacing" textLength="168" x="170.5" y="400.0889">permissionType: String</text><text fill="#000000" font-family="sans-serif" font-size="14" lengthAdjust="spacing" textLength="181" x="170.5" y="416.3857">userPermissionId: String?</text><ellipse cx="161.5" cy="429.3359" fill="#000000" rx="3" ry="3" style="stroke:#000000;stroke-width:1.0;"/><text fill="#000000" font-family="sans-serif" font-size="14" lengthAdjust="spacing" textLength="70" x="170.5" y="432.6826">user: User</text><text fill="#000000" font-family="sans-serif" font-size="14" lengthAdjust="spacing" textLength="233" x="170.5" y="448.9795">userPermission: UserPermission?</text><line style="stroke:#181818;stroke-width:0.5;" x1="151.5" x2="408.5" y1="456.2813" y2="456.2813"/></g><!--class UserPermission--><g id="elem_UserPermission"><rect codeLine="32" fill="#F1F1F1" height="113.1875" id="UserPermission" rx="2.5" ry="2.5" style="stroke:#181818;stroke-width:0.5;" width="209" x="444.5" y="335"/><ellipse cx="490.25" cy="351" fill="#ADD1B2" rx="11" ry="11" style="stroke:#181818;stroke-width:1.0;"/><path d="M489.0469,351.875 L490.5,351.875 L490.5,351.9844 C490.5,352.3906 490.5313,352.5469 490.6094,352.7031 C490.7656,352.9531 491.0469,353.1094 491.3438,353.1094 C491.5938,353.1094 491.8594,352.9688 492.0156,352.75 C492.1406,352.5938 492.1719,352.4375 492.1719,351.9844 L492.1719,350.0625 C492.1719,349.9063 492.1719,349.8594 492.1563,349.7031 C492.0938,349.2344 491.7813,348.9219 491.3281,348.9219 C491.0781,348.9219 490.8125,349.0625 490.6406,349.2813 C490.5313,349.4531 490.5,349.6094 490.5,350.0625 L490.5,350.1875 L489.0469,350.1875 L489.0469,347.7813 L493.0313,347.7813 L493.0313,348.6406 C493.0313,349.0469 493.0625,349.2188 493.1406,349.375 C493.3125,349.625 493.5938,349.7813 493.875,349.7813 C494.1406,349.7813 494.4063,349.6406 494.5781,349.4219 C494.6875,349.25 494.7188,349.1094 494.7188,348.6406 L494.7188,346.0938 L487.0938,346.0938 C486.6563,346.0938 486.5313,346.1094 486.375,346.2031 C486.125,346.3594 485.9688,346.6563 485.9688,346.9375 C485.9688,347.2188 486.1094,347.4688 486.3281,347.6406 C486.4844,347.75 486.6719,347.7813 487.0938,347.7813 L487.3438,347.7813 L487.3438,354.2969 L487.0938,354.2969 C486.6875,354.2969 486.5313,354.3125 486.375,354.4219 C486.125,354.5938 485.9688,354.8594 485.9688,355.1563 C485.9688,355.4219 486.1094,355.6719 486.3281,355.8281 C486.4688,355.9531 486.7031,356 487.0938,356 L495.0938,356 L495.0938,353.4219 C495.0938,352.9844 495.0625,352.8438 494.9844,352.6875 C494.8125,352.4375 494.5313,352.2813 494.25,352.2813 C493.9844,352.2813 493.7188,352.3906 493.5469,352.6406 C493.4375,352.7969 493.4063,352.9375 493.4063,353.4219 L493.4063,354.2969 L489.0469,354.2969 L489.0469,351.875 Z " fill="#000000"/><text fill="#000000" font-family="sans-serif" font-size="14" lengthAdjust="spacing" textLength="109" x="510.75" y="355.8467">UserPermission</text><line style="stroke:#181818;stroke-width:0.5;" x1="445.5" x2="652.5" y1="367" y2="367"/><ellipse cx="455.5" cy="380.6484" fill="#000000" rx="3" ry="3" style="stroke:#000000;stroke-width:1.0;"/><text fill="#000000" font-family="sans-serif" font-size="14" lengthAdjust="spacing" textLength="66" x="464.5" y="383.9951">id: String</text><ellipse cx="455.5" cy="396.9453" fill="#000000" rx="3" ry="3" style="stroke:#000000;stroke-width:1.0;"/><text fill="#000000" font-family="sans-serif" font-size="14" lengthAdjust="spacing" textLength="96" x="464.5" y="400.292">userId: String</text><ellipse cx="455.5" cy="413.2422" fill="#000000" rx="3" ry="3" style="stroke:#000000;stroke-width:1.0;"/><text fill="#000000" font-family="sans-serif" font-size="14" lengthAdjust="spacing" textLength="183" x="464.5" y="416.5889">permissions: Permission[]</text><ellipse cx="455.5" cy="429.5391" fill="#000000" rx="3" ry="3" style="stroke:#000000;stroke-width:1.0;"/><text fill="#000000" font-family="sans-serif" font-size="14" lengthAdjust="spacing" textLength="70" x="464.5" y="432.8857">user: User</text><line style="stroke:#181818;stroke-width:0.5;" x1="445.5" x2="652.5" y1="440.1875" y2="440.1875"/></g><!--class Profile--><g id="elem_Profile"><rect codeLine="39" fill="#F1F1F1" height="113.1875" id="Profile" rx="2.5" ry="2.5" style="stroke:#181818;stroke-width:0.5;" width="122" x="689" y="335"/><ellipse cx="723.35" cy="351" fill="#ADD1B2" rx="11" ry="11" style="stroke:#181818;stroke-width:1.0;"/><path d="M722.1469,351.875 L723.6,351.875 L723.6,351.9844 C723.6,352.3906 723.6313,352.5469 723.7094,352.7031 C723.8656,352.9531 724.1469,353.1094 724.4438,353.1094 C724.6938,353.1094 724.9594,352.9688 725.1156,352.75 C725.2406,352.5938 725.2719,352.4375 725.2719,351.9844 L725.2719,350.0625 C725.2719,349.9063 725.2719,349.8594 725.2563,349.7031 C725.1938,349.2344 724.8813,348.9219 724.4281,348.9219 C724.1781,348.9219 723.9125,349.0625 723.7406,349.2813 C723.6313,349.4531 723.6,349.6094 723.6,350.0625 L723.6,350.1875 L722.1469,350.1875 L722.1469,347.7813 L726.1313,347.7813 L726.1313,348.6406 C726.1313,349.0469 726.1625,349.2188 726.2406,349.375 C726.4125,349.625 726.6938,349.7813 726.975,349.7813 C727.2406,349.7813 727.5063,349.6406 727.6781,349.4219 C727.7875,349.25 727.8188,349.1094 727.8188,348.6406 L727.8188,346.0938 L720.1938,346.0938 C719.7563,346.0938 719.6313,346.1094 719.475,346.2031 C719.225,346.3594 719.0688,346.6563 719.0688,346.9375 C719.0688,347.2188 719.2094,347.4688 719.4281,347.6406 C719.5844,347.75 719.7719,347.7813 720.1938,347.7813 L720.4438,347.7813 L720.4438,354.2969 L720.1938,354.2969 C719.7875,354.2969 719.6313,354.3125 719.475,354.4219 C719.225,354.5938 719.0688,354.8594 719.0688,355.1563 C719.0688,355.4219 719.2094,355.6719 719.4281,355.8281 C719.5688,355.9531 719.8031,356 720.1938,356 L728.1938,356 L728.1938,353.4219 C728.1938,352.9844 728.1625,352.8438 728.0844,352.6875 C727.9125,352.4375 727.6313,352.2813 727.35,352.2813 C727.0844,352.2813 726.8188,352.3906 726.6469,352.6406 C726.5375,352.7969 726.5063,352.9375 726.5063,353.4219 L726.5063,354.2969 L722.1469,354.2969 L722.1469,351.875 Z " fill="#000000"/><text fill="#000000" font-family="sans-serif" font-size="14" lengthAdjust="spacing" textLength="47" x="741.65" y="355.8467">Profile</text><line style="stroke:#181818;stroke-width:0.5;" x1="690" x2="810" y1="367" y2="367"/><ellipse cx="700" cy="380.6484" fill="#000000" rx="3" ry="3" style="stroke:#000000;stroke-width:1.0;"/><text fill="#000000" font-family="sans-serif" font-size="14" lengthAdjust="spacing" textLength="66" x="709" y="383.9951">id: String</text><ellipse cx="700" cy="396.9453" fill="#000000" rx="3" ry="3" style="stroke:#000000;stroke-width:1.0;"/><text fill="#000000" font-family="sans-serif" font-size="14" lengthAdjust="spacing" textLength="76" x="709" y="400.292">bio: String</text><ellipse cx="700" cy="413.2422" fill="#000000" rx="3" ry="3" style="stroke:#000000;stroke-width:1.0;"/><text fill="#000000" font-family="sans-serif" font-size="14" lengthAdjust="spacing" textLength="96" x="709" y="416.5889">userId: String</text><ellipse cx="700" cy="429.5391" fill="#000000" rx="3" ry="3" style="stroke:#000000;stroke-width:1.0;"/><text fill="#000000" font-family="sans-serif" font-size="14" lengthAdjust="spacing" textLength="70" x="709" y="432.8857">user: User</text><line style="stroke:#181818;stroke-width:0.5;" x1="690" x2="810" y1="440.1875" y2="440.1875"/></g><!--class BlogPost--><g id="elem_BlogPost"><rect codeLine="46" fill="#F1F1F1" height="194.6719" id="BlogPost" rx="2.5" ry="2.5" style="stroke:#181818;stroke-width:0.5;" width="187" x="846.5" y="294"/><ellipse cx="903.75" cy="310" fill="#ADD1B2" rx="11" ry="11" style="stroke:#181818;stroke-width:1.0;"/><path d="M902.5469,310.875 L904,310.875 L904,310.9844 C904,311.3906 904.0313,311.5469 904.1094,311.7031 C904.2656,311.9531 904.5469,312.1094 904.8438,312.1094 C905.0938,312.1094 905.3594,311.9688 905.5156,311.75 C905.6406,311.5938 905.6719,311.4375 905.6719,310.9844 L905.6719,309.0625 C905.6719,308.9063 905.6719,308.8594 905.6563,308.7031 C905.5938,308.2344 905.2813,307.9219 904.8281,307.9219 C904.5781,307.9219 904.3125,308.0625 904.1406,308.2813 C904.0313,308.4531 904,308.6094 904,309.0625 L904,309.1875 L902.5469,309.1875 L902.5469,306.7813 L906.5313,306.7813 L906.5313,307.6406 C906.5313,308.0469 906.5625,308.2188 906.6406,308.375 C906.8125,308.625 907.0938,308.7813 907.375,308.7813 C907.6406,308.7813 907.9063,308.6406 908.0781,308.4219 C908.1875,308.25 908.2188,308.1094 908.2188,307.6406 L908.2188,305.0938 L900.5938,305.0938 C900.1563,305.0938 900.0313,305.1094 899.875,305.2031 C899.625,305.3594 899.4688,305.6563 899.4688,305.9375 C899.4688,306.2188 899.6094,306.4688 899.8281,306.6406 C899.9844,306.75 900.1719,306.7813 900.5938,306.7813 L900.8438,306.7813 L900.8438,313.2969 L900.5938,313.2969 C900.1875,313.2969 900.0313,313.3125 899.875,313.4219 C899.625,313.5938 899.4688,313.8594 899.4688,314.1563 C899.4688,314.4219 899.6094,314.6719 899.8281,314.8281 C899.9688,314.9531 900.2031,315 900.5938,315 L908.5938,315 L908.5938,312.4219 C908.5938,311.9844 908.5625,311.8438 908.4844,311.6875 C908.3125,311.4375 908.0313,311.2813 907.75,311.2813 C907.4844,311.2813 907.2188,311.3906 907.0469,311.6406 C906.9375,311.7969 906.9063,311.9375 906.9063,312.4219 L906.9063,313.2969 L902.5469,313.2969 L902.5469,310.875 Z " fill="#000000"/><text fill="#000000" font-family="sans-serif" font-size="14" lengthAdjust="spacing" textLength="64" x="924.25" y="314.8467">BlogPost</text><line style="stroke:#181818;stroke-width:0.5;" x1="847.5" x2="1032.5" y1="326" y2="326"/><ellipse cx="857.5" cy="339.6484" fill="#000000" rx="3" ry="3" style="stroke:#000000;stroke-width:1.0;"/><text fill="#000000" font-family="sans-serif" font-size="14" lengthAdjust="spacing" textLength="66" x="866.5" y="342.9951">id: String</text><ellipse cx="857.5" cy="355.9453" fill="#000000" rx="3" ry="3" style="stroke:#000000;stroke-width:1.0;"/><text fill="#000000" font-family="sans-serif" font-size="14" lengthAdjust="spacing" textLength="84" x="866.5" y="359.292">title: String</text><ellipse cx="857.5" cy="372.2422" fill="#000000" rx="3" ry="3" style="stroke:#000000;stroke-width:1.0;"/><text fill="#000000" font-family="sans-serif" font-size="14" lengthAdjust="spacing" textLength="111" x="866.5" y="375.5889">content: String</text><ellipse cx="857.5" cy="388.5391" fill="#000000" rx="3" ry="3" style="stroke:#000000;stroke-width:1.0;"/><text fill="#000000" font-family="sans-serif" font-size="14" lengthAdjust="spacing" textLength="137" x="866.5" y="391.8857">published: Boolean</text><text fill="#000000" font-family="sans-serif" font-size="14" lengthAdjust="spacing" textLength="120" x="866.5" y="408.1826">authorId: String?</text><ellipse cx="857.5" cy="421.1328" fill="#000000" rx="3" ry="3" style="stroke:#000000;stroke-width:1.0;"/><text fill="#000000" font-family="sans-serif" font-size="14" lengthAdjust="spacing" textLength="153" x="866.5" y="424.4795">createdAt: DateTime</text><ellipse cx="857.5" cy="437.4297" fill="#000000" rx="3" ry="3" style="stroke:#000000;stroke-width:1.0;"/><text fill="#000000" font-family="sans-serif" font-size="14" lengthAdjust="spacing" textLength="157" x="866.5" y="440.7764">updatedAt: DateTime</text><text fill="#000000" font-family="sans-serif" font-size="14" lengthAdjust="spacing" textLength="94" x="866.5" y="457.0732">author: User?</text><ellipse cx="857.5" cy="470.0234" fill="#000000" rx="3" ry="3" style="stroke:#000000;stroke-width:1.0;"/><text fill="#000000" font-family="sans-serif" font-size="14" lengthAdjust="spacing" textLength="161" x="866.5" y="473.3701">categories: Category[]</text><line style="stroke:#181818;stroke-width:0.5;" x1="847.5" x2="1032.5" y1="480.6719" y2="480.6719"/></g><!--class Category--><g id="elem_Category"><rect codeLine="58" fill="#F1F1F1" height="96.8906" id="Category" rx="2.5" ry="2.5" style="stroke:#181818;stroke-width:0.5;" width="149" x="865.5" y="549"/><ellipse cx="903.45" cy="565" fill="#ADD1B2" rx="11" ry="11" style="stroke:#181818;stroke-width:1.0;"/><path d="M902.2469,565.875 L903.7,565.875 L903.7,565.9844 C903.7,566.3906 903.7313,566.5469 903.8094,566.7031 C903.9656,566.9531 904.2469,567.1094 904.5438,567.1094 C904.7938,567.1094 905.0594,566.9688 905.2156,566.75 C905.3406,566.5938 905.3719,566.4375 905.3719,565.9844 L905.3719,564.0625 C905.3719,563.9063 905.3719,563.8594 905.3563,563.7031 C905.2938,563.2344 904.9813,562.9219 904.5281,562.9219 C904.2781,562.9219 904.0125,563.0625 903.8406,563.2813 C903.7313,563.4531 903.7,563.6094 903.7,564.0625 L903.7,564.1875 L902.2469,564.1875 L902.2469,561.7813 L906.2313,561.7813 L906.2313,562.6406 C906.2313,563.0469 906.2625,563.2188 906.3406,563.375 C906.5125,563.625 906.7938,563.7813 907.075,563.7813 C907.3406,563.7813 907.6063,563.6406 907.7781,563.4219 C907.8875,563.25 907.9188,563.1094 907.9188,562.6406 L907.9188,560.0938 L900.2938,560.0938 C899.8563,560.0938 899.7313,560.1094 899.575,560.2031 C899.325,560.3594 899.1688,560.6563 899.1688,560.9375 C899.1688,561.2188 899.3094,561.4688 899.5281,561.6406 C899.6844,561.75 899.8719,561.7813 900.2938,561.7813 L900.5438,561.7813 L900.5438,568.2969 L900.2938,568.2969 C899.8875,568.2969 899.7313,568.3125 899.575,568.4219 C899.325,568.5938 899.1688,568.8594 899.1688,569.1563 C899.1688,569.4219 899.3094,569.6719 899.5281,569.8281 C899.6688,569.9531 899.9031,570 900.2938,570 L908.2938,570 L908.2938,567.4219 C908.2938,566.9844 908.2625,566.8438 908.1844,566.6875 C908.0125,566.4375 907.7313,566.2813 907.45,566.2813 C907.1844,566.2813 906.9188,566.3906 906.7469,566.6406 C906.6375,566.7969 906.6063,566.9375 906.6063,567.4219 L906.6063,568.2969 L902.2469,568.2969 L902.2469,565.875 Z " fill="#000000"/><text fill="#000000" font-family="sans-serif" font-size="14" lengthAdjust="spacing" textLength="66" x="922.55" y="569.8467">Category</text><line style="stroke:#181818;stroke-width:0.5;" x1="866.5" x2="1013.5" y1="581" y2="581"/><ellipse cx="876.5" cy="594.6484" fill="#000000" rx="3" ry="3" style="stroke:#000000;stroke-width:1.0;"/><text fill="#000000" font-family="sans-serif" font-size="14" lengthAdjust="spacing" textLength="66" x="885.5" y="597.9951">id: String</text><ellipse cx="876.5" cy="610.9453" fill="#000000" rx="3" ry="3" style="stroke:#000000;stroke-width:1.0;"/><text fill="#000000" font-family="sans-serif" font-size="14" lengthAdjust="spacing" textLength="93" x="885.5" y="614.292">name: String</text><ellipse cx="876.5" cy="627.2422" fill="#000000" rx="3" ry="3" style="stroke:#000000;stroke-width:1.0;"/><text fill="#000000" font-family="sans-serif" font-size="14" lengthAdjust="spacing" textLength="123" x="885.5" y="630.5889">posts: BlogPost[]</text><line style="stroke:#181818;stroke-width:0.5;" x1="866.5" x2="1013.5" y1="637.8906" y2="637.8906"/></g><!--link User to Role--><g id="link_User_Role"><path codeLine="64" d="M272.274,83 C272.274,83 43,83 43,83 C43,83 43,335.958 43,335.958 " fill="none" id="User-Role" style="stroke:#181818;stroke-width:1.0;stroke-dasharray:7.0,7.0;"/><line style="stroke:#181818;stroke-width:1.0;" x1="275.274" x2="275.274" y1="79" y2="87"/><line style="stroke:#181818;stroke-width:1.0;" x1="272.274" x2="272.274" y1="79" y2="87"/><line style="stroke:#181818;stroke-width:1.0;" x1="271.274" x2="279.274" y1="83" y2="83"/><line style="stroke:#181818;stroke-width:1.0;" x1="47" x2="39" y1="338.958" y2="338.958"/><line style="stroke:#181818;stroke-width:1.0;" x1="47" x2="39" y1="335.958" y2="335.958"/><line style="stroke:#181818;stroke-width:1.0;" x1="43" x2="43" y1="334.958" y2="342.958"/></g><!--link User to Role--><g id="link_User_Role"><path codeLine="70" d="M272.191,159 C272.191,159 79,159 79,159 C79,159 79,335.76 79,335.76 " fill="none" id="User-Role-1" style="stroke:#181818;stroke-width:1.0;stroke-dasharray:7.0,7.0;"/><line style="stroke:#181818;stroke-width:1.0;" x1="275.191" x2="275.191" y1="155" y2="163"/><line style="stroke:#181818;stroke-width:1.0;" x1="272.191" x2="272.191" y1="155" y2="163"/><line style="stroke:#181818;stroke-width:1.0;" x1="271.191" x2="279.191" y1="159" y2="159"/><line style="stroke:#181818;stroke-width:1.0;" x1="83" x2="75" y1="338.76" y2="338.76"/><line style="stroke:#181818;stroke-width:1.0;" x1="83" x2="75" y1="335.76" y2="335.76"/><line style="stroke:#181818;stroke-width:1.0;" x1="79" x2="79" y1="334.76" y2="342.76"/></g><!--link User to Permission--><g id="link_User_Permission"><path codeLine="65" d="M344.5,242.25 C344.5,242.25 344.5,310.183 344.5,310.183 " fill="none" id="User-Permission" style="stroke:#181818;stroke-width:1.0;stroke-dasharray:7.0,7.0;"/><line style="stroke:#181818;stroke-width:1.0;" x1="340.5" x2="348.5" y1="238.25" y2="238.25"/><line style="stroke:#181818;stroke-width:1.0;" x1="340.5" x2="348.5" y1="241.25" y2="241.25"/><line style="stroke:#181818;stroke-width:1.0;" x1="344.5" x2="344.5" y1="242.25" y2="234.25"/><line style="stroke:#181818;stroke-width:1.0;" x1="344.5" x2="350.5" y1="310.183" y2="318.183"/><line style="stroke:#181818;stroke-width:1.0;" x1="344.5" x2="338.5" y1="310.183" y2="318.183"/><line style="stroke:#181818;stroke-width:1.0;" x1="344.5" x2="344.5" y1="310.183" y2="318.183"/><line style="stroke:#181818;stroke-width:1.0;" x1="348.5" x2="340.5" y1="308.183" y2="308.183"/></g><!--link User to UserPermission--><g id="link_User_UserPermission"><path codeLine="66" d="M479.167,242.25 C479.167,242.25 479.167,326.947 479.167,326.947 " fill="none" id="User-UserPermission" style="stroke:#181818;stroke-width:1.0;stroke-dasharray:7.0,7.0;"/><line style="stroke:#181818;stroke-width:1.0;" x1="475.167" x2="483.167" y1="238.25" y2="238.25"/><line style="stroke:#181818;stroke-width:1.0;" x1="475.167" x2="483.167" y1="241.25" y2="241.25"/><line style="stroke:#181818;stroke-width:1.0;" x1="479.167" x2="479.167" y1="242.25" y2="234.25"/><line style="stroke:#181818;stroke-width:1.0;" x1="479.167" x2="485.167" y1="326.947" y2="334.947"/><line style="stroke:#181818;stroke-width:1.0;" x1="479.167" x2="473.167" y1="326.947" y2="334.947"/><line style="stroke:#181818;stroke-width:1.0;" x1="479.167" x2="479.167" y1="326.947" y2="334.947"/><line style="stroke:#181818;stroke-width:1.0;" x1="483.167" x2="475.167" y1="324.947" y2="324.947"/></g><!--link User to Profile--><g id="link_User_Profile"><path codeLine="67" d="M556.728,121 C556.728,121 750,121 750,121 C750,121 750,326.794 750,326.794 " fill="none" id="User-Profile" style="stroke:#181818;stroke-width:1.0;stroke-dasharray:7.0,7.0;"/><line style="stroke:#181818;stroke-width:1.0;" x1="552.728" x2="552.728" y1="125" y2="117"/><line style="stroke:#181818;stroke-width:1.0;" x1="555.728" x2="555.728" y1="125" y2="117"/><line style="stroke:#181818;stroke-width:1.0;" x1="556.728" x2="548.728" y1="121" y2="121"/><line style="stroke:#181818;stroke-width:1.0;" x1="750" x2="750" y1="323.794" y2="334.794"/><ellipse cx="750" cy="323.794" fill="none" rx="4" ry="4" style="stroke:#181818;stroke-width:1.0;"/><line style="stroke:#181818;stroke-width:1.0;" x1="754" x2="746" y1="330.794" y2="330.794"/></g><!--link User to BlogPost--><g id="link_User_BlogPost"><path codeLine="68" d="M513.833,242.093 C513.833,242.093 513.833,307 513.833,307 C513.833,307 838.476,307 838.476,307 " fill="none" id="User-BlogPost" style="stroke:#181818;stroke-width:1.0;stroke-dasharray:7.0,7.0;"/><line style="stroke:#181818;stroke-width:1.0;" x1="513.833" x2="513.833" y1="245.093" y2="234.093"/><ellipse cx="513.833" cy="245.093" fill="none" rx="4" ry="4" style="stroke:#181818;stroke-width:1.0;"/><line style="stroke:#181818;stroke-width:1.0;" x1="509.833" x2="517.833" y1="238.093" y2="238.093"/><line style="stroke:#181818;stroke-width:1.0;" x1="838.476" x2="846.476" y1="307" y2="301"/><line style="stroke:#181818;stroke-width:1.0;" x1="838.476" x2="846.476" y1="307" y2="313"/><line style="stroke:#181818;stroke-width:1.0;" x1="838.476" x2="846.476" y1="307" y2="307"/><line style="stroke:#181818;stroke-width:1.0;" x1="836.476" x2="836.476" y1="303" y2="311"/></g><!--link BlogPost to Category--><g id="link_BlogPost_Category"><path codeLine="69" d="M940,497.071 C940,497.071 940,540.95 940,540.95 " fill="none" id="BlogPost-Category" style="stroke:#181818;stroke-width:1.0;stroke-dasharray:7.0,7.0;"/><line style="stroke:#181818;stroke-width:1.0;" x1="940" x2="934" y1="497.071" y2="489.071"/><line style="stroke:#181818;stroke-width:1.0;" x1="940" x2="946" y1="497.071" y2="489.071"/><line style="stroke:#181818;stroke-width:1.0;" x1="940" x2="940" y1="497.071" y2="489.071"/><line style="stroke:#181818;stroke-width:1.0;" x1="936" x2="944" y1="499.071" y2="499.071"/><line style="stroke:#181818;stroke-width:1.0;" x1="940" x2="946" y1="540.9499" y2="548.9499"/><line style="stroke:#181818;stroke-width:1.0;" x1="940" x2="934" y1="540.9499" y2="548.9499"/><line style="stroke:#181818;stroke-width:1.0;" x1="940" x2="940" y1="540.9499" y2="548.9499"/><line style="stroke:#181818;stroke-width:1.0;" x1="944" x2="936" y1="538.9499" y2="538.9499"/></g><!--SRC=[fLExRiCm3Dpz5Pepv0Ey17aD6PeOUKn5KIWDwn2n94EIXo3ElvUMuiYA3HH59rD7ydGyqUQ2ikIQ2rQW17ijWIbjpof9G5Q2RLK1x9OmTjWjj_JPPClrvtI-tpI7wU9jjKxkJQb5UsK70zeLZnYUKhQp6cNkZbyQk8NJrAPiGS4U1JYyAay3E0YEHTi_8G05pw4BI2wYyuXf4fewkUvuB5IUAKEyiqVq_k4I9MY1ng2IASkUiKkMMdrZmvBvm1DND5GeDAcRCkeC1WHus8Q6QnL3GS-UlE-audj3Lr3bfVHANnLENbxeNo9DpxL8IySAx-7m5KTKlrqvIDg-vJ0hbHGGhvsIbbhZMQfZWUOCr3jJj2vS4imhMddzQlBVjjPpUCsFVahcIYEGQtCVNwDzQS7XURfBxgNJw2RQQA9oFrrTZyTrxTS_0BVEMqLml0OXfUhstHwOSkNjXSdJ_xldQVNtHFm0]--></g></svg>