<?xml version="1.0" encoding="us-ascii" standalone="no"?><svg xmlns="http://www.w3.org/2000/svg" xmlns:xlink="http://www.w3.org/1999/xlink" contentStyleType="text/css" height="880px" preserveAspectRatio="none" style="width:1525px;height:880px;background:#FFFFFF;" version="1.1" viewBox="0 0 1525 880" width="1525px" zoomAndPan="magnify"><defs/><g><!--class Role--><g id="elem_Role"><rect codeLine="3" fill="#F1F1F1" height="96.8906" id="Role" rx="2.5" ry="2.5" style="stroke:#181818;stroke-width:0.5;" width="108" x="7" y="424.5"/><ellipse cx="41.8" cy="440.5" fill="#EB937F" rx="11" ry="11" style="stroke:#181818;stroke-width:1.0;"/><path d="M40.5969,441.375 L42.05,441.375 L42.05,441.4844 C42.05,441.8906 42.0813,442.0469 42.1594,442.2031 C42.3156,442.4531 42.5969,442.6094 42.8938,442.6094 C43.1438,442.6094 43.4094,442.4688 43.5656,442.25 C43.6906,442.0938 43.7219,441.9375 43.7219,441.4844 L43.7219,439.5625 C43.7219,439.4063 43.7219,439.3594 43.7063,439.2031 C43.6438,438.7344 43.3313,438.4219 42.8781,438.4219 C42.6281,438.4219 42.3625,438.5625 42.1906,438.7813 C42.0813,438.9531 42.05,439.1094 42.05,439.5625 L42.05,439.6875 L40.5969,439.6875 L40.5969,437.2813 L44.5813,437.2813 L44.5813,438.1406 C44.5813,438.5469 44.6125,438.7188 44.6906,438.875 C44.8625,439.125 45.1438,439.2813 45.425,439.2813 C45.6906,439.2813 45.9563,439.1406 46.1281,438.9219 C46.2375,438.75 46.2688,438.6094 46.2688,438.1406 L46.2688,435.5938 L38.6438,435.5938 C38.2063,435.5938 38.0813,435.6094 37.925,435.7031 C37.675,435.8594 37.5188,436.1563 37.5188,436.4375 C37.5188,436.7188 37.6594,436.9688 37.8781,437.1406 C38.0344,437.25 38.2219,437.2813 38.6438,437.2813 L38.8938,437.2813 L38.8938,443.7969 L38.6438,443.7969 C38.2375,443.7969 38.0813,443.8125 37.925,443.9219 C37.675,444.0938 37.5188,444.3594 37.5188,444.6563 C37.5188,444.9219 37.6594,445.1719 37.8781,445.3281 C38.0188,445.4531 38.2531,445.5 38.6438,445.5 L46.6438,445.5 L46.6438,442.9219 C46.6438,442.4844 46.6125,442.3438 46.5344,442.1875 C46.3625,441.9375 46.0813,441.7813 45.8,441.7813 C45.5344,441.7813 45.2688,441.8906 45.0969,442.1406 C44.9875,442.2969 44.9563,442.4375 44.9563,442.9219 L44.9563,443.7969 L40.5969,443.7969 L40.5969,441.375 Z " fill="#000000"/><text fill="#000000" font-family="sans-serif" font-size="14" lengthAdjust="spacing" textLength="32" x="60.2" y="445.3467">Role</text><line style="stroke:#181818;stroke-width:0.5;" x1="8" x2="114" y1="456.5" y2="456.5"/><text fill="#000000" font-family="sans-serif" font-size="14" lengthAdjust="spacing" textLength="37" x="13" y="473.4951">USER</text><text fill="#000000" font-family="sans-serif" font-size="14" lengthAdjust="spacing" textLength="96" x="13" y="489.792">OPEN_ACTOR</text><text fill="#000000" font-family="sans-serif" font-size="14" lengthAdjust="spacing" textLength="47" x="13" y="506.0889">ADMIN</text><line style="stroke:#181818;stroke-width:0.5;" x1="8" x2="114" y1="513.3906" y2="513.3906"/></g><!--class User--><g id="elem_User"><rect codeLine="9" fill="#F1F1F1" height="276.1563" id="User" rx="2.5" ry="2.5" style="stroke:#181818;stroke-width:0.5;" width="284" x="507" y="7"/><ellipse cx="629.25" cy="23" fill="#ADD1B2" rx="11" ry="11" style="stroke:#181818;stroke-width:1.0;"/><path d="M628.0469,23.875 L629.5,23.875 L629.5,23.9844 C629.5,24.3906 629.5313,24.5469 629.6094,24.7031 C629.7656,24.9531 630.0469,25.1094 630.3438,25.1094 C630.5938,25.1094 630.8594,24.9688 631.0156,24.75 C631.1406,24.5938 631.1719,24.4375 631.1719,23.9844 L631.1719,22.0625 C631.1719,21.9063 631.1719,21.8594 631.1563,21.7031 C631.0938,21.2344 630.7813,20.9219 630.3281,20.9219 C630.0781,20.9219 629.8125,21.0625 629.6406,21.2813 C629.5313,21.4531 629.5,21.6094 629.5,22.0625 L629.5,22.1875 L628.0469,22.1875 L628.0469,19.7813 L632.0313,19.7813 L632.0313,20.6406 C632.0313,21.0469 632.0625,21.2188 632.1406,21.375 C632.3125,21.625 632.5938,21.7813 632.875,21.7813 C633.1406,21.7813 633.4063,21.6406 633.5781,21.4219 C633.6875,21.25 633.7188,21.1094 633.7188,20.6406 L633.7188,18.0938 L626.0938,18.0938 C625.6563,18.0938 625.5313,18.1094 625.375,18.2031 C625.125,18.3594 624.9688,18.6563 624.9688,18.9375 C624.9688,19.2188 625.1094,19.4688 625.3281,19.6406 C625.4844,19.75 625.6719,19.7813 626.0938,19.7813 L626.3438,19.7813 L626.3438,26.2969 L626.0938,26.2969 C625.6875,26.2969 625.5313,26.3125 625.375,26.4219 C625.125,26.5938 624.9688,26.8594 624.9688,27.1563 C624.9688,27.4219 625.1094,27.6719 625.3281,27.8281 C625.4688,27.9531 625.7031,28 626.0938,28 L634.0938,28 L634.0938,25.4219 C634.0938,24.9844 634.0625,24.8438 633.9844,24.6875 C633.8125,24.4375 633.5313,24.2813 633.25,24.2813 C632.9844,24.2813 632.7188,24.3906 632.5469,24.6406 C632.4375,24.7969 632.4063,24.9375 632.4063,25.4219 L632.4063,26.2969 L628.0469,26.2969 L628.0469,23.875 Z " fill="#000000"/><text fill="#000000" font-family="sans-serif" font-size="14" lengthAdjust="spacing" textLength="31" x="649.75" y="27.8467">User</text><line style="stroke:#181818;stroke-width:0.5;" x1="508" x2="790" y1="39" y2="39"/><ellipse cx="518" cy="52.6484" fill="#000000" rx="3" ry="3" style="stroke:#000000;stroke-width:1.0;"/><text fill="#000000" font-family="sans-serif" font-size="14" lengthAdjust="spacing" textLength="66" x="527" y="55.9951">id: String</text><ellipse cx="518" cy="68.9453" fill="#000000" rx="3" ry="3" style="stroke:#000000;stroke-width:1.0;"/><text fill="#000000" font-family="sans-serif" font-size="14" lengthAdjust="spacing" textLength="153" x="527" y="72.292">createdAt: DateTime</text><ellipse cx="518" cy="85.2422" fill="#000000" rx="3" ry="3" style="stroke:#000000;stroke-width:1.0;"/><text fill="#000000" font-family="sans-serif" font-size="14" lengthAdjust="spacing" textLength="157" x="527" y="88.5889">updatedAt: DateTime</text><text fill="#000000" font-family="sans-serif" font-size="14" lengthAdjust="spacing" textLength="99" x="527" y="104.8857">email: String?</text><text fill="#000000" font-family="sans-serif" font-size="14" lengthAdjust="spacing" textLength="127" x="527" y="121.1826">password: String?</text><text fill="#000000" font-family="sans-serif" font-size="14" lengthAdjust="spacing" textLength="104" x="527" y="137.4795">image: String?</text><text fill="#000000" font-family="sans-serif" font-size="14" lengthAdjust="spacing" textLength="100" x="527" y="153.7764">name: String?</text><ellipse cx="518" cy="166.7266" fill="#000000" rx="3" ry="3" style="stroke:#000000;stroke-width:1.0;"/><text fill="#000000" font-family="sans-serif" font-size="14" lengthAdjust="spacing" textLength="69" x="527" y="170.0732">role: Role</text><ellipse cx="518" cy="183.0234" fill="#000000" rx="3" ry="3" style="stroke:#000000;stroke-width:1.0;"/><text fill="#000000" font-family="sans-serif" font-size="14" lengthAdjust="spacing" textLength="147" x="527" y="186.3701">blogPost: BlogPost[]</text><ellipse cx="518" cy="199.3203" fill="#000000" rx="3" ry="3" style="stroke:#000000;stroke-width:1.0;"/><text fill="#000000" font-family="sans-serif" font-size="14" lengthAdjust="spacing" textLength="176" x="527" y="202.667">permission: Permission[]</text><text fill="#000000" font-family="sans-serif" font-size="14" lengthAdjust="spacing" textLength="111" x="527" y="218.9639">profile: Profile?</text><ellipse cx="518" cy="231.9141" fill="#000000" rx="3" ry="3" style="stroke:#000000;stroke-width:1.0;"/><text fill="#000000" font-family="sans-serif" font-size="14" lengthAdjust="spacing" textLength="243" x="527" y="235.2607">userPermissions: UserPermission[]</text><ellipse cx="518" cy="248.2109" fill="#000000" rx="3" ry="3" style="stroke:#000000;stroke-width:1.0;"/><text fill="#000000" font-family="sans-serif" font-size="14" lengthAdjust="spacing" textLength="132" x="527" y="251.5576">sessions: Session[]</text><ellipse cx="518" cy="264.5078" fill="#000000" rx="3" ry="3" style="stroke:#000000;stroke-width:1.0;"/><text fill="#000000" font-family="sans-serif" font-size="14" lengthAdjust="spacing" textLength="258" x="527" y="267.8545">providerAccount: ProviderAccount[]</text><line style="stroke:#181818;stroke-width:0.5;" x1="508" x2="790" y1="275.1563" y2="275.1563"/></g><!--class Permission--><g id="elem_Permission"><rect codeLine="26" fill="#F1F1F1" height="145.7813" id="Permission" rx="2.5" ry="2.5" style="stroke:#181818;stroke-width:0.5;" width="259" x="150.5" y="400"/><ellipse cx="236.75" cy="416" fill="#ADD1B2" rx="11" ry="11" style="stroke:#181818;stroke-width:1.0;"/><path d="M235.5469,416.875 L237,416.875 L237,416.9844 C237,417.3906 237.0313,417.5469 237.1094,417.7031 C237.2656,417.9531 237.5469,418.1094 237.8438,418.1094 C238.0938,418.1094 238.3594,417.9688 238.5156,417.75 C238.6406,417.5938 238.6719,417.4375 238.6719,416.9844 L238.6719,415.0625 C238.6719,414.9063 238.6719,414.8594 238.6563,414.7031 C238.5938,414.2344 238.2813,413.9219 237.8281,413.9219 C237.5781,413.9219 237.3125,414.0625 237.1406,414.2813 C237.0313,414.4531 237,414.6094 237,415.0625 L237,415.1875 L235.5469,415.1875 L235.5469,412.7813 L239.5313,412.7813 L239.5313,413.6406 C239.5313,414.0469 239.5625,414.2188 239.6406,414.375 C239.8125,414.625 240.0938,414.7813 240.375,414.7813 C240.6406,414.7813 240.9063,414.6406 241.0781,414.4219 C241.1875,414.25 241.2188,414.1094 241.2188,413.6406 L241.2188,411.0938 L233.5938,411.0938 C233.1563,411.0938 233.0313,411.1094 232.875,411.2031 C232.625,411.3594 232.4688,411.6563 232.4688,411.9375 C232.4688,412.2188 232.6094,412.4688 232.8281,412.6406 C232.9844,412.75 233.1719,412.7813 233.5938,412.7813 L233.8438,412.7813 L233.8438,419.2969 L233.5938,419.2969 C233.1875,419.2969 233.0313,419.3125 232.875,419.4219 C232.625,419.5938 232.4688,419.8594 232.4688,420.1563 C232.4688,420.4219 232.6094,420.6719 232.8281,420.8281 C232.9688,420.9531 233.2031,421 233.5938,421 L241.5938,421 L241.5938,418.4219 C241.5938,417.9844 241.5625,417.8438 241.4844,417.6875 C241.3125,417.4375 241.0313,417.2813 240.75,417.2813 C240.4844,417.2813 240.2188,417.3906 240.0469,417.6406 C239.9375,417.7969 239.9063,417.9375 239.9063,418.4219 L239.9063,419.2969 L235.5469,419.2969 L235.5469,416.875 Z " fill="#000000"/><text fill="#000000" font-family="sans-serif" font-size="14" lengthAdjust="spacing" textLength="78" x="257.25" y="420.8467">Permission</text><line style="stroke:#181818;stroke-width:0.5;" x1="151.5" x2="408.5" y1="432" y2="432"/><ellipse cx="161.5" cy="445.6484" fill="#000000" rx="3" ry="3" style="stroke:#000000;stroke-width:1.0;"/><text fill="#000000" font-family="sans-serif" font-size="14" lengthAdjust="spacing" textLength="66" x="170.5" y="448.9951">id: String</text><ellipse cx="161.5" cy="461.9453" fill="#000000" rx="3" ry="3" style="stroke:#000000;stroke-width:1.0;"/><text fill="#000000" font-family="sans-serif" font-size="14" lengthAdjust="spacing" textLength="96" x="170.5" y="465.292">userId: String</text><ellipse cx="161.5" cy="478.2422" fill="#000000" rx="3" ry="3" style="stroke:#000000;stroke-width:1.0;"/><text fill="#000000" font-family="sans-serif" font-size="14" lengthAdjust="spacing" textLength="168" x="170.5" y="481.5889">permissionType: String</text><text fill="#000000" font-family="sans-serif" font-size="14" lengthAdjust="spacing" textLength="181" x="170.5" y="497.8857">userPermissionId: String?</text><ellipse cx="161.5" cy="510.8359" fill="#000000" rx="3" ry="3" style="stroke:#000000;stroke-width:1.0;"/><text fill="#000000" font-family="sans-serif" font-size="14" lengthAdjust="spacing" textLength="70" x="170.5" y="514.1826">user: User</text><text fill="#000000" font-family="sans-serif" font-size="14" lengthAdjust="spacing" textLength="233" x="170.5" y="530.4795">userPermission: UserPermission?</text><line style="stroke:#181818;stroke-width:0.5;" x1="151.5" x2="408.5" y1="537.7813" y2="537.7813"/></g><!--class UserPermission--><g id="elem_UserPermission"><rect codeLine="35" fill="#F1F1F1" height="113.1875" id="UserPermission" rx="2.5" ry="2.5" style="stroke:#181818;stroke-width:0.5;" width="209" x="444.5" y="416.5"/><ellipse cx="490.25" cy="432.5" fill="#ADD1B2" rx="11" ry="11" style="stroke:#181818;stroke-width:1.0;"/><path d="M489.0469,433.375 L490.5,433.375 L490.5,433.4844 C490.5,433.8906 490.5313,434.0469 490.6094,434.2031 C490.7656,434.4531 491.0469,434.6094 491.3438,434.6094 C491.5938,434.6094 491.8594,434.4688 492.0156,434.25 C492.1406,434.0938 492.1719,433.9375 492.1719,433.4844 L492.1719,431.5625 C492.1719,431.4063 492.1719,431.3594 492.1563,431.2031 C492.0938,430.7344 491.7813,430.4219 491.3281,430.4219 C491.0781,430.4219 490.8125,430.5625 490.6406,430.7813 C490.5313,430.9531 490.5,431.1094 490.5,431.5625 L490.5,431.6875 L489.0469,431.6875 L489.0469,429.2813 L493.0313,429.2813 L493.0313,430.1406 C493.0313,430.5469 493.0625,430.7188 493.1406,430.875 C493.3125,431.125 493.5938,431.2813 493.875,431.2813 C494.1406,431.2813 494.4063,431.1406 494.5781,430.9219 C494.6875,430.75 494.7188,430.6094 494.7188,430.1406 L494.7188,427.5938 L487.0938,427.5938 C486.6563,427.5938 486.5313,427.6094 486.375,427.7031 C486.125,427.8594 485.9688,428.1563 485.9688,428.4375 C485.9688,428.7188 486.1094,428.9688 486.3281,429.1406 C486.4844,429.25 486.6719,429.2813 487.0938,429.2813 L487.3438,429.2813 L487.3438,435.7969 L487.0938,435.7969 C486.6875,435.7969 486.5313,435.8125 486.375,435.9219 C486.125,436.0938 485.9688,436.3594 485.9688,436.6563 C485.9688,436.9219 486.1094,437.1719 486.3281,437.3281 C486.4688,437.4531 486.7031,437.5 487.0938,437.5 L495.0938,437.5 L495.0938,434.9219 C495.0938,434.4844 495.0625,434.3438 494.9844,434.1875 C494.8125,433.9375 494.5313,433.7813 494.25,433.7813 C493.9844,433.7813 493.7188,433.8906 493.5469,434.1406 C493.4375,434.2969 493.4063,434.4375 493.4063,434.9219 L493.4063,435.7969 L489.0469,435.7969 L489.0469,433.375 Z " fill="#000000"/><text fill="#000000" font-family="sans-serif" font-size="14" lengthAdjust="spacing" textLength="109" x="510.75" y="437.3467">UserPermission</text><line style="stroke:#181818;stroke-width:0.5;" x1="445.5" x2="652.5" y1="448.5" y2="448.5"/><ellipse cx="455.5" cy="462.1484" fill="#000000" rx="3" ry="3" style="stroke:#000000;stroke-width:1.0;"/><text fill="#000000" font-family="sans-serif" font-size="14" lengthAdjust="spacing" textLength="66" x="464.5" y="465.4951">id: String</text><ellipse cx="455.5" cy="478.4453" fill="#000000" rx="3" ry="3" style="stroke:#000000;stroke-width:1.0;"/><text fill="#000000" font-family="sans-serif" font-size="14" lengthAdjust="spacing" textLength="96" x="464.5" y="481.792">userId: String</text><ellipse cx="455.5" cy="494.7422" fill="#000000" rx="3" ry="3" style="stroke:#000000;stroke-width:1.0;"/><text fill="#000000" font-family="sans-serif" font-size="14" lengthAdjust="spacing" textLength="183" x="464.5" y="498.0889">permissions: Permission[]</text><ellipse cx="455.5" cy="511.0391" fill="#000000" rx="3" ry="3" style="stroke:#000000;stroke-width:1.0;"/><text fill="#000000" font-family="sans-serif" font-size="14" lengthAdjust="spacing" textLength="70" x="464.5" y="514.3857">user: User</text><line style="stroke:#181818;stroke-width:0.5;" x1="445.5" x2="652.5" y1="521.6875" y2="521.6875"/></g><!--class Profile--><g id="elem_Profile"><rect codeLine="42" fill="#F1F1F1" height="113.1875" id="Profile" rx="2.5" ry="2.5" style="stroke:#181818;stroke-width:0.5;" width="122" x="689" y="416.5"/><ellipse cx="723.35" cy="432.5" fill="#ADD1B2" rx="11" ry="11" style="stroke:#181818;stroke-width:1.0;"/><path d="M722.1469,433.375 L723.6,433.375 L723.6,433.4844 C723.6,433.8906 723.6313,434.0469 723.7094,434.2031 C723.8656,434.4531 724.1469,434.6094 724.4438,434.6094 C724.6938,434.6094 724.9594,434.4688 725.1156,434.25 C725.2406,434.0938 725.2719,433.9375 725.2719,433.4844 L725.2719,431.5625 C725.2719,431.4063 725.2719,431.3594 725.2563,431.2031 C725.1938,430.7344 724.8813,430.4219 724.4281,430.4219 C724.1781,430.4219 723.9125,430.5625 723.7406,430.7813 C723.6313,430.9531 723.6,431.1094 723.6,431.5625 L723.6,431.6875 L722.1469,431.6875 L722.1469,429.2813 L726.1313,429.2813 L726.1313,430.1406 C726.1313,430.5469 726.1625,430.7188 726.2406,430.875 C726.4125,431.125 726.6938,431.2813 726.975,431.2813 C727.2406,431.2813 727.5063,431.1406 727.6781,430.9219 C727.7875,430.75 727.8188,430.6094 727.8188,430.1406 L727.8188,427.5938 L720.1938,427.5938 C719.7563,427.5938 719.6313,427.6094 719.475,427.7031 C719.225,427.8594 719.0688,428.1563 719.0688,428.4375 C719.0688,428.7188 719.2094,428.9688 719.4281,429.1406 C719.5844,429.25 719.7719,429.2813 720.1938,429.2813 L720.4438,429.2813 L720.4438,435.7969 L720.1938,435.7969 C719.7875,435.7969 719.6313,435.8125 719.475,435.9219 C719.225,436.0938 719.0688,436.3594 719.0688,436.6563 C719.0688,436.9219 719.2094,437.1719 719.4281,437.3281 C719.5688,437.4531 719.8031,437.5 720.1938,437.5 L728.1938,437.5 L728.1938,434.9219 C728.1938,434.4844 728.1625,434.3438 728.0844,434.1875 C727.9125,433.9375 727.6313,433.7813 727.35,433.7813 C727.0844,433.7813 726.8188,433.8906 726.6469,434.1406 C726.5375,434.2969 726.5063,434.4375 726.5063,434.9219 L726.5063,435.7969 L722.1469,435.7969 L722.1469,433.375 Z " fill="#000000"/><text fill="#000000" font-family="sans-serif" font-size="14" lengthAdjust="spacing" textLength="47" x="741.65" y="437.3467">Profile</text><line style="stroke:#181818;stroke-width:0.5;" x1="690" x2="810" y1="448.5" y2="448.5"/><ellipse cx="700" cy="462.1484" fill="#000000" rx="3" ry="3" style="stroke:#000000;stroke-width:1.0;"/><text fill="#000000" font-family="sans-serif" font-size="14" lengthAdjust="spacing" textLength="66" x="709" y="465.4951">id: String</text><ellipse cx="700" cy="478.4453" fill="#000000" rx="3" ry="3" style="stroke:#000000;stroke-width:1.0;"/><text fill="#000000" font-family="sans-serif" font-size="14" lengthAdjust="spacing" textLength="76" x="709" y="481.792">bio: String</text><ellipse cx="700" cy="494.7422" fill="#000000" rx="3" ry="3" style="stroke:#000000;stroke-width:1.0;"/><text fill="#000000" font-family="sans-serif" font-size="14" lengthAdjust="spacing" textLength="96" x="709" y="498.0889">userId: String</text><ellipse cx="700" cy="511.0391" fill="#000000" rx="3" ry="3" style="stroke:#000000;stroke-width:1.0;"/><text fill="#000000" font-family="sans-serif" font-size="14" lengthAdjust="spacing" textLength="70" x="709" y="514.3857">user: User</text><line style="stroke:#181818;stroke-width:0.5;" x1="690" x2="810" y1="521.6875" y2="521.6875"/></g><!--class Session--><g id="elem_Session"><rect codeLine="49" fill="#F1F1F1" height="129.4844" id="Session" rx="2.5" ry="2.5" style="stroke:#181818;stroke-width:0.5;" width="176" x="846" y="408.5"/><ellipse cx="902.75" cy="424.5" fill="#ADD1B2" rx="11" ry="11" style="stroke:#181818;stroke-width:1.0;"/><path d="M901.5469,425.375 L903,425.375 L903,425.4844 C903,425.8906 903.0313,426.0469 903.1094,426.2031 C903.2656,426.4531 903.5469,426.6094 903.8438,426.6094 C904.0938,426.6094 904.3594,426.4688 904.5156,426.25 C904.6406,426.0938 904.6719,425.9375 904.6719,425.4844 L904.6719,423.5625 C904.6719,423.4063 904.6719,423.3594 904.6563,423.2031 C904.5938,422.7344 904.2813,422.4219 903.8281,422.4219 C903.5781,422.4219 903.3125,422.5625 903.1406,422.7813 C903.0313,422.9531 903,423.1094 903,423.5625 L903,423.6875 L901.5469,423.6875 L901.5469,421.2813 L905.5313,421.2813 L905.5313,422.1406 C905.5313,422.5469 905.5625,422.7188 905.6406,422.875 C905.8125,423.125 906.0938,423.2813 906.375,423.2813 C906.6406,423.2813 906.9063,423.1406 907.0781,422.9219 C907.1875,422.75 907.2188,422.6094 907.2188,422.1406 L907.2188,419.5938 L899.5938,419.5938 C899.1563,419.5938 899.0313,419.6094 898.875,419.7031 C898.625,419.8594 898.4688,420.1563 898.4688,420.4375 C898.4688,420.7188 898.6094,420.9688 898.8281,421.1406 C898.9844,421.25 899.1719,421.2813 899.5938,421.2813 L899.8438,421.2813 L899.8438,427.7969 L899.5938,427.7969 C899.1875,427.7969 899.0313,427.8125 898.875,427.9219 C898.625,428.0938 898.4688,428.3594 898.4688,428.6563 C898.4688,428.9219 898.6094,429.1719 898.8281,429.3281 C898.9688,429.4531 899.2031,429.5 899.5938,429.5 L907.5938,429.5 L907.5938,426.9219 C907.5938,426.4844 907.5625,426.3438 907.4844,426.1875 C907.3125,425.9375 907.0313,425.7813 906.75,425.7813 C906.4844,425.7813 906.2188,425.8906 906.0469,426.1406 C905.9375,426.2969 905.9063,426.4375 905.9063,426.9219 L905.9063,427.7969 L901.5469,427.7969 L901.5469,425.375 Z " fill="#000000"/><text fill="#000000" font-family="sans-serif" font-size="14" lengthAdjust="spacing" textLength="54" x="923.25" y="429.3467">Session</text><line style="stroke:#181818;stroke-width:0.5;" x1="847" x2="1021" y1="440.5" y2="440.5"/><ellipse cx="857" cy="454.1484" fill="#000000" rx="3" ry="3" style="stroke:#000000;stroke-width:1.0;"/><text fill="#000000" font-family="sans-serif" font-size="14" lengthAdjust="spacing" textLength="66" x="866" y="457.4951">id: String</text><ellipse cx="857" cy="470.4453" fill="#000000" rx="3" ry="3" style="stroke:#000000;stroke-width:1.0;"/><text fill="#000000" font-family="sans-serif" font-size="14" lengthAdjust="spacing" textLength="150" x="866" y="473.792">sessionToken: String</text><ellipse cx="857" cy="486.7422" fill="#000000" rx="3" ry="3" style="stroke:#000000;stroke-width:1.0;"/><text fill="#000000" font-family="sans-serif" font-size="14" lengthAdjust="spacing" textLength="96" x="866" y="490.0889">userId: String</text><ellipse cx="857" cy="503.0391" fill="#000000" rx="3" ry="3" style="stroke:#000000;stroke-width:1.0;"/><text fill="#000000" font-family="sans-serif" font-size="14" lengthAdjust="spacing" textLength="70" x="866" y="506.3857">user: User</text><ellipse cx="857" cy="519.3359" fill="#000000" rx="3" ry="3" style="stroke:#000000;stroke-width:1.0;"/><text fill="#000000" font-family="sans-serif" font-size="14" lengthAdjust="spacing" textLength="133" x="866" y="522.6826">expires: DateTime</text><line style="stroke:#181818;stroke-width:0.5;" x1="847" x2="1021" y1="529.9844" y2="529.9844"/></g><!--class ProviderAccount--><g id="elem_ProviderAccount"><rect codeLine="57" fill="#F1F1F1" height="259.8594" id="ProviderAccount" rx="2.5" ry="2.5" style="stroke:#181818;stroke-width:0.5;" width="212" x="1057" y="343"/><ellipse cx="1099.45" cy="359" fill="#ADD1B2" rx="11" ry="11" style="stroke:#181818;stroke-width:1.0;"/><path d="M1098.2469,359.875 L1099.7,359.875 L1099.7,359.9844 C1099.7,360.3906 1099.7313,360.5469 1099.8094,360.7031 C1099.9656,360.9531 1100.2469,361.1094 1100.5438,361.1094 C1100.7938,361.1094 1101.0594,360.9688 1101.2156,360.75 C1101.3406,360.5938 1101.3719,360.4375 1101.3719,359.9844 L1101.3719,358.0625 C1101.3719,357.9063 1101.3719,357.8594 1101.3563,357.7031 C1101.2938,357.2344 1100.9813,356.9219 1100.5281,356.9219 C1100.2781,356.9219 1100.0125,357.0625 1099.8406,357.2813 C1099.7313,357.4531 1099.7,357.6094 1099.7,358.0625 L1099.7,358.1875 L1098.2469,358.1875 L1098.2469,355.7813 L1102.2313,355.7813 L1102.2313,356.6406 C1102.2313,357.0469 1102.2625,357.2188 1102.3406,357.375 C1102.5125,357.625 1102.7938,357.7813 1103.075,357.7813 C1103.3406,357.7813 1103.6063,357.6406 1103.7781,357.4219 C1103.8875,357.25 1103.9188,357.1094 1103.9188,356.6406 L1103.9188,354.0938 L1096.2938,354.0938 C1095.8563,354.0938 1095.7313,354.1094 1095.575,354.2031 C1095.325,354.3594 1095.1688,354.6563 1095.1688,354.9375 C1095.1688,355.2188 1095.3094,355.4688 1095.5281,355.6406 C1095.6844,355.75 1095.8719,355.7813 1096.2938,355.7813 L1096.5438,355.7813 L1096.5438,362.2969 L1096.2938,362.2969 C1095.8875,362.2969 1095.7313,362.3125 1095.575,362.4219 C1095.325,362.5938 1095.1688,362.8594 1095.1688,363.1563 C1095.1688,363.4219 1095.3094,363.6719 1095.5281,363.8281 C1095.6688,363.9531 1095.9031,364 1096.2938,364 L1104.2938,364 L1104.2938,361.4219 C1104.2938,360.9844 1104.2625,360.8438 1104.1844,360.6875 C1104.0125,360.4375 1103.7313,360.2813 1103.45,360.2813 C1103.1844,360.2813 1102.9188,360.3906 1102.7469,360.6406 C1102.6375,360.7969 1102.6063,360.9375 1102.6063,361.4219 L1102.6063,362.2969 L1098.2469,362.2969 L1098.2469,359.875 Z " fill="#000000"/><text fill="#000000" font-family="sans-serif" font-size="14" lengthAdjust="spacing" textLength="119" x="1119.55" y="363.8467">ProviderAccount</text><line style="stroke:#181818;stroke-width:0.5;" x1="1058" x2="1268" y1="375" y2="375"/><ellipse cx="1068" cy="388.6484" fill="#000000" rx="3" ry="3" style="stroke:#000000;stroke-width:1.0;"/><text fill="#000000" font-family="sans-serif" font-size="14" lengthAdjust="spacing" textLength="66" x="1077" y="391.9951">id: String</text><ellipse cx="1068" cy="404.9453" fill="#000000" rx="3" ry="3" style="stroke:#000000;stroke-width:1.0;"/><text fill="#000000" font-family="sans-serif" font-size="14" lengthAdjust="spacing" textLength="87" x="1077" y="408.292">type: String</text><ellipse cx="1068" cy="421.2422" fill="#000000" rx="3" ry="3" style="stroke:#000000;stroke-width:1.0;"/><text fill="#000000" font-family="sans-serif" font-size="14" lengthAdjust="spacing" textLength="114" x="1077" y="424.5889">provider: String</text><ellipse cx="1068" cy="437.5391" fill="#000000" rx="3" ry="3" style="stroke:#000000;stroke-width:1.0;"/><text fill="#000000" font-family="sans-serif" font-size="14" lengthAdjust="spacing" textLength="186" x="1077" y="440.8857">providerAccountId: String</text><text fill="#000000" font-family="sans-serif" font-size="14" lengthAdjust="spacing" textLength="162" x="1077" y="457.1826">refresh_token: String?</text><text fill="#000000" font-family="sans-serif" font-size="14" lengthAdjust="spacing" textLength="157" x="1077" y="473.4795">access_token: String?</text><text fill="#000000" font-family="sans-serif" font-size="14" lengthAdjust="spacing" textLength="111" x="1077" y="489.7764">expires_at: Int?</text><text fill="#000000" font-family="sans-serif" font-size="14" lengthAdjust="spacing" textLength="144" x="1077" y="506.0732">token_type: String?</text><text fill="#000000" font-family="sans-serif" font-size="14" lengthAdjust="spacing" textLength="103" x="1077" y="522.3701">scope: String?</text><text fill="#000000" font-family="sans-serif" font-size="14" lengthAdjust="spacing" textLength="123" x="1077" y="538.667">id_token: String?</text><text fill="#000000" font-family="sans-serif" font-size="14" lengthAdjust="spacing" textLength="157" x="1077" y="554.9639">session_state: String?</text><ellipse cx="1068" cy="567.9141" fill="#000000" rx="3" ry="3" style="stroke:#000000;stroke-width:1.0;"/><text fill="#000000" font-family="sans-serif" font-size="14" lengthAdjust="spacing" textLength="70" x="1077" y="571.2607">user: User</text><ellipse cx="1068" cy="584.2109" fill="#000000" rx="3" ry="3" style="stroke:#000000;stroke-width:1.0;"/><text fill="#000000" font-family="sans-serif" font-size="14" lengthAdjust="spacing" textLength="96" x="1077" y="587.5576">userId: String</text><line style="stroke:#181818;stroke-width:0.5;" x1="1058" x2="1268" y1="594.8594" y2="594.8594"/></g><!--class VerificationToken--><g id="elem_VerificationToken"><rect codeLine="73" fill="#F1F1F1" height="113.1875" id="VerificationToken" rx="2.5" ry="2.5" style="stroke:#181818;stroke-width:0.5;" width="161" x="826.5" y="88.5"/><ellipse cx="841.5" cy="104.5" fill="#ADD1B2" rx="11" ry="11" style="stroke:#181818;stroke-width:1.0;"/><path d="M840.2969,105.375 L841.75,105.375 L841.75,105.4844 C841.75,105.8906 841.7813,106.0469 841.8594,106.2031 C842.0156,106.4531 842.2969,106.6094 842.5938,106.6094 C842.8438,106.6094 843.1094,106.4688 843.2656,106.25 C843.3906,106.0938 843.4219,105.9375 843.4219,105.4844 L843.4219,103.5625 C843.4219,103.4063 843.4219,103.3594 843.4063,103.2031 C843.3438,102.7344 843.0313,102.4219 842.5781,102.4219 C842.3281,102.4219 842.0625,102.5625 841.8906,102.7813 C841.7813,102.9531 841.75,103.1094 841.75,103.5625 L841.75,103.6875 L840.2969,103.6875 L840.2969,101.2813 L844.2813,101.2813 L844.2813,102.1406 C844.2813,102.5469 844.3125,102.7188 844.3906,102.875 C844.5625,103.125 844.8438,103.2813 845.125,103.2813 C845.3906,103.2813 845.6563,103.1406 845.8281,102.9219 C845.9375,102.75 845.9688,102.6094 845.9688,102.1406 L845.9688,99.5938 L838.3438,99.5938 C837.9063,99.5938 837.7813,99.6094 837.625,99.7031 C837.375,99.8594 837.2188,100.1563 837.2188,100.4375 C837.2188,100.7188 837.3594,100.9688 837.5781,101.1406 C837.7344,101.25 837.9219,101.2813 838.3438,101.2813 L838.5938,101.2813 L838.5938,107.7969 L838.3438,107.7969 C837.9375,107.7969 837.7813,107.8125 837.625,107.9219 C837.375,108.0938 837.2188,108.3594 837.2188,108.6563 C837.2188,108.9219 837.3594,109.1719 837.5781,109.3281 C837.7188,109.4531 837.9531,109.5 838.3438,109.5 L846.3438,109.5 L846.3438,106.9219 C846.3438,106.4844 846.3125,106.3438 846.2344,106.1875 C846.0625,105.9375 845.7813,105.7813 845.5,105.7813 C845.2344,105.7813 844.9688,105.8906 844.7969,106.1406 C844.6875,106.2969 844.6563,106.4375 844.6563,106.9219 L844.6563,107.7969 L840.2969,107.7969 L840.2969,105.375 Z " fill="#000000"/><text fill="#000000" font-family="sans-serif" font-size="14" lengthAdjust="spacing" textLength="129" x="855.5" y="109.3467">VerificationToken</text><line style="stroke:#181818;stroke-width:0.5;" x1="827.5" x2="986.5" y1="120.5" y2="120.5"/><ellipse cx="837.5" cy="134.1484" fill="#000000" rx="3" ry="3" style="stroke:#000000;stroke-width:1.0;"/><text fill="#000000" font-family="sans-serif" font-size="14" lengthAdjust="spacing" textLength="66" x="846.5" y="137.4951">id: String</text><ellipse cx="837.5" cy="150.4453" fill="#000000" rx="3" ry="3" style="stroke:#000000;stroke-width:1.0;"/><text fill="#000000" font-family="sans-serif" font-size="14" lengthAdjust="spacing" textLength="120" x="846.5" y="153.792">identifier: String</text><ellipse cx="837.5" cy="166.7422" fill="#000000" rx="3" ry="3" style="stroke:#000000;stroke-width:1.0;"/><text fill="#000000" font-family="sans-serif" font-size="14" lengthAdjust="spacing" textLength="96" x="846.5" y="170.0889">token: String</text><ellipse cx="837.5" cy="183.0391" fill="#000000" rx="3" ry="3" style="stroke:#000000;stroke-width:1.0;"/><text fill="#000000" font-family="sans-serif" font-size="14" lengthAdjust="spacing" textLength="133" x="846.5" y="186.3857">expires: DateTime</text><line style="stroke:#181818;stroke-width:0.5;" x1="827.5" x2="986.5" y1="193.6875" y2="193.6875"/></g><!--class BlogPost--><g id="elem_BlogPost"><rect codeLine="80" fill="#F1F1F1" height="194.6719" id="BlogPost" rx="2.5" ry="2.5" style="stroke:#181818;stroke-width:0.5;" width="194" x="1304" y="375.5"/><ellipse cx="1364.75" cy="391.5" fill="#ADD1B2" rx="11" ry="11" style="stroke:#181818;stroke-width:1.0;"/><path d="M1363.5469,392.375 L1365,392.375 L1365,392.4844 C1365,392.8906 1365.0313,393.0469 1365.1094,393.2031 C1365.2656,393.4531 1365.5469,393.6094 1365.8438,393.6094 C1366.0938,393.6094 1366.3594,393.4688 1366.5156,393.25 C1366.6406,393.0938 1366.6719,392.9375 1366.6719,392.4844 L1366.6719,390.5625 C1366.6719,390.4063 1366.6719,390.3594 1366.6563,390.2031 C1366.5938,389.7344 1366.2813,389.4219 1365.8281,389.4219 C1365.5781,389.4219 1365.3125,389.5625 1365.1406,389.7813 C1365.0313,389.9531 1365,390.1094 1365,390.5625 L1365,390.6875 L1363.5469,390.6875 L1363.5469,388.2813 L1367.5313,388.2813 L1367.5313,389.1406 C1367.5313,389.5469 1367.5625,389.7188 1367.6406,389.875 C1367.8125,390.125 1368.0938,390.2813 1368.375,390.2813 C1368.6406,390.2813 1368.9063,390.1406 1369.0781,389.9219 C1369.1875,389.75 1369.2188,389.6094 1369.2188,389.1406 L1369.2188,386.5938 L1361.5938,386.5938 C1361.1563,386.5938 1361.0313,386.6094 1360.875,386.7031 C1360.625,386.8594 1360.4688,387.1563 1360.4688,387.4375 C1360.4688,387.7188 1360.6094,387.9688 1360.8281,388.1406 C1360.9844,388.25 1361.1719,388.2813 1361.5938,388.2813 L1361.8438,388.2813 L1361.8438,394.7969 L1361.5938,394.7969 C1361.1875,394.7969 1361.0313,394.8125 1360.875,394.9219 C1360.625,395.0938 1360.4688,395.3594 1360.4688,395.6563 C1360.4688,395.9219 1360.6094,396.1719 1360.8281,396.3281 C1360.9688,396.4531 1361.2031,396.5 1361.5938,396.5 L1369.5938,396.5 L1369.5938,393.9219 C1369.5938,393.4844 1369.5625,393.3438 1369.4844,393.1875 C1369.3125,392.9375 1369.0313,392.7813 1368.75,392.7813 C1368.4844,392.7813 1368.2188,392.8906 1368.0469,393.1406 C1367.9375,393.2969 1367.9063,393.4375 1367.9063,393.9219 L1367.9063,394.7969 L1363.5469,394.7969 L1363.5469,392.375 Z " fill="#000000"/><text fill="#000000" font-family="sans-serif" font-size="14" lengthAdjust="spacing" textLength="64" x="1385.25" y="396.3467">BlogPost</text><line style="stroke:#181818;stroke-width:0.5;" x1="1305" x2="1497" y1="407.5" y2="407.5"/><ellipse cx="1315" cy="421.1484" fill="#000000" rx="3" ry="3" style="stroke:#000000;stroke-width:1.0;"/><text fill="#000000" font-family="sans-serif" font-size="14" lengthAdjust="spacing" textLength="66" x="1324" y="424.4951">id: String</text><ellipse cx="1315" cy="437.4453" fill="#000000" rx="3" ry="3" style="stroke:#000000;stroke-width:1.0;"/><text fill="#000000" font-family="sans-serif" font-size="14" lengthAdjust="spacing" textLength="84" x="1324" y="440.792">title: String</text><ellipse cx="1315" cy="453.7422" fill="#000000" rx="3" ry="3" style="stroke:#000000;stroke-width:1.0;"/><text fill="#000000" font-family="sans-serif" font-size="14" lengthAdjust="spacing" textLength="111" x="1324" y="457.0889">content: String</text><ellipse cx="1315" cy="470.0391" fill="#000000" rx="3" ry="3" style="stroke:#000000;stroke-width:1.0;"/><text fill="#000000" font-family="sans-serif" font-size="14" lengthAdjust="spacing" textLength="137" x="1324" y="473.3857">published: Boolean</text><text fill="#000000" font-family="sans-serif" font-size="14" lengthAdjust="spacing" textLength="120" x="1324" y="489.6826">authorId: String?</text><ellipse cx="1315" cy="502.6328" fill="#000000" rx="3" ry="3" style="stroke:#000000;stroke-width:1.0;"/><text fill="#000000" font-family="sans-serif" font-size="14" lengthAdjust="spacing" textLength="153" x="1324" y="505.9795">createdAt: DateTime</text><ellipse cx="1315" cy="518.9297" fill="#000000" rx="3" ry="3" style="stroke:#000000;stroke-width:1.0;"/><text fill="#000000" font-family="sans-serif" font-size="14" lengthAdjust="spacing" textLength="157" x="1324" y="522.2764">updatedAt: DateTime</text><text fill="#000000" font-family="sans-serif" font-size="14" lengthAdjust="spacing" textLength="94" x="1324" y="538.5732">author: User?</text><ellipse cx="1315" cy="551.5234" fill="#000000" rx="3" ry="3" style="stroke:#000000;stroke-width:1.0;"/><text fill="#000000" font-family="sans-serif" font-size="14" lengthAdjust="spacing" textLength="168" x="1324" y="554.8701">comments: Comment[]</text><line style="stroke:#181818;stroke-width:0.5;" x1="1305" x2="1497" y1="562.1719" y2="562.1719"/></g><!--class Comment--><g id="elem_Comment"><rect codeLine="92" fill="#F1F1F1" height="210.9688" id="Comment" rx="2.5" ry="2.5" style="stroke:#181818;stroke-width:0.5;" width="235" x="1283.5" y="663"/><ellipse cx="1360.75" cy="679" fill="#ADD1B2" rx="11" ry="11" style="stroke:#181818;stroke-width:1.0;"/><path d="M1359.5469,679.875 L1361,679.875 L1361,679.9844 C1361,680.3906 1361.0313,680.5469 1361.1094,680.7031 C1361.2656,680.9531 1361.5469,681.1094 1361.8438,681.1094 C1362.0938,681.1094 1362.3594,680.9688 1362.5156,680.75 C1362.6406,680.5938 1362.6719,680.4375 1362.6719,679.9844 L1362.6719,678.0625 C1362.6719,677.9063 1362.6719,677.8594 1362.6563,677.7031 C1362.5938,677.2344 1362.2813,676.9219 1361.8281,676.9219 C1361.5781,676.9219 1361.3125,677.0625 1361.1406,677.2813 C1361.0313,677.4531 1361,677.6094 1361,678.0625 L1361,678.1875 L1359.5469,678.1875 L1359.5469,675.7813 L1363.5313,675.7813 L1363.5313,676.6406 C1363.5313,677.0469 1363.5625,677.2188 1363.6406,677.375 C1363.8125,677.625 1364.0938,677.7813 1364.375,677.7813 C1364.6406,677.7813 1364.9063,677.6406 1365.0781,677.4219 C1365.1875,677.25 1365.2188,677.1094 1365.2188,676.6406 L1365.2188,674.0938 L1357.5938,674.0938 C1357.1563,674.0938 1357.0313,674.1094 1356.875,674.2031 C1356.625,674.3594 1356.4688,674.6563 1356.4688,674.9375 C1356.4688,675.2188 1356.6094,675.4688 1356.8281,675.6406 C1356.9844,675.75 1357.1719,675.7813 1357.5938,675.7813 L1357.8438,675.7813 L1357.8438,682.2969 L1357.5938,682.2969 C1357.1875,682.2969 1357.0313,682.3125 1356.875,682.4219 C1356.625,682.5938 1356.4688,682.8594 1356.4688,683.1563 C1356.4688,683.4219 1356.6094,683.6719 1356.8281,683.8281 C1356.9688,683.9531 1357.2031,684 1357.5938,684 L1365.5938,684 L1365.5938,681.4219 C1365.5938,680.9844 1365.5625,680.8438 1365.4844,680.6875 C1365.3125,680.4375 1365.0313,680.2813 1364.75,680.2813 C1364.4844,680.2813 1364.2188,680.3906 1364.0469,680.6406 C1363.9375,680.7969 1363.9063,680.9375 1363.9063,681.4219 L1363.9063,682.2969 L1359.5469,682.2969 L1359.5469,679.875 Z " fill="#000000"/><text fill="#000000" font-family="sans-serif" font-size="14" lengthAdjust="spacing" textLength="72" x="1381.25" y="683.8467">Comment</text><line style="stroke:#181818;stroke-width:0.5;" x1="1284.5" x2="1517.5" y1="695" y2="695"/><ellipse cx="1294.5" cy="708.6484" fill="#000000" rx="3" ry="3" style="stroke:#000000;stroke-width:1.0;"/><text fill="#000000" font-family="sans-serif" font-size="14" lengthAdjust="spacing" textLength="66" x="1303.5" y="711.9951">id: String</text><text fill="#000000" font-family="sans-serif" font-size="14" lengthAdjust="spacing" textLength="144" x="1303.5" y="728.292">blogPost: BlogPost?</text><text fill="#000000" font-family="sans-serif" font-size="14" lengthAdjust="spacing" textLength="137" x="1303.5" y="744.5889">blogPostId: String?</text><ellipse cx="1294.5" cy="757.5391" fill="#000000" rx="3" ry="3" style="stroke:#000000;stroke-width:1.0;"/><text fill="#000000" font-family="sans-serif" font-size="14" lengthAdjust="spacing" textLength="141" x="1303.5" y="760.8857">authorName: String</text><ellipse cx="1294.5" cy="773.8359" fill="#000000" rx="3" ry="3" style="stroke:#000000;stroke-width:1.0;"/><text fill="#000000" font-family="sans-serif" font-size="14" lengthAdjust="spacing" textLength="139" x="1303.5" y="777.1826">authorEmail: String</text><text fill="#000000" font-family="sans-serif" font-size="14" lengthAdjust="spacing" textLength="91" x="1303.5" y="793.4795">title: String?</text><text fill="#000000" font-family="sans-serif" font-size="14" lengthAdjust="spacing" textLength="118" x="1303.5" y="809.7764">content: String?</text><ellipse cx="1294.5" cy="822.7266" fill="#000000" rx="3" ry="3" style="stroke:#000000;stroke-width:1.0;"/><text fill="#000000" font-family="sans-serif" font-size="14" lengthAdjust="spacing" textLength="168" x="1303.5" y="826.0732">comments: Comment[]</text><text fill="#000000" font-family="sans-serif" font-size="14" lengthAdjust="spacing" textLength="209" x="1303.5" y="842.3701">parentComment: Comment?</text><text fill="#000000" font-family="sans-serif" font-size="14" lengthAdjust="spacing" textLength="194" x="1303.5" y="858.667">parentCommentId: String?</text><line style="stroke:#181818;stroke-width:0.5;" x1="1284.5" x2="1517.5" y1="865.9688" y2="865.9688"/></g><!--link User to Role--><g id="link_User_Role"><path codeLine="105" d="M499.92,99 C499.92,99 43,99 43,99 C43,99 43,417.489 43,417.489 " fill="none" id="User-Role" style="stroke:#181818;stroke-width:1.0;stroke-dasharray:7.0,7.0;"/><line style="stroke:#181818;stroke-width:1.0;" x1="502.92" x2="502.92" y1="95" y2="103"/><line style="stroke:#181818;stroke-width:1.0;" x1="499.92" x2="499.92" y1="95" y2="103"/><line style="stroke:#181818;stroke-width:1.0;" x1="498.92" x2="506.92" y1="99" y2="99"/><line style="stroke:#181818;stroke-width:1.0;" x1="47" x2="39" y1="420.489" y2="420.489"/><line style="stroke:#181818;stroke-width:1.0;" x1="47" x2="39" y1="417.489" y2="417.489"/><line style="stroke:#181818;stroke-width:1.0;" x1="43" x2="43" y1="416.489" y2="424.489"/></g><!--link User to Role--><g id="link_User_Role"><path codeLine="113" d="M499.635,191 C499.635,191 79,191 79,191 C79,191 79,417.201 79,417.201 " fill="none" id="User-Role-1" style="stroke:#181818;stroke-width:1.0;stroke-dasharray:7.0,7.0;"/><line style="stroke:#181818;stroke-width:1.0;" x1="502.635" x2="502.635" y1="187" y2="195"/><line style="stroke:#181818;stroke-width:1.0;" x1="499.635" x2="499.635" y1="187" y2="195"/><line style="stroke:#181818;stroke-width:1.0;" x1="498.635" x2="506.635" y1="191" y2="191"/><line style="stroke:#181818;stroke-width:1.0;" x1="83" x2="75" y1="420.201" y2="420.201"/><line style="stroke:#181818;stroke-width:1.0;" x1="83" x2="75" y1="417.201" y2="417.201"/><line style="stroke:#181818;stroke-width:1.0;" x1="79" x2="79" y1="416.201" y2="424.201"/></g><!--link User to Permission--><g id="link_User_Permission"><path codeLine="106" d="M555.833,291.374 C555.833,291.374 555.833,405 555.833,405 C555.833,405 417.84,405 417.84,405 " fill="none" id="User-Permission" style="stroke:#181818;stroke-width:1.0;stroke-dasharray:7.0,7.0;"/><line style="stroke:#181818;stroke-width:1.0;" x1="551.833" x2="559.833" y1="287.374" y2="287.374"/><line style="stroke:#181818;stroke-width:1.0;" x1="551.833" x2="559.833" y1="290.374" y2="290.374"/><line style="stroke:#181818;stroke-width:1.0;" x1="555.833" x2="555.833" y1="291.374" y2="283.374"/><line style="stroke:#181818;stroke-width:1.0;" x1="417.84" x2="409.84" y1="405" y2="411"/><line style="stroke:#181818;stroke-width:1.0;" x1="417.84" x2="409.84" y1="405" y2="399"/><line style="stroke:#181818;stroke-width:1.0;" x1="417.84" x2="409.84" y1="405" y2="405"/><line style="stroke:#181818;stroke-width:1.0;" x1="419.84" x2="419.84" y1="409" y2="401"/></g><!--link User to UserPermission--><g id="link_User_UserPermission"><path codeLine="107" d="M604.667,291.151 C604.667,291.151 604.667,408.301 604.667,408.301 " fill="none" id="User-UserPermission" style="stroke:#181818;stroke-width:1.0;stroke-dasharray:7.0,7.0;"/><line style="stroke:#181818;stroke-width:1.0;" x1="600.667" x2="608.667" y1="287.151" y2="287.151"/><line style="stroke:#181818;stroke-width:1.0;" x1="600.667" x2="608.667" y1="290.151" y2="290.151"/><line style="stroke:#181818;stroke-width:1.0;" x1="604.667" x2="604.667" y1="291.151" y2="283.151"/><line style="stroke:#181818;stroke-width:1.0;" x1="604.667" x2="610.667" y1="408.301" y2="416.301"/><line style="stroke:#181818;stroke-width:1.0;" x1="604.667" x2="598.667" y1="408.301" y2="416.301"/><line style="stroke:#181818;stroke-width:1.0;" x1="604.667" x2="604.667" y1="408.301" y2="416.301"/><line style="stroke:#181818;stroke-width:1.0;" x1="608.667" x2="600.667" y1="406.301" y2="406.301"/></g><!--link User to Profile--><g id="link_User_Profile"><path codeLine="108" d="M714.5,291.151 C714.5,291.151 714.5,408.301 714.5,408.301 " fill="none" id="User-Profile" style="stroke:#181818;stroke-width:1.0;stroke-dasharray:7.0,7.0;"/><line style="stroke:#181818;stroke-width:1.0;" x1="710.5" x2="718.5" y1="287.151" y2="287.151"/><line style="stroke:#181818;stroke-width:1.0;" x1="710.5" x2="718.5" y1="290.151" y2="290.151"/><line style="stroke:#181818;stroke-width:1.0;" x1="714.5" x2="714.5" y1="291.151" y2="283.151"/><line style="stroke:#181818;stroke-width:1.0;" x1="714.5" x2="714.5" y1="405.301" y2="416.301"/><ellipse cx="714.5" cy="405.301" fill="none" rx="4" ry="4" style="stroke:#181818;stroke-width:1.0;"/><line style="stroke:#181818;stroke-width:1.0;" x1="718.5" x2="710.5" y1="412.301" y2="412.301"/></g><!--link User to Session--><g id="link_User_Session"><path codeLine="109" d="M740,291.318 C740,291.318 740,413 740,413 C740,413 837.799,413 837.799,413 " fill="none" id="User-Session" style="stroke:#181818;stroke-width:1.0;stroke-dasharray:7.0,7.0;"/><line style="stroke:#181818;stroke-width:1.0;" x1="736" x2="744" y1="287.318" y2="287.318"/><line style="stroke:#181818;stroke-width:1.0;" x1="736" x2="744" y1="290.318" y2="290.318"/><line style="stroke:#181818;stroke-width:1.0;" x1="740" x2="740" y1="291.318" y2="283.318"/><line style="stroke:#181818;stroke-width:1.0;" x1="837.799" x2="845.799" y1="413" y2="407"/><line style="stroke:#181818;stroke-width:1.0;" x1="837.799" x2="845.799" y1="413" y2="419"/><line style="stroke:#181818;stroke-width:1.0;" x1="837.799" x2="845.799" y1="413" y2="413"/><line style="stroke:#181818;stroke-width:1.0;" x1="835.799" x2="835.799" y1="409" y2="417"/></g><!--link User to ProviderAccount--><g id="link_User_ProviderAccount"><path codeLine="110" d="M765.5,291.261 C765.5,291.261 765.5,372 765.5,372 C765.5,372 1049,372 1049,372 " fill="none" id="User-ProviderAccount" style="stroke:#181818;stroke-width:1.0;stroke-dasharray:7.0,7.0;"/><line style="stroke:#181818;stroke-width:1.0;" x1="761.5" x2="769.5" y1="287.261" y2="287.261"/><line style="stroke:#181818;stroke-width:1.0;" x1="761.5" x2="769.5" y1="290.261" y2="290.261"/><line style="stroke:#181818;stroke-width:1.0;" x1="765.5" x2="765.5" y1="291.261" y2="283.261"/><line style="stroke:#181818;stroke-width:1.0;" x1="1049" x2="1057" y1="372" y2="366"/><line style="stroke:#181818;stroke-width:1.0;" x1="1049" x2="1057" y1="372" y2="378"/><line style="stroke:#181818;stroke-width:1.0;" x1="1049" x2="1057" y1="372" y2="372"/><line style="stroke:#181818;stroke-width:1.0;" x1="1047" x2="1047" y1="368" y2="376"/></g><!--link User to BlogPost--><g id="link_User_BlogPost"><path codeLine="111" d="M799.33,243 C799.33,243 1401,243 1401,243 C1401,243 1401,367.459 1401,367.459 " fill="none" id="User-BlogPost" style="stroke:#181818;stroke-width:1.0;stroke-dasharray:7.0,7.0;"/><line style="stroke:#181818;stroke-width:1.0;" x1="802.33" x2="791.33" y1="243" y2="243"/><ellipse cx="802.33" cy="243" fill="none" rx="4" ry="4" style="stroke:#181818;stroke-width:1.0;"/><line style="stroke:#181818;stroke-width:1.0;" x1="795.33" x2="795.33" y1="247" y2="239"/><line style="stroke:#181818;stroke-width:1.0;" x1="1401" x2="1407" y1="367.459" y2="375.459"/><line style="stroke:#181818;stroke-width:1.0;" x1="1401" x2="1395" y1="367.459" y2="375.459"/><line style="stroke:#181818;stroke-width:1.0;" x1="1401" x2="1401" y1="367.459" y2="375.459"/><line style="stroke:#181818;stroke-width:1.0;" x1="1405" x2="1397" y1="365.459" y2="365.459"/></g><!--link BlogPost to Comment--><g id="link_BlogPost_Comment"><path codeLine="112" d="M1401,578.577 C1401,578.577 1401,654.887 1401,654.887 " fill="none" id="BlogPost-Comment" style="stroke:#181818;stroke-width:1.0;stroke-dasharray:7.0,7.0;"/><line style="stroke:#181818;stroke-width:1.0;" x1="1401" x2="1401" y1="581.577" y2="570.577"/><ellipse cx="1401" cy="581.577" fill="none" rx="4" ry="4" style="stroke:#181818;stroke-width:1.0;"/><line style="stroke:#181818;stroke-width:1.0;" x1="1397" x2="1405" y1="574.577" y2="574.577"/><line style="stroke:#181818;stroke-width:1.0;" x1="1401" x2="1407" y1="654.887" y2="662.887"/><line style="stroke:#181818;stroke-width:1.0;" x1="1401" x2="1395" y1="654.887" y2="662.887"/><line style="stroke:#181818;stroke-width:1.0;" x1="1401" x2="1401" y1="654.887" y2="662.887"/><line style="stroke:#181818;stroke-width:1.0;" x1="1405" x2="1397" y1="652.887" y2="652.887"/></g><!--SRC=[fLN1RkCW4BtxApZdq0_m9KhR77BOD6hIlQnM5h4doQWsM83RhUhzznqmZi5sMrLx2hmPXZVluOb-Hb5pnIjMeW3pLWEJobnaae1eAlOeIs3l2MDF-_KZ_JpirjjiTNTui9lL_O_DDlbhKmsQD_QaGRda1SCYPNkZK9pTDbV03HGhax9xMXom0eStTJ63GyMnxCyl2QYvrgzI5I665Jz320XUHVi5KqG-TIsuxR6KvvtKTDUjN_twxG8rg0grHYbIjhkkNR1MyeIsogvRT8KRQdH8rAdhV7HomJJquJs4EDLymGBKAizb8uoh7GAKDcWwL9rNrbBPnD3Gpe7i348nxKqHgsMZNIUJr763ov7f_qLIJqIFk0HIT1RCNt54-TMLiqMzDVD5lOC7-GpY6zNj5lxKg407xpfg9FHx_cuJUpSycrdGbueuAJWHWqjcGlhMQvxdrDWKzvmpJczo8uo5N4uMSh6epcKCO36jviNBj245Fdbg4pK7eNw2mXFctFGcp4j50b3-2KVQc8bjdvdIpuGFt41JndRaKXYmNs_eHdCiKL-0pjvA6ZjSMBKR6gTg_BLzRo9sDJh9_7bPLNGzzNBNhQAfuR6vNgPJS1cWOvhTnTjWj0RmEfpJzh648jdp8uq-Pcv7lAAbHwwXvJWIygDstJzEszxSj6qtvmVWFPWg4HmFh24astx2HEb-GCILuw_EnwIBzQecrmVb0xw32UT_]--></g></svg>