<svg width="355" height="92" viewBox="0 0 355 92" fill="none" xmlns="http://www.w3.org/2000/svg">
<path d="M28.3292 9.704H11.9612V16.424H25.0172V22.808H11.9612V35H3.70517V3.32H28.3292V9.704ZM36.5998 8.216C34.9358 8.216 33.7198 7.912 32.9518 7.304C32.2158 6.664 31.8478 5.672 31.8478 4.328C31.8478 2.952 32.2158 1.96 32.9518 1.352C33.7198 0.711999 34.9358 0.391999 36.5998 0.391999C38.2318 0.391999 39.4318 0.711999 40.1998 1.352C40.9678 1.96 41.3518 2.952 41.3518 4.328C41.3518 5.672 40.9678 6.664 40.1998 7.304C39.4318 7.912 38.2318 8.216 36.5998 8.216ZM40.6798 11V35H32.5198V11H40.6798ZM46.4885 35V11H53.7845L54.2165 19.256L53.3045 18.344C53.6245 16.616 54.1845 15.176 54.9845 14.024C55.8165 12.872 56.8405 12.008 58.0565 11.432C59.3045 10.824 60.6965 10.52 62.2325 10.52C63.8965 10.52 65.3365 10.84 66.5525 11.48C67.8005 12.12 68.7765 13.064 69.4805 14.312C70.1845 15.56 70.5365 17.128 70.5365 19.016V35H62.3765V21.176C62.3765 19.512 62.0565 18.36 61.4165 17.72C60.7765 17.08 59.9605 16.76 58.9685 16.76C58.2005 16.76 57.4805 16.952 56.8085 17.336C56.1365 17.688 55.6085 18.264 55.2245 19.064C54.8405 19.864 54.6485 20.936 54.6485 22.28V35H46.4885ZM85.0862 35.48C83.1022 35.48 81.3582 35 79.8542 34.04C78.3822 33.048 77.2302 31.624 76.3982 29.768C75.5982 27.912 75.1982 25.688 75.1982 23.096C75.1982 20.408 75.6142 18.136 76.4462 16.28C77.3102 14.424 78.4942 13 79.9982 12.008C81.5342 11.016 83.2942 10.52 85.2782 10.52C87.4542 10.52 89.1982 11.192 90.5102 12.536C91.8542 13.848 92.7182 15.528 93.1022 17.576L92.3342 18.584V0.823999H100.494V35H93.1982L92.6702 26.84L93.6302 27.56C93.4382 29.16 92.9422 30.552 92.1422 31.736C91.3742 32.92 90.3822 33.848 89.1662 34.52C87.9822 35.16 86.6222 35.48 85.0862 35.48ZM87.9182 29.48C88.8462 29.48 89.6302 29.24 90.2702 28.76C90.9422 28.248 91.4542 27.496 91.8062 26.504C92.1582 25.512 92.3342 24.296 92.3342 22.856C92.3342 21.512 92.1582 20.376 91.8062 19.448C91.4862 18.488 90.9902 17.768 90.3182 17.288C89.6782 16.776 88.8942 16.52 87.9662 16.52C86.5582 16.52 85.4382 17.048 84.6062 18.104C83.8062 19.128 83.4062 20.76 83.4062 23C83.4062 25.24 83.8062 26.888 84.6062 27.944C85.4062 28.968 86.5102 29.48 87.9182 29.48ZM146.851 3.32L135.667 23.432V35H127.411V23.432L116.227 3.32H124.771L129.235 12.008L131.587 17.288L133.987 12.008L138.451 3.32H146.851ZM156.491 10.52C159.019 10.52 161.227 11.016 163.115 12.008C165.035 12.968 166.523 14.392 167.579 16.28C168.667 18.136 169.211 20.376 169.211 23C169.211 25.624 168.667 27.88 167.579 29.768C166.523 31.624 165.035 33.048 163.115 34.04C161.227 35 159.019 35.48 156.491 35.48C154.027 35.48 151.835 35 149.915 34.04C147.995 33.048 146.491 31.624 145.403 29.768C144.347 27.88 143.819 25.624 143.819 23C143.819 20.376 144.347 18.136 145.403 16.28C146.491 14.392 147.995 12.968 149.915 12.008C151.835 11.016 154.027 10.52 156.491 10.52ZM156.491 16.328C155.563 16.328 154.763 16.552 154.091 17C153.419 17.448 152.907 18.168 152.555 19.16C152.203 20.152 152.027 21.432 152.027 23C152.027 24.568 152.203 25.848 152.555 26.84C152.907 27.8 153.419 28.52 154.091 29C154.763 29.448 155.563 29.672 156.491 29.672C157.451 29.672 158.267 29.448 158.939 29C159.611 28.52 160.123 27.8 160.475 26.84C160.827 25.848 161.003 24.568 161.003 23C161.003 21.432 160.827 20.152 160.475 19.16C160.123 18.168 159.611 17.448 158.939 17C158.267 16.552 157.451 16.328 156.491 16.328ZM181.913 35.48C180.281 35.48 178.841 35.208 177.593 34.664C176.377 34.088 175.417 33.176 174.713 31.928C174.009 30.68 173.657 29.048 173.657 27.032V11H181.817V25.112C181.817 26.648 182.121 27.72 182.729 28.328C183.337 28.936 184.201 29.24 185.321 29.24C185.897 29.24 186.441 29.144 186.953 28.952C187.465 28.728 187.913 28.408 188.297 27.992C188.681 27.544 188.969 26.984 189.161 26.312C189.385 25.608 189.497 24.792 189.497 23.864V11H197.657V35H190.361L190.121 30.488C189.353 32.184 188.281 33.448 186.905 34.28C185.529 35.08 183.865 35.48 181.913 35.48ZM203.52 35V11H210.72L211.056 16.184C211.664 14.392 212.56 13 213.744 12.008C214.96 11.016 216.496 10.52 218.352 10.52C218.96 10.52 219.472 10.568 219.888 10.664C220.336 10.76 220.688 10.888 220.944 11.048L220.128 17.768C219.808 17.64 219.392 17.544 218.88 17.48C218.4 17.384 217.808 17.336 217.104 17.336C216.144 17.336 215.248 17.544 214.416 17.96C213.584 18.376 212.912 19 212.4 19.832C211.92 20.632 211.68 21.656 211.68 22.904V35H203.52ZM251.913 2.84C255.113 2.84 257.865 3.496 260.169 4.808C262.505 6.088 264.297 7.944 265.545 10.376C266.793 12.808 267.417 15.736 267.417 19.16C267.417 22.584 266.793 25.512 265.545 27.944C264.297 30.376 262.505 32.248 260.169 33.56C257.865 34.84 255.113 35.48 251.913 35.48C248.713 35.48 245.945 34.84 243.609 33.56C241.273 32.248 239.481 30.376 238.233 27.944C236.985 25.512 236.361 22.584 236.361 19.16C236.361 15.736 236.985 12.808 238.233 10.376C239.481 7.944 241.273 6.088 243.609 4.808C245.945 3.496 248.713 2.84 251.913 2.84ZM251.913 9.32C250.377 9.32 249.081 9.688 248.025 10.424C246.969 11.16 246.169 12.264 245.625 13.736C245.081 15.176 244.809 16.984 244.809 19.16C244.809 21.304 245.081 23.112 245.625 24.584C246.169 26.056 246.969 27.16 248.025 27.896C249.081 28.632 250.377 29 251.913 29C253.449 29 254.729 28.632 255.753 27.896C256.809 27.16 257.609 26.056 258.153 24.584C258.697 23.112 258.969 21.304 258.969 19.16C258.969 16.984 258.697 15.176 258.153 13.736C257.609 12.264 256.809 11.16 255.753 10.424C254.729 9.688 253.449 9.32 251.913 9.32ZM272.426 45.08V11H279.77L280.202 19.688L279.242 18.68C279.466 17.08 279.962 15.672 280.73 14.456C281.498 13.24 282.49 12.28 283.706 11.576C284.922 10.872 286.314 10.52 287.882 10.52C289.866 10.52 291.594 11.016 293.066 12.008C294.538 12.968 295.674 14.376 296.474 16.232C297.306 18.056 297.722 20.28 297.722 22.904C297.722 25.528 297.306 27.784 296.474 29.672C295.642 31.56 294.474 33 292.97 33.992C291.498 34.984 289.77 35.48 287.786 35.48C285.61 35.48 283.85 34.84 282.506 33.56C281.162 32.248 280.266 30.6 279.818 28.616L280.586 27.464V45.08H272.426ZM285.002 29.48C286.41 29.48 287.514 28.968 288.314 27.944C289.114 26.888 289.514 25.24 289.514 23C289.514 20.76 289.114 19.128 288.314 18.104C287.546 17.048 286.458 16.52 285.05 16.52C284.154 16.52 283.37 16.776 282.698 17.288C282.026 17.768 281.498 18.488 281.114 19.448C280.762 20.408 280.586 21.592 280.586 23C280.586 24.344 280.746 25.512 281.066 26.504C281.418 27.464 281.93 28.2 282.602 28.712C283.274 29.224 284.074 29.48 285.002 29.48ZM314.232 35.48C311.576 35.48 309.272 34.984 307.32 33.992C305.4 33 303.912 31.576 302.856 29.72C301.8 27.864 301.272 25.624 301.272 23C301.272 20.376 301.8 18.136 302.856 16.28C303.912 14.424 305.384 13 307.272 12.008C309.192 11.016 311.384 10.52 313.848 10.52C316.376 10.52 318.52 11.016 320.28 12.008C322.072 12.968 323.432 14.312 324.36 16.04C325.288 17.736 325.752 19.688 325.752 21.896C325.752 22.472 325.736 23.048 325.704 23.624C325.672 24.2 325.624 24.68 325.56 25.064H306.552V20.696H321.96L318.072 22.184C318.072 20.264 317.72 18.792 317.016 17.768C316.344 16.744 315.288 16.232 313.848 16.232C312.824 16.232 311.944 16.472 311.208 16.952C310.504 17.432 309.96 18.184 309.576 19.208C309.224 20.232 309.048 21.544 309.048 23.144C309.048 24.712 309.256 25.992 309.672 26.984C310.088 27.944 310.68 28.648 311.448 29.096C312.216 29.512 313.144 29.72 314.232 29.72C315.448 29.72 316.408 29.48 317.112 29C317.848 28.52 318.392 27.848 318.744 26.984L325.272 29.144C324.824 30.52 324.04 31.688 322.92 32.648C321.832 33.576 320.52 34.28 318.984 34.76C317.48 35.24 315.896 35.48 314.232 35.48ZM330.317 35V11H337.613L338.045 19.256L337.133 18.344C337.453 16.616 338.013 15.176 338.813 14.024C339.645 12.872 340.669 12.008 341.885 11.432C343.133 10.824 344.525 10.52 346.061 10.52C347.725 10.52 349.165 10.84 350.381 11.48C351.629 12.12 352.605 13.064 353.309 14.312C354.013 15.56 354.365 17.128 354.365 19.016V35H346.205V21.176C346.205 19.512 345.885 18.36 345.245 17.72C344.605 17.08 343.789 16.76 342.797 16.76C342.029 16.76 341.309 16.952 340.637 17.336C339.965 17.688 339.437 18.264 339.053 19.064C338.669 19.864 338.477 20.936 338.477 22.28V35H330.317ZM32.5052 91H24.0092L21.8012 83.848H10.9532L8.69717 91H0.393172L11.5292 59.32H21.4172L32.5052 91ZM12.4892 78.232H20.2652L16.3772 65.416L12.4892 78.232ZM46.2864 66.52C48.7184 66.52 50.7344 66.872 52.3344 67.576C53.9664 68.248 55.2304 69.16 56.1264 70.312C57.0544 71.432 57.6304 72.648 57.8544 73.96L50.3184 76.456C50.0944 75.08 49.6784 74.056 49.0704 73.384C48.4944 72.68 47.6464 72.328 46.5264 72.328C45.5024 72.328 44.6384 72.568 43.9344 73.048C43.2624 73.496 42.7504 74.232 42.3984 75.256C42.0464 76.248 41.8704 77.528 41.8704 79.096C41.8704 80.664 42.0624 81.944 42.4464 82.936C42.8304 83.896 43.3744 84.6 44.0784 85.048C44.7824 85.464 45.6144 85.672 46.5744 85.672C47.3744 85.672 48.0304 85.528 48.5424 85.24C49.0864 84.92 49.5344 84.472 49.8864 83.896C50.2384 83.32 50.4624 82.616 50.5584 81.784L57.9024 84.136C57.6784 85.544 57.0704 86.808 56.0784 87.928C55.1184 89.016 53.8384 89.88 52.2384 90.52C50.6384 91.16 48.7664 91.48 46.6224 91.48C43.9984 91.48 41.7104 91 39.7584 90.04C37.8064 89.048 36.3024 87.624 35.2464 85.768C34.1904 83.88 33.6624 81.624 33.6624 79C33.6624 76.376 34.1904 74.136 35.2464 72.28C36.3024 70.392 37.7744 68.968 39.6624 68.008C41.5824 67.016 43.7904 66.52 46.2864 66.52ZM72.1768 59.368V82.456C72.1768 83.608 72.4488 84.44 72.9928 84.952C73.5688 85.432 74.3528 85.672 75.3448 85.672C76.1128 85.672 76.7688 85.592 77.3128 85.432C77.8888 85.24 78.4008 84.968 78.8488 84.616L79.7128 89.656C78.9128 90.232 77.9048 90.68 76.6888 91C75.4728 91.32 74.2248 91.48 72.9448 91.48C71.1208 91.48 69.5368 91.224 68.1928 90.712C66.8808 90.2 65.8568 89.384 65.1208 88.264C64.4168 87.144 64.0488 85.656 64.0168 83.8V61.624L72.1768 59.368ZM79.3288 67V72.808H59.8888V67H79.3288ZM94.5219 66.52C97.0499 66.52 99.2579 67.016 101.146 68.008C103.066 68.968 104.554 70.392 105.61 72.28C106.698 74.136 107.242 76.376 107.242 79C107.242 81.624 106.698 83.88 105.61 85.768C104.554 87.624 103.066 89.048 101.146 90.04C99.2579 91 97.0499 91.48 94.5219 91.48C92.0579 91.48 89.8659 91 87.9459 90.04C86.0259 89.048 84.5219 87.624 83.4339 85.768C82.3779 83.88 81.8499 81.624 81.8499 79C81.8499 76.376 82.3779 74.136 83.4339 72.28C84.5219 70.392 86.0259 68.968 87.9459 68.008C89.8659 67.016 92.0579 66.52 94.5219 66.52ZM94.5219 72.328C93.5939 72.328 92.7939 72.552 92.1219 73C91.4499 73.448 90.9379 74.168 90.5859 75.16C90.2339 76.152 90.0579 77.432 90.0579 79C90.0579 80.568 90.2339 81.848 90.5859 82.84C90.9379 83.8 91.4499 84.52 92.1219 85C92.7939 85.448 93.5939 85.672 94.5219 85.672C95.4819 85.672 96.2979 85.448 96.9699 85C97.6419 84.52 98.1539 83.8 98.5059 82.84C98.8579 81.848 99.0339 80.568 99.0339 79C99.0339 77.432 98.8579 76.152 98.5059 75.16C98.1539 74.168 97.6419 73.448 96.9699 73C96.2979 72.552 95.4819 72.328 94.5219 72.328ZM111.832 91V67H119.032L119.368 72.184C119.976 70.392 120.872 69 122.056 68.008C123.272 67.016 124.808 66.52 126.664 66.52C127.272 66.52 127.784 66.568 128.2 66.664C128.648 66.76 129 66.888 129.256 67.048L128.44 73.768C128.12 73.64 127.704 73.544 127.192 73.48C126.712 73.384 126.12 73.336 125.416 73.336C124.456 73.336 123.56 73.544 122.728 73.96C121.896 74.376 121.224 75 120.712 75.832C120.232 76.632 119.992 77.656 119.992 78.904V91H111.832Z" fill="#0F0F0F"/>
</svg>
