<svg width="345" height="395" viewBox="0 0 345 395" fill="none" xmlns="http://www.w3.org/2000/svg">
<g clip-path="url(#clip0_476_1523)">
<path opacity="0.42" d="M73.2041 374.48H271.816C316.082 343.864 345.02 293.363 345.02 236.206C345.02 142.78 267.775 53.6348 172.51 53.6348C77.2448 53.6348 0 142.78 0 236.206C0 293.26 28.9592 343.762 73.2041 374.48Z" fill="url(#paint0_linear_476_1523)"/>
<path opacity="0.43" d="M269.204 387.13C272.033 374.784 220.337 352.319 153.738 336.951C87.1397 321.584 30.8575 319.134 28.0286 331.479C25.1996 343.824 76.8951 366.29 143.494 381.657C210.093 397.025 266.375 399.475 269.204 387.13Z" fill="#CEE5ED"/>
<path d="M208.306 243.066C196.877 238.97 187.571 226.191 187.571 214.764V20.8888C187.571 9.4615 196.877 3.56353 208.306 7.74126L292.224 38.4598C303.653 42.658 312.959 55.3551 312.959 66.7824V260.658C312.959 272.064 303.653 277.962 292.224 273.785L208.306 243.066Z" fill="#17161C"/>
<path d="M209.674 249.557C197.633 245.154 187.816 231.761 187.816 219.719V15.3386C187.816 3.29687 197.633 -2.9083 209.674 1.49469L298.143 33.8516C310.204 38.2546 320 51.6479 320 63.6896V267.989C320 280.03 310.204 286.235 298.143 281.832L209.674 249.557Z" fill="#1E394C"/>
<path d="M208.306 235.222C201.225 232.621 195.449 224.757 195.449 217.672V23.7759C195.449 16.6901 201.225 13.0244 208.306 15.5842L292.225 46.3028C299.327 48.8832 305.082 56.7676 305.082 63.8534V257.749C305.082 264.835 299.327 268.48 292.225 265.941L208.306 235.222Z" fill="#62BDF4"/>
<path opacity="0.25" d="M292.225 46.3232L208.306 15.6046C203.286 13.7615 198.939 15.0721 196.816 18.4921C198.148 17.9192 199.582 17.6237 201.031 17.6237C202.48 17.6237 203.913 17.9192 205.245 18.4921L289.163 49.2107C296.265 51.8115 302.02 59.6755 302.02 66.7613V260.636C302.066 262.485 301.592 264.309 300.653 265.9C302.084 265.122 303.263 263.948 304.048 262.518C304.833 261.087 305.192 259.46 305.082 257.831V63.8737C305.082 56.788 299.327 48.8626 292.225 46.3232Z" fill="#34648C"/>
<path d="M281.49 40.8351L219.041 18.001L221.816 25.4759C222.461 27.1677 223.446 28.7082 224.71 30.0013C225.974 31.2944 227.49 32.3123 229.163 32.9917L271.367 48.4329C274.551 49.6002 277.49 48.74 278.714 46.3849L281.49 40.8351Z" fill="#1E394C"/>
<path d="M288.816 72.9666L211.714 44.7669C207.633 43.2515 204.225 45.3813 204.225 49.4976V84.312C204.377 86.5558 205.162 88.7099 206.488 90.523C207.814 92.336 209.627 93.7332 211.714 94.5515L288.816 122.751C292.898 124.267 296.306 122.137 296.306 118V83.1856C296.15 80.9454 295.364 78.7956 294.038 76.9865C292.712 75.1774 290.901 73.7834 288.816 72.9666Z" fill="#87D3F9"/>
<path d="M288.816 134.302L211.714 106.082C207.633 104.587 204.225 106.696 204.225 110.833V145.647C204.379 147.89 205.165 150.043 206.491 151.856C207.817 153.669 209.628 155.066 211.714 155.887L288.816 184.086C292.898 185.602 296.306 183.472 296.306 179.335V144.521C296.15 142.281 295.364 140.131 294.038 138.322C292.712 136.513 290.901 135.119 288.816 134.302Z" fill="#87D3F9"/>
<path d="M288.816 196.312L211.714 168.071C207.633 166.556 204.225 168.686 204.225 172.823V207.637C204.374 209.881 205.158 212.037 206.485 213.85C207.811 215.664 209.625 217.06 211.714 217.876L288.816 246.097C292.898 247.612 296.306 245.482 296.306 241.345V206.552C296.152 204.308 295.366 202.155 294.04 200.343C292.714 198.53 290.903 197.132 288.816 196.312Z" fill="#87D3F9"/>
<path d="M264.122 78.8031L237.469 69.0551C237.296 68.9588 237.1 68.9113 236.902 68.9175C236.704 68.9237 236.511 68.9835 236.344 69.0904C236.176 69.1973 236.041 69.3474 235.952 69.525C235.863 69.7026 235.823 69.9011 235.837 70.0995C235.875 70.5845 236.049 71.0489 236.337 71.4399C236.626 71.8309 237.018 72.1327 237.469 72.3112L264.122 82.0593C265.02 82.387 265.755 81.9364 265.755 81.0353C265.72 80.5467 265.548 80.078 265.259 79.6831C264.97 79.2882 264.576 78.9831 264.122 78.8031Z" fill="#1E394C"/>
<path d="M264.123 97.1322L237.47 87.4046C236.572 87.0769 235.837 87.5275 235.837 88.4286C235.872 88.9172 236.044 89.3859 236.333 89.7808C236.621 90.1757 237.016 90.4807 237.47 90.6608L264.123 100.409C264.296 100.505 264.492 100.553 264.69 100.546C264.888 100.54 265.081 100.48 265.248 100.374C265.415 100.267 265.551 100.116 265.64 99.9388C265.729 99.7612 265.769 99.5628 265.755 99.3644C265.72 98.8758 265.548 98.407 265.26 98.0121C264.971 97.6172 264.577 97.3122 264.123 97.1322Z" fill="#1E394C"/>
<path d="M272.326 91.091L228.224 74.9535C228.051 74.8573 227.855 74.8098 227.657 74.816C227.458 74.8222 227.266 74.8819 227.098 74.9888C226.931 75.0957 226.796 75.2459 226.707 75.4235C226.618 75.6011 226.578 75.7995 226.592 75.9979C226.627 76.4865 226.798 76.9553 227.087 77.3502C227.376 77.7451 227.77 78.0501 228.224 78.2302L272.326 94.3677C272.5 94.4639 272.696 94.5114 272.894 94.5052C273.092 94.499 273.285 94.4393 273.452 94.3324C273.619 94.2255 273.754 94.0753 273.844 93.8977C273.933 93.7201 273.973 93.5217 273.959 93.3232C273.924 92.8346 273.752 92.3659 273.463 91.971C273.174 91.5761 272.78 91.271 272.326 91.091Z" fill="#1E394C"/>
<path d="M264.122 144.562L237.469 134.875C237.296 134.779 237.1 134.732 236.902 134.738C236.704 134.744 236.511 134.804 236.344 134.911C236.176 135.018 236.041 135.168 235.952 135.345C235.863 135.523 235.823 135.721 235.837 135.92C235.872 136.408 236.043 136.877 236.332 137.272C236.621 137.667 237.015 137.972 237.469 138.152L264.122 147.88C264.294 147.975 264.488 148.022 264.685 148.017C264.881 148.011 265.072 147.953 265.238 147.849C265.405 147.745 265.541 147.597 265.631 147.423C265.722 147.248 265.765 147.052 265.755 146.856C265.731 146.356 265.565 145.874 265.275 145.468C264.986 145.061 264.585 144.746 264.122 144.562Z" fill="#1E394C"/>
<path d="M272.327 156.849L228.225 140.732C227.327 140.404 226.592 140.855 226.592 141.756C226.627 142.244 226.799 142.713 227.088 143.108C227.376 143.503 227.771 143.808 228.225 143.988L272.327 160.125C272.5 160.222 272.696 160.269 272.894 160.263C273.092 160.257 273.285 160.197 273.452 160.09C273.619 159.983 273.755 159.833 273.844 159.655C273.933 159.478 273.973 159.279 273.959 159.081C273.924 158.592 273.752 158.124 273.463 157.729C273.175 157.334 272.781 157.029 272.327 156.849Z" fill="#1E394C"/>
<path d="M264.122 202.067L237.469 192.319C237.296 192.223 237.1 192.175 236.902 192.181C236.704 192.187 236.511 192.247 236.344 192.354C236.176 192.461 236.041 192.611 235.952 192.789C235.863 192.966 235.823 193.165 235.837 193.363C235.875 193.848 236.049 194.313 236.337 194.704C236.626 195.095 237.018 195.396 237.469 195.575L264.122 205.323C265.02 205.651 265.755 205.2 265.755 204.299C265.72 203.81 265.548 203.342 265.259 202.947C264.97 202.552 264.576 202.247 264.122 202.067Z" fill="#1E394C"/>
<path d="M264.123 220.232L237.47 210.504C236.572 210.177 235.837 210.627 235.837 211.528C235.872 212.017 236.044 212.486 236.333 212.88C236.621 213.275 237.016 213.58 237.47 213.76L264.123 223.508C264.296 223.605 264.492 223.652 264.69 223.646C264.888 223.64 265.081 223.58 265.248 223.473C265.415 223.366 265.551 223.216 265.64 223.038C265.729 222.861 265.769 222.662 265.755 222.464C265.72 221.975 265.548 221.507 265.26 221.112C264.971 220.717 264.577 220.412 264.123 220.232Z" fill="#1E394C"/>
<path d="M272.326 214.355L228.224 198.217C228.051 198.121 227.855 198.073 227.657 198.08C227.458 198.086 227.266 198.146 227.098 198.252C226.931 198.359 226.796 198.51 226.707 198.687C226.618 198.865 226.578 199.063 226.592 199.262C226.627 199.75 226.798 200.219 227.087 200.614C227.376 201.009 227.77 201.314 228.224 201.494L272.326 217.631C272.5 217.728 272.696 217.775 272.894 217.769C273.092 217.763 273.285 217.703 273.452 217.596C273.619 217.489 273.754 217.339 273.844 217.161C273.933 216.984 273.973 216.785 273.959 216.587C273.924 216.098 273.752 215.63 273.463 215.235C273.174 214.84 272.78 214.535 272.326 214.355Z" fill="#1E394C"/>
<path d="M188.163 354.001C188.163 354.001 184.081 352.547 183.632 343.659H171.898L170.755 355.947L179.51 363.278L187.122 359.449L188.163 354.001Z" fill="#F2BF75"/>
<path d="M170.756 355.762C170.756 355.762 184.449 360.308 188.164 353.898C188.164 353.898 213.47 363.36 213.286 366.186C213 370.65 192.082 371.572 187.449 370.425L183.368 366.329L181.613 370.978H170.082C170.082 370.978 170.245 356.479 170.756 355.762Z" fill="#1E394C"/>
<path d="M144.368 354.001C144.368 354.001 140.409 352.383 140.286 343.475L128.572 342.942L126.878 355.066L135.286 362.807L143.062 359.326L144.368 354.001Z" fill="#F2BF75"/>
<path d="M126.878 355.045C126.878 355.045 140.286 360.145 144.368 354.001C144.368 354.001 166.511 362.008 167.796 365.694C169.082 369.381 147.388 371.838 142.878 370.487L139.041 366.288L137 370.855L125.47 370.323C125.47 370.323 126.327 355.742 126.878 355.045Z" fill="#1E394C"/>
<path d="M118.959 214.375C118.959 214.375 126.571 245.38 128.428 250.541C130.286 255.702 134.204 280.932 134.408 281.751C134.612 282.57 125.755 347.489 125.755 347.489C125.755 347.489 137.694 350.172 142.428 347.079L155.408 281.546L149.857 217.058L118.959 214.375Z" fill="#1E394C"/>
<path d="M120.592 212.696C120.592 212.696 132.347 232.847 142.837 241.837C153.327 250.828 166.327 275.013 166.327 275.013L167.878 346.956C170.354 348.467 173.181 349.3 176.078 349.372C178.975 349.444 181.84 348.752 184.388 347.366L185.184 346.956C185.184 346.956 187.02 272.228 186.714 267.272C186.408 262.316 160.184 205.262 160.184 205.262L120.592 212.696Z" fill="#1E394C"/>
<path d="M166.021 80.6466C166.021 80.6466 156.817 113.208 142.082 112.266C129.143 111.447 126.735 97.9309 129.837 81.4248C133.082 64.2019 147.225 66.4751 155.47 66.3727C155.47 66.3727 165.674 66.3727 167.368 58.4678C167.368 58.4678 179.266 74.7486 165.98 80.6466" fill="#1E394C"/>
<path d="M142.592 120.356C142.592 120.356 124.592 117.141 116.265 155.682C112.775 171.84 131.102 197.214 131.102 197.214L150.265 160.228L142.592 120.356Z" fill="#AAC6CE"/>
<path d="M218.082 98.4631C218.082 98.4631 224.878 79.7043 224.878 74.605C224.878 69.5057 228.735 73.9701 228.592 77.8611C228.425 80.6139 228.064 83.3513 227.511 86.0528C227.511 86.0528 232.756 86.5238 232.756 89.0017C232.756 91.4797 231.062 100.163 228.674 101.555L218.082 98.4631Z" fill="#F2BF75"/>
<path d="M152.53 122.956C164.489 129.1 190.081 145.278 195.938 140.015C201.795 134.752 218.04 98.4629 218.04 98.4629L228.551 101.576C228.551 101.576 206.102 162.03 199.448 161.866C192.795 161.702 170.244 157.402 170.244 157.402C170.244 157.402 168.204 200.1 162.081 211.876C162.081 211.876 131.653 222.873 115.897 213.924C124.132 201.814 127.547 187.047 125.469 172.536C121.918 146.609 128.714 110.648 152.53 122.956Z" fill="#CEE5ED"/>
<path d="M166.021 80.6465C166.547 83.5561 167.481 86.3762 168.796 89.0224C170.322 91.0423 172.146 92.8171 174.204 94.2855L171.266 98.0127C171.266 98.0127 173.429 111.037 159.694 113.515L158.286 126.376L142.694 121.113L142.082 112.266C143.511 110.719 144.449 108.78 144.776 106.696C143.93 105.844 143.302 104.799 142.946 103.651C142.591 102.502 142.518 101.284 142.735 100.102C143.735 96.5382 146.817 93.8145 148.368 95.1457C149.335 96.2444 149.909 97.6351 150 99.0981H152.041C152.041 99.0981 151.694 93.2001 152.898 90.7222C154.218 88.1816 156.077 85.9625 158.344 84.2215C160.612 82.4806 163.232 81.2602 166.021 80.6465Z" fill="#EA9249"/>
<path d="M158.286 126.376L159.694 113.515C173.429 111.037 171.266 98.0127 171.266 98.0127L174.205 94.2855C172.146 92.8171 170.322 91.0423 168.796 89.0224C167.481 86.3762 166.547 83.5561 166.021 80.6465C165.388 80.7898 164.817 80.9946 164.245 81.1789C165.622 84.8441 166.527 88.6704 166.939 92.5653C167.449 99.221 166.409 106.757 157.123 112.409C153.98 114.335 152.837 119.536 152.49 124.41L158.286 126.376Z" fill="#F2BF75"/>
<path d="M153.143 255.414C142.939 253.08 133.184 246.916 125.694 240.895C123.245 231.618 120.082 218.921 119.204 215.337C120.395 215.785 121.616 216.147 122.857 216.422C126.776 222.668 135.102 235.284 142.837 241.857C146.659 245.387 150.081 249.329 153.041 253.612L153.143 255.414Z" fill="#0F2A3F"/>
<path opacity="0.43" d="M298.388 325.331C298.245 320.436 274.245 311.999 244.796 306.49C215.347 300.981 191.592 300.49 191.735 305.384C191.878 310.279 215.878 318.716 245.327 324.225C274.776 329.734 298.531 330.143 298.388 325.331Z" fill="#CEE5ED"/>
<path d="M68.8574 245.073C68.8574 245.073 76.0819 181.895 50.0003 191.827C23.0411 201.903 56.7146 243.659 68.8574 245.073Z" fill="#34648C"/>
<path d="M61.6331 283.205C61.6331 283.205 53.735 219.966 30.7962 237.476C10.0411 253.326 46.2861 278.536 61.6331 283.205Z" fill="#67B8EF"/>
<path d="M44.6738 259.49C55.1635 274.071 65.3472 288.919 68.6125 306.961C68.7757 307.923 70.2248 307.514 70.0615 306.551C66.7962 288.386 56.5512 273.436 45.9798 258.712C45.4084 257.934 44.1023 258.712 44.6738 259.49Z" fill="#1E394C"/>
<path d="M81.5917 231.598C81.5917 231.598 72.1632 185.111 96.0407 189.329C119.918 193.548 87.6121 229.386 81.5917 231.598Z" fill="#67B8EF"/>
<path d="M83.7956 276.467C82.5915 277.286 81.3875 237.229 98.2446 238.642C115.102 240.055 107.265 260.78 83.7956 276.467Z" fill="#34648C"/>
<path d="M76.4289 273.231C74.5922 249.68 84.3472 223.139 93.4492 201.677C93.8166 200.776 92.5104 200.018 92.1431 200.899C82.8982 222.73 73.041 249.189 74.9186 273.231C74.9186 274.214 76.5105 274.214 76.4289 273.231Z" fill="#1E394C"/>
<path d="M78.5718 303.151C77.3677 275.525 74.9391 247.469 59.5105 223.693C58.9799 222.894 57.6739 223.693 58.2045 224.471C73.5106 248.022 75.8575 275.669 77.0616 303.151C77.0616 304.114 78.6126 304.134 78.5718 303.151Z" fill="#1E394C"/>
<path d="M82.1225 301.943C82.7347 287.403 83.6939 272.884 91.6735 260.268C92.2041 259.449 90.898 258.691 90.3673 259.511C82.2041 272.31 81.245 287.178 80.6123 301.943C80.6123 302.906 82.0817 302.906 82.1225 301.943Z" fill="#1E394C"/>
<path d="M55.5507 298.912L59.4692 334.546C59.7099 336.696 60.7315 338.683 62.3388 340.126C63.9462 341.569 66.0267 342.367 68.1834 342.369H90.8161C92.9622 342.352 95.0279 341.547 96.6224 340.105C98.2169 338.664 99.2296 336.686 99.4691 334.546L103.387 298.912C103.439 298.454 103.394 297.991 103.254 297.552C103.115 297.114 102.884 296.71 102.577 296.367C102.271 296.025 101.895 295.751 101.475 295.565C101.056 295.379 100.601 295.284 100.143 295.287H58.7957C58.3378 295.287 57.885 295.384 57.4668 295.572C57.0487 295.759 56.6745 296.032 56.3685 296.374C56.0624 296.716 55.8315 297.119 55.6906 297.556C55.5497 297.993 55.5021 298.455 55.5507 298.912Z" fill="#CEE5ED"/>
<path d="M100.184 295.287H85.8983C86.3562 295.287 86.809 295.384 87.2271 295.572C87.6453 295.759 88.0195 296.032 88.3255 296.374C88.6315 296.716 88.8625 297.119 89.0034 297.556C89.1442 297.993 89.1919 298.455 89.1432 298.912L85.1841 334.545C84.9433 336.696 83.9218 338.683 82.3144 340.125C80.707 341.568 78.6264 342.367 76.4697 342.368H90.7554C92.9121 342.367 94.9928 341.568 96.6001 340.125C98.2075 338.683 99.229 336.696 99.4698 334.545L103.388 298.912C103.44 298.458 103.395 297.998 103.258 297.562C103.121 297.126 102.894 296.724 102.592 296.382C102.289 296.041 101.919 295.766 101.504 295.578C101.089 295.389 100.639 295.29 100.184 295.287Z" fill="#AAC6CE"/>
<path opacity="0.26" d="M59.8976 240.199C62.3758 242.571 65.4293 244.251 68.7548 245.073C68.7548 245.073 75.9181 182.305 50.1426 191.684C57.0405 200.408 71.7344 222.321 59.8976 240.199Z" fill="#0F2A3F"/>
<path opacity="0.26" d="M99.6939 238.827C100.265 246.773 100.184 267.805 83.2654 266.556C82.9797 272.392 83.3879 276.795 83.796 276.468C106.551 261.252 114.592 241.367 99.6939 238.827Z" fill="#0F2A3F"/>
<path opacity="0.42" d="M97.1839 189.595C97.6941 197.786 97.5716 220.702 80.041 219.781C80.339 223.746 80.8568 227.69 81.5921 231.597C87.5104 229.426 118.755 194.796 97.1839 189.595Z" fill="#34648C"/>
<path opacity="0.42" d="M61.6325 283.205C61.6325 283.205 53.7345 219.966 30.7957 237.476C30.0788 238.004 29.3971 238.578 28.7549 239.196C35.9181 241.674 59.5304 252.036 51.8365 278.925C54.954 280.671 58.2352 282.104 61.6325 283.205Z" fill="#34648C"/>
</g>
<defs>
<linearGradient id="paint0_linear_476_1523" x1="172.51" y1="349.803" x2="172.51" y2="-6.5327" gradientUnits="userSpaceOnUse">
<stop stop-color="white"/>
<stop offset="0.13" stop-color="#F8FCFE"/>
<stop offset="0.31" stop-color="#E6F3FC"/>
<stop offset="0.52" stop-color="#C7E5F9"/>
<stop offset="0.75" stop-color="#9CD1F5"/>
<stop offset="1" stop-color="#67B8EF"/>
</linearGradient>
<clipPath id="clip0_476_1523">
<rect width="345" height="395" fill="white"/>
</clipPath>
</defs>
</svg>
