<svg width="252" height="18" viewBox="0 0 252 18" fill="none" xmlns="http://www.w3.org/2000/svg">
<path d="M2.10895 12.344H8.66095V14H0.182945V2.12H2.10895V12.344ZM14.4374 14.18C13.5374 14.18 12.7454 13.994 12.0614 13.622C11.3774 13.25 10.8434 12.716 10.4594 12.02C10.0874 11.312 9.9014 10.472 9.9014 9.5C9.9014 8.528 10.0874 7.694 10.4594 6.998C10.8434 6.29 11.3714 5.75 12.0434 5.378C12.7154 5.006 13.4774 4.82 14.3294 4.82C15.2054 4.82 15.9494 5 16.5614 5.36C17.1734 5.72 17.6414 6.212 17.9654 6.836C18.2894 7.46 18.4514 8.168 18.4514 8.96C18.4514 9.176 18.4454 9.38 18.4334 9.572C18.4214 9.764 18.4034 9.932 18.3794 10.076H11.1434V8.6H17.5334L16.5794 8.888C16.5794 8.072 16.3754 7.448 15.9674 7.016C15.5594 6.572 15.0014 6.35 14.2934 6.35C13.7774 6.35 13.3274 6.47 12.9434 6.71C12.5594 6.95 12.2654 7.31 12.0614 7.79C11.8574 8.258 11.7554 8.834 11.7554 9.518C11.7554 10.19 11.8634 10.76 12.0794 11.228C12.2954 11.696 12.6014 12.05 12.9974 12.29C13.3934 12.53 13.8614 12.65 14.4014 12.65C15.0014 12.65 15.4874 12.536 15.8594 12.308C16.2314 12.08 16.5254 11.762 16.7414 11.354L18.2714 12.074C18.0554 12.506 17.7614 12.884 17.3894 13.208C17.0294 13.52 16.5974 13.76 16.0934 13.928C15.5894 14.096 15.0374 14.18 14.4374 14.18ZM26.0856 8.222C26.0856 7.622 25.9176 7.16 25.5816 6.836C25.2576 6.5 24.8076 6.332 24.2316 6.332C23.6916 6.332 23.2296 6.458 22.8456 6.71C22.4616 6.962 22.1796 7.37 21.9996 7.934L20.3796 7.25C20.6076 6.518 21.0516 5.93 21.7116 5.486C22.3836 5.042 23.2476 4.82 24.3036 4.82C25.0236 4.82 25.6596 4.94 26.2116 5.18C26.7636 5.408 27.1956 5.756 27.5076 6.224C27.8316 6.692 27.9936 7.292 27.9936 8.024V12.038C27.9936 12.482 28.2156 12.704 28.6596 12.704C28.8756 12.704 29.0856 12.674 29.2896 12.614L29.1816 13.946C28.9056 14.078 28.5576 14.144 28.1376 14.144C27.7536 14.144 27.4056 14.078 27.0936 13.946C26.7936 13.802 26.5536 13.592 26.3736 13.316C26.2056 13.028 26.1216 12.674 26.1216 12.254V12.128L26.5176 12.11C26.4096 12.578 26.1876 12.968 25.8516 13.28C25.5156 13.58 25.1256 13.808 24.6816 13.964C24.2376 14.108 23.7876 14.18 23.3316 14.18C22.7676 14.18 22.2576 14.09 21.8016 13.91C21.3576 13.73 21.0036 13.46 20.7396 13.1C20.4876 12.728 20.3616 12.272 20.3616 11.732C20.3616 11.06 20.5776 10.508 21.0096 10.076C21.4536 9.644 22.0776 9.35 22.8816 9.194L26.3736 8.51L26.3556 9.86L23.8176 10.382C23.3136 10.478 22.9356 10.616 22.6836 10.796C22.4316 10.976 22.3056 11.24 22.3056 11.588C22.3056 11.924 22.4316 12.194 22.6836 12.398C22.9476 12.59 23.2956 12.686 23.7276 12.686C24.0276 12.686 24.3156 12.65 24.5916 12.578C24.8796 12.506 25.1376 12.392 25.3656 12.236C25.5936 12.068 25.7676 11.858 25.8876 11.606C26.0196 11.342 26.0856 11.03 26.0856 10.67V8.222ZM31.1493 14V5H32.7873L32.9673 6.62C33.2073 6.032 33.5613 5.588 34.0293 5.288C34.5093 4.976 35.0973 4.82 35.7933 4.82C35.9733 4.82 36.1533 4.838 36.3333 4.874C36.5133 4.898 36.6633 4.94 36.7833 5L36.5133 6.692C36.3813 6.644 36.2313 6.608 36.0633 6.584C35.9073 6.548 35.6913 6.53 35.4153 6.53C35.0433 6.53 34.6773 6.632 34.3173 6.836C33.9573 7.028 33.6573 7.322 33.4173 7.718C33.1893 8.114 33.0753 8.618 33.0753 9.23V14H31.1493ZM38.6024 14V5H40.3124L40.4384 7.34L40.1864 7.088C40.3544 6.572 40.5944 6.146 40.9064 5.81C41.2304 5.462 41.6084 5.21 42.0404 5.054C42.4844 4.898 42.9524 4.82 43.4444 4.82C44.0804 4.82 44.6504 4.946 45.1544 5.198C45.6704 5.438 46.0784 5.804 46.3784 6.296C46.6784 6.788 46.8284 7.412 46.8284 8.168V14H44.9024V8.762C44.9024 7.874 44.7164 7.262 44.3444 6.926C43.9844 6.578 43.5284 6.404 42.9764 6.404C42.5804 6.404 42.1964 6.5 41.8244 6.692C41.4524 6.872 41.1404 7.166 40.8884 7.574C40.6484 7.982 40.5284 8.528 40.5284 9.212V14H38.6024ZM60.8024 8.222C60.8024 7.622 60.6344 7.16 60.2984 6.836C59.9744 6.5 59.5244 6.332 58.9484 6.332C58.4084 6.332 57.9464 6.458 57.5624 6.71C57.1784 6.962 56.8964 7.37 56.7164 7.934L55.0964 7.25C55.3244 6.518 55.7684 5.93 56.4284 5.486C57.1004 5.042 57.9644 4.82 59.0204 4.82C59.7404 4.82 60.3764 4.94 60.9284 5.18C61.4804 5.408 61.9124 5.756 62.2244 6.224C62.5484 6.692 62.7104 7.292 62.7104 8.024V12.038C62.7104 12.482 62.9324 12.704 63.3764 12.704C63.5924 12.704 63.8024 12.674 64.0064 12.614L63.8984 13.946C63.6224 14.078 63.2744 14.144 62.8544 14.144C62.4704 14.144 62.1224 14.078 61.8104 13.946C61.5104 13.802 61.2704 13.592 61.0904 13.316C60.9224 13.028 60.8384 12.674 60.8384 12.254V12.128L61.2344 12.11C61.1264 12.578 60.9044 12.968 60.5684 13.28C60.2324 13.58 59.8424 13.808 59.3984 13.964C58.9544 14.108 58.5044 14.18 58.0484 14.18C57.4844 14.18 56.9744 14.09 56.5184 13.91C56.0744 13.73 55.7204 13.46 55.4564 13.1C55.2044 12.728 55.0784 12.272 55.0784 11.732C55.0784 11.06 55.2944 10.508 55.7264 10.076C56.1704 9.644 56.7944 9.35 57.5984 9.194L61.0904 8.51L61.0724 9.86L58.5344 10.382C58.0304 10.478 57.6524 10.616 57.4004 10.796C57.1484 10.976 57.0224 11.24 57.0224 11.588C57.0224 11.924 57.1484 12.194 57.4004 12.398C57.6644 12.59 58.0124 12.686 58.4444 12.686C58.7444 12.686 59.0324 12.65 59.3084 12.578C59.5964 12.506 59.8544 12.392 60.0824 12.236C60.3104 12.068 60.4844 11.858 60.6044 11.606C60.7364 11.342 60.8024 11.03 60.8024 10.67V8.222ZM70.6901 14.18C70.1621 14.18 69.6761 14.078 69.2321 13.874C68.8001 13.67 68.4341 13.388 68.1341 13.028C67.8341 12.656 67.6121 12.242 67.4681 11.786L67.7021 11.48L67.5581 14H65.8661V0.95H67.7921V7.268L67.5761 6.962C67.8041 6.338 68.1941 5.828 68.7461 5.432C69.2981 5.024 69.9641 4.82 70.7441 4.82C71.4641 4.82 72.1241 5.006 72.7241 5.378C73.3361 5.75 73.8161 6.284 74.1641 6.98C74.5121 7.676 74.6861 8.522 74.6861 9.518C74.6861 10.49 74.5061 11.324 74.1461 12.02C73.7981 12.716 73.3181 13.25 72.7061 13.622C72.1061 13.994 71.4341 14.18 70.6901 14.18ZM70.2761 12.632C71.0561 12.632 71.6621 12.356 72.0941 11.804C72.5381 11.24 72.7601 10.472 72.7601 9.5C72.7601 8.528 72.5441 7.766 72.1121 7.214C71.6801 6.662 71.0741 6.386 70.2941 6.386C69.7901 6.386 69.3521 6.518 68.9801 6.782C68.6081 7.034 68.3141 7.394 68.0981 7.862C67.8941 8.33 67.7921 8.888 67.7921 9.536C67.7921 10.172 67.8941 10.724 68.0981 11.192C68.3021 11.648 68.5901 12.002 68.9621 12.254C69.3461 12.506 69.7841 12.632 70.2761 12.632ZM81.0572 4.82C81.9332 4.82 82.7072 5.006 83.3792 5.378C84.0512 5.75 84.5732 6.29 84.9452 6.998C85.3292 7.694 85.5212 8.528 85.5212 9.5C85.5212 10.472 85.3292 11.312 84.9452 12.02C84.5732 12.716 84.0512 13.25 83.3792 13.622C82.7072 13.994 81.9332 14.18 81.0572 14.18C80.1812 14.18 79.4072 13.994 78.7352 13.622C78.0632 13.25 77.5352 12.716 77.1512 12.02C76.7672 11.312 76.5752 10.472 76.5752 9.5C76.5752 8.528 76.7672 7.694 77.1512 6.998C77.5352 6.29 78.0632 5.75 78.7352 5.378C79.4072 5.006 80.1812 4.82 81.0572 4.82ZM81.0572 6.332C80.5172 6.332 80.0552 6.458 79.6712 6.71C79.2992 6.95 79.0112 7.304 78.8072 7.772C78.6032 8.24 78.5012 8.816 78.5012 9.5C78.5012 10.172 78.6032 10.748 78.8072 11.228C79.0112 11.696 79.2992 12.056 79.6712 12.308C80.0552 12.548 80.5172 12.668 81.0572 12.668C81.5972 12.668 82.0532 12.548 82.4252 12.308C82.7972 12.056 83.0852 11.696 83.2892 11.228C83.4932 10.748 83.5952 10.172 83.5952 9.5C83.5952 8.816 83.4932 8.24 83.2892 7.772C83.0852 7.304 82.7972 6.95 82.4252 6.71C82.0532 6.458 81.5972 6.332 81.0572 6.332ZM91.1482 14.18C90.5602 14.18 90.0142 14.072 89.5102 13.856C89.0182 13.64 88.6222 13.292 88.3222 12.812C88.0222 12.332 87.8722 11.708 87.8722 10.94V5H89.7982V10.454C89.7982 11.27 89.9722 11.834 90.3202 12.146C90.6682 12.446 91.1542 12.596 91.7782 12.596C92.0782 12.596 92.3662 12.548 92.6422 12.452C92.9302 12.344 93.1882 12.182 93.4162 11.966C93.6442 11.738 93.8182 11.45 93.9382 11.102C94.0702 10.754 94.1362 10.346 94.1362 9.878V5H96.0622V14H94.3702L94.2802 12.542C93.9682 13.106 93.5482 13.52 93.0202 13.784C92.4922 14.048 91.8682 14.18 91.1482 14.18ZM101.699 2.354V11.3C101.699 11.744 101.813 12.068 102.041 12.272C102.281 12.476 102.599 12.578 102.995 12.578C103.319 12.578 103.601 12.53 103.841 12.434C104.081 12.326 104.303 12.182 104.507 12.002L104.939 13.406C104.663 13.646 104.321 13.838 103.913 13.982C103.517 14.114 103.073 14.18 102.581 14.18C102.065 14.18 101.591 14.096 101.159 13.928C100.727 13.76 100.391 13.49 100.151 13.118C99.9111 12.734 99.7851 12.236 99.7731 11.624V2.894L101.699 2.354ZM104.795 5V6.512H98.0451V5H104.795ZM122.67 10.85C122.43 11.57 122.07 12.182 121.59 12.686C121.11 13.178 120.546 13.55 119.898 13.802C119.25 14.054 118.536 14.18 117.756 14.18C116.616 14.18 115.626 13.934 114.786 13.442C113.946 12.95 113.298 12.248 112.842 11.336C112.386 10.424 112.158 9.332 112.158 8.06C112.158 6.788 112.386 5.696 112.842 4.784C113.298 3.872 113.946 3.17 114.786 2.678C115.626 2.186 116.61 1.94 117.738 1.94C118.518 1.94 119.22 2.048 119.844 2.264C120.48 2.48 121.02 2.804 121.464 3.236C121.908 3.668 122.25 4.208 122.49 4.856L120.672 5.666C120.432 4.958 120.084 4.442 119.628 4.118C119.172 3.782 118.578 3.614 117.846 3.614C117.114 3.614 116.472 3.788 115.92 4.136C115.368 4.484 114.936 4.988 114.624 5.648C114.324 6.308 114.174 7.112 114.174 8.06C114.174 8.996 114.318 9.8 114.606 10.472C114.894 11.132 115.308 11.636 115.848 11.984C116.388 12.332 117.036 12.506 117.792 12.506C118.524 12.506 119.154 12.32 119.682 11.948C120.222 11.564 120.606 10.994 120.834 10.238L122.67 10.85ZM125.83 3.488C125.41 3.488 125.086 3.386 124.858 3.182C124.642 2.966 124.534 2.666 124.534 2.282C124.534 1.898 124.642 1.604 124.858 1.4C125.086 1.196 125.41 1.094 125.83 1.094C126.238 1.094 126.55 1.196 126.766 1.4C126.994 1.604 127.108 1.898 127.108 2.282C127.108 2.666 126.994 2.966 126.766 3.182C126.55 3.386 126.238 3.488 125.83 3.488ZM126.784 5V14H124.858V5H126.784ZM135.72 5H137.736L134.154 14H132.048L128.448 5H130.554L133.11 12.326L135.72 5ZM140.35 3.488C139.93 3.488 139.606 3.386 139.378 3.182C139.162 2.966 139.054 2.666 139.054 2.282C139.054 1.898 139.162 1.604 139.378 1.4C139.606 1.196 139.93 1.094 140.35 1.094C140.758 1.094 141.07 1.196 141.286 1.4C141.514 1.604 141.628 1.898 141.628 2.282C141.628 2.666 141.514 2.966 141.286 3.182C141.07 3.386 140.758 3.488 140.35 3.488ZM141.304 5V14H139.378V5H141.304ZM146.189 0.95V11.48C146.189 11.924 146.267 12.23 146.423 12.398C146.579 12.566 146.837 12.65 147.197 12.65C147.413 12.65 147.593 12.638 147.737 12.614C147.893 12.578 148.085 12.518 148.313 12.434L148.097 13.874C147.893 13.97 147.659 14.042 147.395 14.09C147.131 14.15 146.867 14.18 146.603 14.18C145.799 14.18 145.205 13.976 144.821 13.568C144.449 13.148 144.263 12.506 144.263 11.642V0.95H146.189ZM159.715 2.12C161.575 2.12 163.021 2.636 164.053 3.668C165.097 4.688 165.619 6.152 165.619 8.06C165.619 9.968 165.097 11.438 164.053 12.47C163.021 13.49 161.575 14 159.715 14H155.521V2.12H159.715ZM159.715 12.362C160.975 12.362 161.935 11.99 162.595 11.246C163.267 10.49 163.603 9.428 163.603 8.06C163.603 6.692 163.267 5.636 162.595 4.892C161.935 4.136 160.975 3.758 159.715 3.758H157.447V12.362H159.715ZM172.166 14.18C171.266 14.18 170.474 13.994 169.79 13.622C169.106 13.25 168.572 12.716 168.188 12.02C167.816 11.312 167.63 10.472 167.63 9.5C167.63 8.528 167.816 7.694 168.188 6.998C168.572 6.29 169.1 5.75 169.772 5.378C170.444 5.006 171.206 4.82 172.058 4.82C172.934 4.82 173.678 5 174.29 5.36C174.902 5.72 175.37 6.212 175.694 6.836C176.018 7.46 176.18 8.168 176.18 8.96C176.18 9.176 176.174 9.38 176.162 9.572C176.15 9.764 176.132 9.932 176.108 10.076H168.872V8.6H175.262L174.308 8.888C174.308 8.072 174.104 7.448 173.696 7.016C173.288 6.572 172.73 6.35 172.022 6.35C171.506 6.35 171.056 6.47 170.672 6.71C170.288 6.95 169.994 7.31 169.79 7.79C169.586 8.258 169.484 8.834 169.484 9.518C169.484 10.19 169.592 10.76 169.808 11.228C170.024 11.696 170.33 12.05 170.726 12.29C171.122 12.53 171.59 12.65 172.13 12.65C172.73 12.65 173.216 12.536 173.588 12.308C173.96 12.08 174.254 11.762 174.47 11.354L176 12.074C175.784 12.506 175.49 12.884 175.118 13.208C174.758 13.52 174.326 13.76 173.822 13.928C173.318 14.096 172.766 14.18 172.166 14.18ZM178.612 14V5H180.322L180.412 6.512C180.724 5.936 181.138 5.51 181.654 5.234C182.182 4.958 182.74 4.82 183.328 4.82C183.976 4.82 184.57 4.97 185.11 5.27C185.662 5.558 186.076 5.996 186.352 6.584C186.544 6.188 186.808 5.858 187.144 5.594C187.48 5.33 187.852 5.138 188.26 5.018C188.668 4.886 189.07 4.82 189.466 4.82C190.042 4.82 190.582 4.94 191.086 5.18C191.59 5.42 191.998 5.786 192.31 6.278C192.622 6.77 192.778 7.4 192.778 8.168V14H190.852V8.474C190.852 7.742 190.678 7.214 190.33 6.89C189.982 6.566 189.538 6.404 188.998 6.404C188.578 6.404 188.188 6.506 187.828 6.71C187.48 6.914 187.198 7.22 186.982 7.628C186.766 8.024 186.658 8.516 186.658 9.104V14H184.732V8.474C184.732 7.742 184.558 7.214 184.21 6.89C183.862 6.566 183.418 6.404 182.878 6.404C182.518 6.404 182.158 6.5 181.798 6.692C181.438 6.884 181.138 7.184 180.898 7.592C180.658 8 180.538 8.54 180.538 9.212V14H178.612ZM199.604 4.82C200.48 4.82 201.254 5.006 201.926 5.378C202.598 5.75 203.12 6.29 203.492 6.998C203.876 7.694 204.068 8.528 204.068 9.5C204.068 10.472 203.876 11.312 203.492 12.02C203.12 12.716 202.598 13.25 201.926 13.622C201.254 13.994 200.48 14.18 199.604 14.18C198.728 14.18 197.954 13.994 197.282 13.622C196.61 13.25 196.082 12.716 195.698 12.02C195.314 11.312 195.122 10.472 195.122 9.5C195.122 8.528 195.314 7.694 195.698 6.998C196.082 6.29 196.61 5.75 197.282 5.378C197.954 5.006 198.728 4.82 199.604 4.82ZM199.604 6.332C199.064 6.332 198.602 6.458 198.218 6.71C197.846 6.95 197.558 7.304 197.354 7.772C197.15 8.24 197.048 8.816 197.048 9.5C197.048 10.172 197.15 10.748 197.354 11.228C197.558 11.696 197.846 12.056 198.218 12.308C198.602 12.548 199.064 12.668 199.604 12.668C200.144 12.668 200.6 12.548 200.972 12.308C201.344 12.056 201.632 11.696 201.836 11.228C202.04 10.748 202.142 10.172 202.142 9.5C202.142 8.816 202.04 8.24 201.836 7.772C201.632 7.304 201.344 6.95 200.972 6.71C200.6 6.458 200.144 6.332 199.604 6.332ZM210.379 4.82C211.099 4.82 211.711 4.928 212.215 5.144C212.731 5.348 213.163 5.642 213.511 6.026C213.859 6.41 214.123 6.848 214.303 7.34L212.485 8.06C212.329 7.508 212.077 7.088 211.729 6.8C211.393 6.5 210.949 6.35 210.397 6.35C209.857 6.35 209.395 6.476 209.011 6.728C208.627 6.968 208.333 7.322 208.129 7.79C207.937 8.258 207.841 8.834 207.841 9.518C207.841 10.19 207.943 10.76 208.147 11.228C208.351 11.696 208.645 12.05 209.029 12.29C209.413 12.53 209.869 12.65 210.397 12.65C210.805 12.65 211.159 12.584 211.459 12.452C211.759 12.308 212.005 12.11 212.197 11.858C212.401 11.594 212.539 11.276 212.611 10.904L214.357 11.498C214.189 12.038 213.925 12.512 213.565 12.92C213.217 13.316 212.779 13.628 212.251 13.856C211.723 14.072 211.117 14.18 210.433 14.18C209.545 14.18 208.759 13.994 208.075 13.622C207.391 13.25 206.857 12.716 206.473 12.02C206.101 11.312 205.915 10.472 205.915 9.5C205.915 8.528 206.101 7.694 206.473 6.998C206.857 6.29 207.385 5.75 208.057 5.378C208.741 5.006 209.515 4.82 210.379 4.82ZM216.598 14V5H218.236L218.416 6.62C218.656 6.032 219.01 5.588 219.478 5.288C219.958 4.976 220.546 4.82 221.242 4.82C221.422 4.82 221.602 4.838 221.782 4.874C221.962 4.898 222.112 4.94 222.232 5L221.962 6.692C221.83 6.644 221.68 6.608 221.512 6.584C221.356 6.548 221.14 6.53 220.864 6.53C220.492 6.53 220.126 6.632 219.766 6.836C219.406 7.028 219.106 7.322 218.866 7.718C218.638 8.114 218.524 8.618 218.524 9.23V14H216.598ZM229.06 8.222C229.06 7.622 228.892 7.16 228.556 6.836C228.232 6.5 227.782 6.332 227.206 6.332C226.666 6.332 226.204 6.458 225.82 6.71C225.436 6.962 225.154 7.37 224.974 7.934L223.354 7.25C223.582 6.518 224.026 5.93 224.686 5.486C225.358 5.042 226.222 4.82 227.278 4.82C227.998 4.82 228.634 4.94 229.186 5.18C229.738 5.408 230.17 5.756 230.482 6.224C230.806 6.692 230.968 7.292 230.968 8.024V12.038C230.968 12.482 231.19 12.704 231.634 12.704C231.85 12.704 232.06 12.674 232.264 12.614L232.156 13.946C231.88 14.078 231.532 14.144 231.112 14.144C230.728 14.144 230.38 14.078 230.068 13.946C229.768 13.802 229.528 13.592 229.348 13.316C229.18 13.028 229.096 12.674 229.096 12.254V12.128L229.492 12.11C229.384 12.578 229.162 12.968 228.826 13.28C228.49 13.58 228.1 13.808 227.656 13.964C227.212 14.108 226.762 14.18 226.306 14.18C225.742 14.18 225.232 14.09 224.776 13.91C224.332 13.73 223.978 13.46 223.714 13.1C223.462 12.728 223.336 12.272 223.336 11.732C223.336 11.06 223.552 10.508 223.984 10.076C224.428 9.644 225.052 9.35 225.856 9.194L229.348 8.51L229.33 9.86L226.792 10.382C226.288 10.478 225.91 10.616 225.658 10.796C225.406 10.976 225.28 11.24 225.28 11.588C225.28 11.924 225.406 12.194 225.658 12.398C225.922 12.59 226.27 12.686 226.702 12.686C227.002 12.686 227.29 12.65 227.566 12.578C227.854 12.506 228.112 12.392 228.34 12.236C228.568 12.068 228.742 11.858 228.862 11.606C228.994 11.342 229.06 11.03 229.06 10.67V8.222ZM237.994 4.82C238.714 4.82 239.326 4.928 239.83 5.144C240.346 5.348 240.778 5.642 241.126 6.026C241.474 6.41 241.738 6.848 241.918 7.34L240.1 8.06C239.944 7.508 239.692 7.088 239.344 6.8C239.008 6.5 238.564 6.35 238.012 6.35C237.472 6.35 237.01 6.476 236.626 6.728C236.242 6.968 235.948 7.322 235.744 7.79C235.552 8.258 235.456 8.834 235.456 9.518C235.456 10.19 235.558 10.76 235.762 11.228C235.966 11.696 236.26 12.05 236.644 12.29C237.028 12.53 237.484 12.65 238.012 12.65C238.42 12.65 238.774 12.584 239.074 12.452C239.374 12.308 239.62 12.11 239.812 11.858C240.016 11.594 240.154 11.276 240.226 10.904L241.972 11.498C241.804 12.038 241.54 12.512 241.18 12.92C240.832 13.316 240.394 13.628 239.866 13.856C239.338 14.072 238.732 14.18 238.048 14.18C237.16 14.18 236.374 13.994 235.69 13.622C235.006 13.25 234.472 12.716 234.088 12.02C233.716 11.312 233.53 10.472 233.53 9.5C233.53 8.528 233.716 7.694 234.088 6.998C234.472 6.29 235 5.75 235.672 5.378C236.356 5.006 237.13 4.82 237.994 4.82ZM251.834 5L247.892 15.062C247.628 15.758 247.34 16.31 247.028 16.718C246.728 17.126 246.38 17.42 245.984 17.6C245.588 17.78 245.126 17.87 244.598 17.87C244.166 17.87 243.764 17.81 243.392 17.69C243.032 17.582 242.714 17.432 242.438 17.24L242.906 15.746C243.134 15.938 243.374 16.082 243.626 16.178C243.89 16.274 244.172 16.322 244.472 16.322C244.796 16.322 245.084 16.232 245.336 16.052C245.6 15.884 245.834 15.542 246.038 15.026L246.434 14.054L245.48 11.822L242.672 5H244.832L246.83 10.652L247.352 12.344L247.946 10.49L249.836 5H251.834Z" fill="#0082CA"/>
<path d="M-1.58105 16.25H251.978V17.15H-1.58105V16.25Z" fill="#0082CA"/>
</svg>
