<svg width="235" height="173" viewBox="0 0 235 173" fill="none" xmlns="http://www.w3.org/2000/svg">
<path d="M140.041 71.8525H34.7432V87.6547H140.041V71.8525Z" fill="#0082CA"/>
<path d="M140.04 53.1152H92.0459V68.9174H140.04V53.1152Z" fill="#231F20"/>
<path d="M148.221 71.6853C148.221 61.4035 154.767 52.6049 163.967 49.1074H158.133C150.585 53.8746 145.576 62.2143 145.576 71.6853C145.576 81.5862 151.053 90.2491 159.181 94.8893H165.845C155.67 91.9343 148.221 82.6539 148.221 71.6853Z" fill="#231F20"/>
<path d="M197.332 71.6853C197.332 82.6539 189.883 91.9343 179.711 94.8893H186.374C194.499 90.2491 199.98 81.5862 199.98 71.6853C199.98 62.2143 194.968 53.8775 187.42 49.1074H181.586C190.786 52.6049 197.332 61.4035 197.332 71.6853Z" fill="#231F20"/>
<path d="M166.106 94.8893H169.919C168.35 93.8014 166.862 91.8449 165.623 89.1727C163.467 84.5238 162.281 78.3138 162.281 71.6853C162.281 65.0568 163.467 58.8467 165.623 54.1978C166.654 51.9758 167.855 50.2531 169.134 49.1074H165.599C161.985 53.8342 159.633 62.096 159.633 71.6853C159.636 81.716 162.204 90.2924 166.106 94.8893Z" fill="#0082CA"/>
<path d="M179.954 49.1104H176.419C177.699 50.256 178.9 51.9788 179.931 54.2008C182.086 58.8496 183.273 65.0597 183.273 71.6882C183.273 78.3166 182.086 84.5267 179.931 89.1756C178.692 91.8477 177.204 93.8043 175.634 94.8922H179.447C183.349 90.2952 185.92 81.716 185.92 71.6882C185.918 62.0961 183.568 53.8343 179.954 49.1104Z" fill="#231F20"/>
<path d="M174.102 49.1104H171.454V94.8922H174.102V49.1104Z" fill="#0082CA"/>
<path d="M36.6265 92.2262H36.1169C36.0905 92.0761 35.9939 91.9722 35.7859 91.9722C35.6131 91.9722 35.4959 92.0444 35.4959 92.1713C35.4959 92.281 35.578 92.3272 35.7303 92.3589L36.0144 92.4253C36.3864 92.5061 36.6295 92.6533 36.6295 92.9967C36.6295 93.3978 36.2926 93.6488 35.7859 93.6488C35.329 93.6488 34.9131 93.4353 34.8662 92.9418H35.3729C35.4052 93.1179 35.5604 93.2246 35.8006 93.2246C35.988 93.2246 36.0876 93.1554 36.0876 93.0486C36.0876 92.9793 36.0466 92.9101 35.8709 92.8783L35.534 92.8033C35.1328 92.7167 34.9453 92.5321 34.9453 92.2146C34.9453 91.8135 35.2763 91.5596 35.7537 91.5596C36.0818 91.5596 36.5738 91.6865 36.6265 92.2262Z" fill="#231F20"/>
<path d="M38.8726 92.6731C38.8726 93.2965 38.5065 93.6543 37.9236 93.6543C37.3437 93.6543 36.9775 93.2965 36.9775 92.6731V91.6025H37.4872V92.6818C37.4872 92.9877 37.6571 93.1868 37.9236 93.1868C38.1901 93.1868 38.363 92.9877 38.363 92.6818V91.6025H38.8726V92.6731Z" fill="#231F20"/>
<path d="M40.9351 92.2262H40.4255C40.3991 92.0761 40.3025 91.9722 40.0945 91.9722C39.9217 91.9722 39.8045 92.0444 39.8045 92.1713C39.8045 92.281 39.8865 92.3272 40.0389 92.3589L40.323 92.4253C40.695 92.5061 40.9381 92.6533 40.9381 92.9967C40.9381 93.3978 40.6012 93.6488 40.0945 93.6488C39.6376 93.6488 39.2217 93.4353 39.1748 92.9418H39.6815C39.7137 93.1179 39.869 93.2246 40.1092 93.2246C40.2966 93.2246 40.3962 93.1554 40.3962 93.0486C40.3962 92.9793 40.3552 92.9101 40.1795 92.8783L39.8426 92.8033C39.4413 92.7167 39.2539 92.5321 39.2539 92.2146C39.2539 91.8135 39.5849 91.5596 40.0623 91.5596C40.3903 91.5596 40.8824 91.6865 40.9351 92.2262Z" fill="#231F20"/>
<path d="M42.282 92.0499V93.611H41.7752V92.0499H41.125V91.6055H42.9293V92.0499H42.282Z" fill="#231F20"/>
<path d="M43.4364 93.2646L43.3016 93.6109H42.7627L43.6297 91.5908H44.113L44.977 93.6109H44.441L44.3034 93.2646H43.4364ZM43.8669 92.1709L43.6033 92.8375H44.1305L43.8669 92.1709Z" fill="#231F20"/>
<path d="M45.7567 93.611H45.25V91.6025H45.7567V93.611Z" fill="#231F20"/>
<path d="M48.0523 93.611H47.6598L46.6845 92.5087V93.611H46.1777V91.6025H46.5644L47.5485 92.7337V91.6025H48.0552V93.611H48.0523Z" fill="#231F20"/>
<path d="M48.9959 93.2646L48.8612 93.6109H48.3223L49.1893 91.5908H49.6725L50.5366 93.6109H50.0006L49.8629 93.2646H48.9959ZM49.4294 92.1709L49.1658 92.8375H49.693L49.4294 92.1709Z" fill="#231F20"/>
<path d="M52.6099 93.0511C52.6099 93.3859 52.3375 93.6081 51.8777 93.6081H50.8115V91.5996H51.8191C52.2584 91.5996 52.5191 91.8074 52.5191 92.1335C52.5191 92.3182 52.4137 92.5115 52.235 92.5721C52.484 92.6298 52.6099 92.8376 52.6099 93.0511ZM51.3182 92.4192H51.74C51.9275 92.4192 52.0329 92.3326 52.0329 92.2027C52.0329 92.0758 51.9333 92.0065 51.74 92.0065H51.3182V92.4192ZM51.8132 93.1954C52.0212 93.1954 52.112 93.1031 52.112 92.9848C52.112 92.8607 52.0066 92.8001 51.822 92.8001H51.3182V93.1954H51.8132Z" fill="#231F20"/>
<path d="M53.4569 93.611H52.9502V91.6025H53.4569V93.611Z" fill="#231F20"/>
<path d="M55.3864 93.611H53.8721V91.6025H54.3788V93.1695H55.3864V93.611Z" fill="#231F20"/>
<path d="M56.1923 93.611H55.6855V91.6025H56.1923V93.611Z" fill="#231F20"/>
<path d="M57.6365 92.0499V93.611H57.1297V92.0499H56.4795V91.6055H58.2838V92.0499H57.6365Z" fill="#231F20"/>
<path d="M59.7448 93.005V93.611H59.2352V93.005L58.4297 91.6025H58.9891L59.4871 92.4769L59.9879 91.6025H60.5474L59.7448 93.005Z" fill="#231F20"/>
<path d="M63.5093 93.611H63.1168L62.1415 92.5087V93.611H61.6348V91.6025H62.0214L63.0055 92.7337V91.6025H63.5122V93.611H63.5093Z" fill="#231F20"/>
<path d="M64.4286 92.4019H65.3307V92.8261H64.4286V93.1752H65.4625V93.6081H63.9219V91.5996H65.4625V92.0325H64.4286V92.4019Z" fill="#231F20"/>
<path d="M66.3153 92.4019H67.2174V92.8261H66.3153V93.1752H67.3493V93.6081H65.8115V91.5996H67.3522V92.0325H66.3182V92.4019H66.3153Z" fill="#231F20"/>
<path d="M68.5174 91.6025C69.1559 91.6025 69.6158 92.0123 69.6158 92.601C69.6158 93.1983 69.153 93.611 68.5174 93.611H67.6973V91.6025H68.5174ZM68.5174 93.1608C68.8484 93.1608 69.1003 92.9184 69.1003 92.601C69.1003 92.2922 68.8454 92.0527 68.5174 92.0527H68.204V93.1637H68.5174V93.1608Z" fill="#231F20"/>
<path d="M71.6051 92.2262H71.0954C71.069 92.0761 70.9724 91.9722 70.7644 91.9722C70.5916 91.9722 70.4745 92.0444 70.4745 92.1713C70.4745 92.281 70.5565 92.3272 70.7088 92.3589L70.9929 92.4253C71.3649 92.5061 71.608 92.6533 71.608 92.9967C71.608 93.3978 71.2711 93.6488 70.7644 93.6488C70.3075 93.6488 69.8916 93.4353 69.8447 92.9418H70.3514C70.3837 93.1179 70.5389 93.2246 70.7791 93.2246C70.9665 93.2246 71.0661 93.1554 71.0661 93.0486C71.0661 92.9793 71.0251 92.9101 70.8494 92.8783L70.5125 92.8033C70.1113 92.7167 69.9238 92.5321 69.9238 92.2146C69.9238 91.8135 70.2548 91.5596 70.7322 91.5596C71.0632 91.5596 71.5553 91.6865 71.6051 92.2262Z" fill="#231F20"/>
<path d="M73.3241 93.0281V93.6081H72.8174V91.5996H73.7107C74.2145 91.5996 74.5513 91.8709 74.5513 92.3066C74.5513 92.5865 74.4049 92.8087 74.1618 92.9299L74.6861 93.6081H74.0739L73.6375 93.0281H73.3241ZM73.699 92.5808C73.8923 92.5808 74.0505 92.474 74.0505 92.3095C74.0505 92.1479 73.8952 92.044 73.699 92.044H73.3241V92.5808H73.699Z" fill="#231F20"/>
<path d="M75.4413 92.4019H76.3434V92.8261H75.4413V93.1752H76.4752V93.6081H74.9346V91.5996H76.4752V92.0325H75.4413V92.4019Z" fill="#231F20"/>
<path d="M78.4791 92.2262H77.9694C77.9431 92.0761 77.8464 91.9722 77.6385 91.9722C77.4657 91.9722 77.3485 92.0444 77.3485 92.1713C77.3485 92.281 77.4305 92.3272 77.5828 92.3589L77.8669 92.4253C78.2389 92.5061 78.482 92.6533 78.482 92.9967C78.482 93.3978 78.1452 93.6488 77.6385 93.6488C77.1786 93.6488 76.7656 93.4353 76.7188 92.9418H77.2255C77.2577 93.1179 77.4129 93.2246 77.6531 93.2246C77.8406 93.2246 77.9401 93.1554 77.9401 93.0486C77.9401 92.9793 77.8991 92.9101 77.7234 92.8783L77.3866 92.8033C76.9853 92.7167 76.7978 92.5321 76.7978 92.2146C76.7978 91.8135 77.1288 91.5596 77.6062 91.5596C77.9372 91.5596 78.4293 91.6865 78.4791 92.2262Z" fill="#231F20"/>
<path d="M79.6678 91.6025C80.1979 91.6025 80.5318 91.8853 80.5318 92.3384C80.5318 92.8088 80.1833 93.1002 79.6268 93.1002H79.3544V93.611H78.8477V91.6025H79.6678ZM79.656 92.6616C79.8816 92.6616 80.0251 92.5346 80.0251 92.3355C80.0251 92.1566 79.8816 92.0412 79.656 92.0412H79.3544V92.6616H79.656Z" fill="#231F20"/>
<path d="M82.9399 92.6071C82.9399 93.19 82.4742 93.6518 81.8591 93.6518C81.244 93.6518 80.7812 93.19 80.7812 92.6071C80.7812 92.0213 81.247 91.5625 81.8591 91.5625C82.4742 91.5625 82.9399 92.0213 82.9399 92.6071ZM82.4244 92.6071C82.4244 92.2897 82.1872 92.0271 81.8591 92.0271C81.5311 92.0271 81.2938 92.2926 81.2938 92.6071C81.2938 92.9217 81.5311 93.1872 81.8591 93.1872C82.1872 93.1872 82.4244 92.9217 82.4244 92.6071Z" fill="#231F20"/>
<path d="M85.1802 93.611H84.7877L83.8095 92.5087V93.611H83.3027V91.6025H83.6894L84.6706 92.7337V91.6025H85.1773V93.611H85.1802Z" fill="#231F20"/>
<path d="M87.2984 92.2262H86.7887C86.7624 92.0761 86.6657 91.9722 86.4578 91.9722C86.285 91.9722 86.1678 92.0444 86.1678 92.1713C86.1678 92.281 86.2498 92.3272 86.4021 92.3589L86.6862 92.4253C87.0582 92.5061 87.3013 92.6533 87.3013 92.9967C87.3013 93.3978 86.9645 93.6488 86.4578 93.6488C85.9979 93.6488 85.5849 93.4353 85.5381 92.9418H86.0448C86.077 93.1179 86.2322 93.2246 86.4724 93.2246C86.6599 93.2246 86.7594 93.1554 86.7594 93.0486C86.7594 92.9793 86.7184 92.9101 86.5427 92.8783L86.2059 92.8033C85.8046 92.7167 85.6172 92.5321 85.6172 92.2146C85.6172 91.8135 85.9481 91.5596 86.4256 91.5596C86.7565 91.5596 87.2486 91.6865 87.2984 92.2262Z" fill="#231F20"/>
<path d="M88.1708 93.611H87.6641V91.6025H88.1708V93.611Z" fill="#231F20"/>
<path d="M90.3882 93.0511C90.3882 93.3859 90.1158 93.6081 89.656 93.6081H88.5898V91.5996H89.5974C90.0367 91.5996 90.2974 91.8074 90.2974 92.1335C90.2974 92.3182 90.192 92.5115 90.0133 92.5721C90.2623 92.6298 90.3882 92.8376 90.3882 93.0511ZM89.0966 92.4192H89.5183C89.7058 92.4192 89.8112 92.3326 89.8112 92.2027C89.8112 92.0758 89.7116 92.0065 89.5183 92.0065H89.0966V92.4192ZM89.5915 93.1954C89.7995 93.1954 89.8903 93.1031 89.8903 92.9848C89.8903 92.8607 89.7849 92.8001 89.6003 92.8001H89.0966V93.1954H89.5915Z" fill="#231F20"/>
<path d="M91.2352 93.611H90.7285V91.6025H91.2352V93.611Z" fill="#231F20"/>
<path d="M93.1676 93.611H91.6533V91.6025H92.16V93.1695H93.1676V93.611Z" fill="#231F20"/>
<path d="M93.9736 93.611H93.4668V91.6025H93.9736V93.611Z" fill="#231F20"/>
<path d="M95.4148 92.0499V93.611H94.908V92.0499H94.2578V91.6055H96.0621V92.0499H95.4148Z" fill="#231F20"/>
<path d="M97.5231 93.005V93.611H97.0135V93.005L96.208 91.6025H96.7674L97.2654 92.4769L97.7662 91.6025H98.3257L97.5231 93.005Z" fill="#231F20"/>
<path d="M101.288 93.611H100.895L99.9169 92.5087V93.611H99.4102V91.6025H99.7968L100.778 92.7337V91.6025H101.285V93.611H101.288Z" fill="#231F20"/>
<path d="M102.21 92.4019H103.112V92.8261H102.21V93.1752H103.244V93.6081H101.703V91.5996H103.244V92.0325H102.21V92.4019Z" fill="#231F20"/>
<path d="M104.097 92.4019H104.999V92.8261H104.097V93.1752H105.13V93.6081H103.59V91.5996H105.13V92.0325H104.097V92.4019Z" fill="#231F20"/>
<path d="M106.299 91.6025C106.937 91.6025 107.397 92.0123 107.397 92.601C107.397 93.1983 106.934 93.611 106.299 93.611H105.479V91.6025H106.299ZM106.299 93.1608C106.63 93.1608 106.882 92.9184 106.882 92.601C106.882 92.2922 106.627 92.0527 106.299 92.0527H105.985V93.1637H106.299V93.1608Z" fill="#231F20"/>
<path d="M109.386 92.2262H108.877C108.85 92.0761 108.754 91.9722 108.546 91.9722C108.373 91.9722 108.256 92.0444 108.256 92.1713C108.256 92.281 108.338 92.3272 108.49 92.3589L108.774 92.4253C109.146 92.5061 109.389 92.6533 109.389 92.9967C109.389 93.3978 109.052 93.6488 108.546 93.6488C108.089 93.6488 107.673 93.4353 107.626 92.9418H108.133C108.165 93.1179 108.32 93.2246 108.56 93.2246C108.748 93.2246 108.847 93.1554 108.847 93.0486C108.847 92.9793 108.806 92.9101 108.631 92.8783L108.294 92.8033C107.893 92.7167 107.705 92.5321 107.705 92.2146C107.705 91.8135 108.036 91.5596 108.513 91.5596C108.844 91.5596 109.334 91.6865 109.386 92.2262Z" fill="#231F20"/>
<path d="M112.019 92.7774H112.538C112.476 93.2968 112.072 93.6518 111.515 93.6518C110.9 93.6518 110.438 93.2131 110.438 92.6071C110.438 92.0011 110.903 91.5625 111.515 91.5625C112.072 91.5625 112.473 91.9174 112.538 92.4369H112.019C111.964 92.1858 111.782 92.03 111.512 92.03C111.179 92.03 110.95 92.2753 110.95 92.6071C110.95 92.9419 111.181 93.1843 111.512 93.1843C111.785 93.1843 111.964 93.0284 112.019 92.7774Z" fill="#231F20"/>
<path d="M113.416 93.611H112.909V91.6025H113.416V93.611Z" fill="#231F20"/>
<path d="M115.077 93.6225H114.567L113.683 91.6025H114.239L114.819 92.9646L115.399 91.6025H115.956L115.077 93.6225Z" fill="#231F20"/>
<path d="M116.714 93.611H116.207V91.6025H116.714V93.611Z" fill="#231F20"/>
<path d="M118.647 93.611H117.133V91.6025H117.64V93.1695H118.647V93.611Z" fill="#231F20"/>
<path d="M120.596 91.6025C121.234 91.6025 121.694 92.0123 121.694 92.601C121.694 93.1983 121.231 93.611 120.596 93.611H119.775V91.6025H120.596ZM120.596 93.1608C120.926 93.1608 121.178 92.9184 121.178 92.601C121.178 92.2922 120.924 92.0527 120.596 92.0527H120.282V93.1637H120.596V93.1608Z" fill="#231F20"/>
<path d="M122.549 92.4019H123.451V92.8261H122.549V93.1752H123.583V93.6081H122.042V91.5996H123.583V92.0325H122.549V92.4019Z" fill="#231F20"/>
<path d="M126.128 93.611H125.622V92.6039L125.171 93.2907V93.2936H124.889V93.2907L124.435 92.5981L124.438 93.611H123.932V91.6025H124.307L125.033 92.6731L125.754 91.6025H126.131V93.611H126.128Z" fill="#231F20"/>
<path d="M128.656 92.6071C128.656 93.19 128.19 93.6518 127.575 93.6518C126.96 93.6518 126.497 93.19 126.497 92.6071C126.497 92.0213 126.963 91.5625 127.575 91.5625C128.193 91.5625 128.656 92.0213 128.656 92.6071ZM128.14 92.6071C128.14 92.2897 127.903 92.0271 127.575 92.0271C127.247 92.0271 127.01 92.2926 127.01 92.6071C127.01 92.9217 127.247 93.1872 127.575 93.1872C127.903 93.1872 128.14 92.9217 128.14 92.6071Z" fill="#231F20"/>
<path d="M130.559 92.7774H131.078C131.013 93.2968 130.612 93.6518 130.055 93.6518C129.44 93.6518 128.978 93.2131 128.978 92.6071C128.978 92.0011 129.443 91.5625 130.055 91.5625C130.612 91.5625 131.013 91.9174 131.078 92.4369H130.559C130.504 92.1858 130.322 92.03 130.052 92.03C129.719 92.03 129.49 92.2753 129.49 92.6071C129.49 92.9419 129.721 93.1843 130.052 93.1843C130.322 93.1843 130.501 93.0284 130.559 92.7774Z" fill="#231F20"/>
<path d="M131.954 93.0281V93.6081H131.447V91.5996H132.341C132.844 91.5996 133.181 91.8709 133.181 92.3066C133.181 92.5865 133.035 92.8087 132.792 92.9299L133.316 93.6081H132.704L132.267 93.0281H131.954ZM132.329 92.5808C132.522 92.5808 132.68 92.474 132.68 92.3095C132.68 92.1479 132.525 92.044 132.329 92.044H131.954V92.5808H132.329Z" fill="#231F20"/>
<path d="M134.136 93.2646L134.001 93.6109H133.462L134.329 91.5908H134.812L135.676 93.6109H135.14L135.003 93.2646H134.136ZM134.566 92.1709L134.303 92.8375H134.83L134.566 92.1709Z" fill="#231F20"/>
<path d="M137.32 92.7774H137.838C137.774 93.2968 137.373 93.6518 136.816 93.6518C136.201 93.6518 135.738 93.2131 135.738 92.6071C135.738 92.0011 136.204 91.5625 136.816 91.5625C137.373 91.5625 137.774 91.9174 137.838 92.4369H137.32C137.264 92.1858 137.083 92.03 136.813 92.03C136.479 92.03 136.251 92.2753 136.251 92.6071C136.251 92.9419 136.482 93.1843 136.813 93.1843C137.083 93.1843 137.261 93.0284 137.32 92.7774Z" fill="#231F20"/>
<path d="M139.162 93.005V93.611H138.652V93.005L137.847 91.6025H138.406L138.904 92.4769L139.405 91.6025H139.964L139.162 93.005Z" fill="#231F20"/>
<path d="M103.346 61.5764H105.961C105.645 64.1967 103.618 65.9858 100.806 65.9858C97.7075 65.9858 95.3643 63.7667 95.3643 60.7136C95.3643 57.6605 97.7075 55.4414 100.806 55.4414C103.618 55.4414 105.645 57.2277 105.961 59.8508H103.346C103.059 58.5839 102.151 57.7961 100.792 57.7961C99.1134 57.7961 97.9506 59.0312 97.9506 60.7165C97.9506 62.3989 99.1134 63.6368 100.792 63.6368C102.151 63.6311 103.059 62.8433 103.346 61.5764Z" fill="white"/>
<path d="M110.39 65.7753H107.836V55.6465H110.39V65.7753Z" fill="white"/>
<path d="M118.779 65.836H116.21L111.749 55.6494H114.561L117.493 62.5145L120.425 55.6494H123.237L118.779 65.836Z" fill="white"/>
<path d="M127.05 65.7753H124.496V55.6465H127.05V65.7753Z" fill="white"/>
<path d="M136.801 65.7753H129.168V55.6465H131.722V63.5562H136.801V65.7753Z" fill="white"/>
<path d="M41.7549 74.6611C44.9739 74.6611 47.3024 76.7302 47.3024 79.6938C47.3024 82.7007 44.9739 84.7871 41.7549 84.7871H37.6133V74.6582H41.7549V74.6611ZM41.7549 82.5247C43.4186 82.5247 44.7015 81.304 44.7015 79.6938C44.7015 78.1297 43.4156 76.9235 41.7549 76.9235H40.1674V82.5247H41.7549Z" fill="white"/>
<path d="M51.309 78.6982H55.8577V80.8423H51.309V82.5997H56.5255V84.79H48.7549V74.6611H56.5255V76.8514H51.309V78.6982Z" fill="white"/>
<path d="M69.0736 84.79H66.5195V79.7111L64.2378 83.1826V83.197H62.8172V83.1826L60.5209 79.6823L60.5355 84.79H57.9814V74.6611H59.8707L63.529 80.0661L67.1727 74.6611H69.0765V84.79H69.0736Z" fill="white"/>
<path d="M81.5453 79.7253C81.5453 82.6745 79.2021 84.9975 76.0886 84.9975C72.9897 84.9975 70.6465 82.6745 70.6465 79.7253C70.6465 76.7761 72.9897 74.4531 76.0886 74.4531C79.2021 74.4531 81.5453 76.7761 81.5453 79.7253ZM78.9443 79.7253C78.9443 78.1324 77.7493 76.7906 76.0886 76.7906C74.4278 76.7906 73.2328 78.1324 73.2328 79.7253C73.2328 81.3182 74.4278 82.6601 76.0886 82.6601C77.7493 82.6601 78.9443 81.3182 78.9443 79.7253Z" fill="white"/>
<path d="M90.8419 80.5882H93.4575C93.1412 83.2084 91.1143 84.9975 88.3024 84.9975C85.2036 84.9975 82.8604 82.7784 82.8604 79.7253C82.8604 76.6722 85.2036 74.4531 88.3024 74.4531C91.1143 74.4531 93.1412 76.2394 93.4575 78.8625H90.8419C90.5548 77.5957 89.6468 76.8079 88.2878 76.8079C86.6095 76.8079 85.4467 78.043 85.4467 79.7282C85.4467 81.4106 86.6095 82.6486 88.2878 82.6486C89.6498 82.6428 90.5548 81.855 90.8419 80.5882Z" fill="white"/>
<path d="M97.5844 81.8552V84.79H95.0303V74.6611H99.5351C102.074 74.6611 103.782 76.0318 103.782 78.2192C103.782 79.6332 103.041 80.75 101.817 81.3617L104.462 84.7871H101.377L99.1689 81.8523H97.5844V81.8552ZM99.4765 79.5899C100.458 79.5899 101.246 79.0532 101.246 78.2192C101.246 77.3997 100.461 76.8774 99.4765 76.8774H97.5873V79.587H99.4765V79.5899Z" fill="white"/>
<path d="M108.305 83.0471L107.625 84.7901H104.904L109.274 74.6035H111.708L116.061 84.7901H113.355L112.66 83.0471H108.305ZM110.481 77.5354L109.151 80.9001H111.811L110.481 77.5354Z" fill="white"/>
<path d="M124.071 80.5882H126.687C126.371 83.2084 124.344 84.9975 121.532 84.9975C118.433 84.9975 116.09 82.7784 116.09 79.7253C116.09 76.6722 118.433 74.4531 121.532 74.4531C124.344 74.4531 126.371 76.2394 126.687 78.8625H124.071C123.784 77.5957 122.876 76.8079 121.517 76.8079C119.839 76.8079 118.676 78.043 118.676 79.7282C118.676 81.4106 119.839 82.6486 121.517 82.6486C122.876 82.6428 123.784 81.855 124.071 80.5882Z" fill="white"/>
<path d="M133.067 81.7369V84.79H130.498V81.7369L126.433 74.6611H129.259L131.769 79.0705L134.294 74.6611H137.121L133.067 81.7369Z" fill="white"/>
</svg>
