<?xml version="1.0" encoding="UTF-8" standalone="no"?>
<svg
   width="235"
   height="173"
   viewBox="0 0 167.85714 123.57143"
   fill="none"
   version="1.1"
   id="svg148"
   sodipodi:docname="logo-big.svg"
   inkscape:version="1.2.2 (1:1.2.2+202212051552+b0a8486541)"
   xmlns:inkscape="http://www.inkscape.org/namespaces/inkscape"
   xmlns:sodipodi="http://sodipodi.sourceforge.net/DTD/sodipodi-0.dtd"
   xmlns="http://www.w3.org/2000/svg"
   xmlns:svg="http://www.w3.org/2000/svg">
  <defs
     id="defs152" />
  <sodipodi:namedview
     id="namedview150"
     pagecolor="#505050"
     bordercolor="#eeeeee"
     borderopacity="1"
     inkscape:showpageshadow="0"
     inkscape:pageopacity="0"
     inkscape:pagecheckerboard="0"
     inkscape:deskcolor="#505050"
     showgrid="false"
     inkscape:zoom="3.2208101"
     inkscape:cx="74.825896"
     inkscape:cy="81.811716"
     inkscape:window-width="1920"
     inkscape:window-height="954"
     inkscape:window-x="0"
     inkscape:window-y="27"
     inkscape:window-maximized="1"
     inkscape:current-layer="svg148" />
  <path
     d="M 105.75532,61.852503 H 0.45749317 v 15.8022 H 105.75532 Z"
     fill="#0082ca"
     id="path2" />
  <path
     d="M 105.75432,43.115203 H 57.760196 v 15.8022 h 47.994124 z"
     fill="#231f20"
     id="path4" />
  <path
     d="m 113.93532,61.685303 c 0,-10.2818 6.546,-19.0804 15.746,-22.5779 h -5.834 c -7.548,4.7672 -12.557,13.1069 -12.557,22.5779 0,9.9009 5.477,18.5638 13.605,23.204 h 6.664 c -10.175,-2.955 -17.624,-12.2354 -17.624,-23.204 z"
     fill="#231f20"
     id="path6" />
  <path
     d="m 163.04632,61.685303 c 0,10.9686 -7.449,20.249 -17.621,23.204 h 6.663 c 8.125,-4.6402 13.606,-13.3031 13.606,-23.204 0,-9.471 -5.012,-17.8078 -12.56,-22.5779 h -5.834 c 9.2,3.4975 15.746,12.2961 15.746,22.5779 z"
     fill="#231f20"
     id="path8" />
  <path
     d="m 131.82032,84.889303 h 3.813 c -1.569,-1.0879 -3.057,-3.0444 -4.296,-5.7166 -2.156,-4.6489 -3.342,-10.8589 -3.342,-17.4874 0,-6.6285 1.186,-12.8386 3.342,-17.4875 1.031,-2.222 2.232,-3.9447 3.511,-5.0904 h -3.535 c -3.614,4.7268 -5.966,12.9886 -5.966,22.5779 0.003,10.0307 2.571,18.6071 6.473,23.204 z"
     fill="#0082ca"
     id="path10" />
  <path
     d="m 145.66832,39.110403 h -3.535 c 1.28,1.1456 2.481,2.8684 3.512,5.0904 2.155,4.6488 3.342,10.8589 3.342,17.4874 0,6.6284 -1.187,12.8385 -3.342,17.4874 -1.239,2.6721 -2.727,4.6287 -4.297,5.7166 h 3.813 c 3.902,-4.597 6.473,-13.1762 6.473,-23.204 -0.002,-9.5921 -2.352,-17.8539 -5.966,-22.5778 z"
     fill="#231f20"
     id="path12" />
  <path
     d="m 139.81632,39.110403 h -2.648 v 45.7818 h 2.648 z"
     fill="#0082ca"
     id="path14" />
  <path
     d="m 2.3407936,82.226203 h -0.5096 c -0.0264,-0.1501 -0.123,-0.254 -0.331,-0.254 -0.1728004,0 -0.2900004,0.0722 -0.2900004,0.1991 0,0.1097 0.0821,0.1559 0.2344004,0.1876 l 0.2841,0.0664 c 0.372,0.0808 0.6151,0.228 0.6151,0.5714 0,0.4011 -0.3369,0.6521 -0.8436,0.6521 -0.4569004,0 -0.87280043,-0.2135 -0.91970043,-0.707 H 1.0871932 c 0.0323,0.1761 0.1875,0.2828 0.4277004,0.2828 0.1874,0 0.287,-0.0692 0.287,-0.176 0,-0.0693 -0.041,-0.1385 -0.2167,-0.1703 l -0.3369004,-0.075 c -0.40120003,-0.0866 -0.58870003,-0.2712 -0.58870003,-0.5887 0,-0.4011 0.331,-0.655 0.80840043,-0.655 0.3281,0 0.8201,0.1269 0.8728,0.6666 z"
     fill="#231f20"
     id="path16" />
  <path
     d="m 4.5868944,82.673103 c 0,0.6234 -0.3661004,0.9812 -0.9490004,0.9812 -0.5799,0 -0.9461004,-0.3578 -0.9461004,-0.9812 v -1.0706 H 3.201494 v 1.0793 c 0,0.3059 0.1699,0.505 0.4364,0.505 0.2665,0 0.4394,-0.1991 0.4394,-0.505 v -1.0793 h 0.5096004 z"
     fill="#231f20"
     id="path18" />
  <path
     d="m 6.6493948,82.226203 h -0.5096 c -0.0264,-0.1501 -0.123,-0.254 -0.331,-0.254 -0.1728004,0 -0.2900004,0.0722 -0.2900004,0.1991 0,0.1097 0.082,0.1559 0.2344004,0.1876 l 0.2841,0.0664 c 0.372,0.0808 0.6151,0.228 0.6151,0.5714 0,0.4011 -0.3369,0.6521 -0.8436,0.6521 -0.4569004,0 -0.8728004,-0.2135 -0.9197004,-0.707 h 0.5067 c 0.0322,0.1761 0.1875,0.2828 0.4277004,0.2828 0.1874,0 0.287,-0.0692 0.287,-0.176 0,-0.0693 -0.041,-0.1385 -0.2167,-0.1703 l -0.3369004,-0.075 c -0.4013,-0.0866 -0.5887,-0.2712 -0.5887,-0.5887 0,-0.4011 0.331,-0.655 0.8084004,-0.655 0.328,0 0.8201,0.1269 0.8728,0.6666 z"
     fill="#231f20"
     id="path20" />
  <path
     d="m 7.9962952,82.049903 v 1.5611 h -0.5068 v -1.5611 H 6.8392948 v -0.4444 h 1.8043008 v 0.4444 z"
     fill="#231f20"
     id="path22" />
  <path
     d="m 9.1506956,83.264603 -0.1348,0.3463 H 8.4769952 l 0.8670004,-2.0201 h 0.4833 l 0.8640004,2.0201 h -0.536 l -0.1376,-0.3463 z m 0.4305,-1.0937 -0.2636,0.6666 h 0.5272 z"
     fill="#231f20"
     id="path24" />
  <path
     d="m 11.470996,83.611003 h -0.5067 v -2.0085 h 0.5067 z"
     fill="#231f20"
     id="path26" />
  <path
     d="m 13.766596,83.611003 h -0.3925 l -0.9753,-1.1023 v 1.1023 h -0.5068 v -2.0085 h 0.3867 l 0.9841,1.1312 v -1.1312 h 0.5067 v 2.0085 z"
     fill="#231f20"
     id="path28" />
  <path
     d="m 14.710196,83.264603 -0.1347,0.3463 h -0.5389 l 0.867,-2.0201 h 0.4832 l 0.8641,2.0201 h -0.536 l -0.1377,-0.3463 z m 0.4335,-1.0937 -0.2636,0.6666 h 0.5272 z"
     fill="#231f20"
     id="path30" />
  <path
     d="m 18.324196,83.051103 c 0,0.3348 -0.2724,0.557 -0.7322,0.557 h -1.0662 v -2.0085 h 1.0076 c 0.4393,0 0.7,0.2078 0.7,0.5339 0,0.1847 -0.1054,0.378 -0.2841,0.4386 0.249,0.0577 0.3749,0.2655 0.3749,0.479 z m -1.2917,-0.6319 h 0.4218 c 0.1875,0 0.2929,-0.0866 0.2929,-0.2165 0,-0.1269 -0.0996,-0.1962 -0.2929,-0.1962 h -0.4218 z m 0.495,0.7762 c 0.208,0 0.2988,-0.0923 0.2988,-0.2106 0,-0.1241 -0.1054,-0.1847 -0.29,-0.1847 h -0.5038 v 0.3953 z"
     fill="#231f20"
     id="path32" />
  <path
     d="m 19.171196,83.611003 h -0.5067 v -2.0085 h 0.5067 z"
     fill="#231f20"
     id="path34" />
  <path
     d="m 21.100696,83.611003 h -1.5143 v -2.0085 h 0.5067 v 1.567 h 1.0076 z"
     fill="#231f20"
     id="path36" />
  <path
     d="m 21.906596,83.611003 h -0.5068 v -2.0085 h 0.5068 z"
     fill="#231f20"
     id="path38" />
  <path
     d="m 23.350796,82.049903 v 1.5611 h -0.5068 v -1.5611 h -0.6502 v -0.4444 h 1.8043 v 0.4444 z"
     fill="#231f20"
     id="path40" />
  <path
     d="m 25.459096,83.005003 v 0.606 h -0.5096 v -0.606 l -0.8055,-1.4025 h 0.5594 l 0.498,0.8744 0.5008,-0.8744 h 0.5595 z"
     fill="#231f20"
     id="path42" />
  <path
     d="m 29.223596,83.611003 h -0.3925 l -0.9753,-1.1023 v 1.1023 h -0.5067 v -2.0085 h 0.3866 l 0.9841,1.1312 v -1.1312 h 0.5067 v 2.0085 z"
     fill="#231f20"
     id="path44" />
  <path
     d="m 30.142896,82.401903 h 0.9021 v 0.4242 h -0.9021 v 0.3491 h 1.0339 v 0.4329 h -1.5406 v -2.0085 h 1.5406 v 0.4329 h -1.0339 z"
     fill="#231f20"
     id="path46" />
  <path
     d="m 32.029596,82.401903 h 0.9021 v 0.4242 h -0.9021 v 0.3491 h 1.034 v 0.4329 h -1.5378 v -2.0085 h 1.5407 v 0.4329 h -1.034 v 0.3694 z"
     fill="#231f20"
     id="path48" />
  <path
     d="m 34.231696,81.602503 c 0.6385,0 1.0984,0.4098 1.0984,0.9985 0,0.5973 -0.4628,1.01 -1.0984,1.01 h -0.8201 v -2.0085 z m 0,1.5583 c 0.331,0 0.5829,-0.2424 0.5829,-0.5598 0,-0.3088 -0.2549,-0.5483 -0.5829,-0.5483 h -0.3134 v 1.111 h 0.3134 z"
     fill="#231f20"
     id="path50" />
  <path
     d="m 37.319396,82.226203 h -0.5097 c -0.0264,-0.1501 -0.123,-0.254 -0.331,-0.254 -0.1728,0 -0.2899,0.0722 -0.2899,0.1991 0,0.1097 0.082,0.1559 0.2343,0.1876 l 0.2841,0.0664 c 0.372,0.0808 0.6151,0.228 0.6151,0.5714 0,0.4011 -0.3369,0.6521 -0.8436,0.6521 -0.4569,0 -0.8728,-0.2135 -0.9197,-0.707 h 0.5067 c 0.0323,0.1761 0.1875,0.2828 0.4277,0.2828 0.1874,0 0.287,-0.0692 0.287,-0.176 0,-0.0693 -0.041,-0.1385 -0.2167,-0.1703 l -0.3369,-0.075 c -0.4012,-0.0866 -0.5887,-0.2712 -0.5887,-0.5887 0,-0.4011 0.331,-0.655 0.8084,-0.655 0.331,0 0.8231,0.1269 0.8729,0.6666 z"
     fill="#231f20"
     id="path52" />
  <path
     d="m 39.038396,83.028103 v 0.58 h -0.5067 v -2.0085 h 0.8933 c 0.5038,0 0.8406,0.2713 0.8406,0.707 0,0.2799 -0.1464,0.5021 -0.3895,0.6233 l 0.5243,0.6782 h -0.6122 l -0.4364,-0.58 z m 0.3749,-0.4473 c 0.1933,0 0.3515,-0.1068 0.3515,-0.2713 0,-0.1616 -0.1553,-0.2655 -0.3515,-0.2655 h -0.3749 v 0.5368 z"
     fill="#231f20"
     id="path54" />
  <path
     d="m 41.155596,82.401903 h 0.9021 v 0.4242 h -0.9021 v 0.3491 h 1.0339 v 0.4329 h -1.5406 v -2.0085 h 1.5406 v 0.4329 h -1.0339 z"
     fill="#231f20"
     id="path56" />
  <path
     d="m 44.193396,82.226203 h -0.5097 c -0.0263,-0.1501 -0.123,-0.254 -0.3309,-0.254 -0.1728,0 -0.29,0.0722 -0.29,0.1991 0,0.1097 0.082,0.1559 0.2343,0.1876 l 0.2841,0.0664 c 0.372,0.0808 0.6151,0.228 0.6151,0.5714 0,0.4011 -0.3368,0.6521 -0.8435,0.6521 -0.4599,0 -0.8729,-0.2135 -0.9197,-0.707 h 0.5067 c 0.0322,0.1761 0.1874,0.2828 0.4276,0.2828 0.1875,0 0.287,-0.0692 0.287,-0.176 0,-0.0693 -0.041,-0.1385 -0.2167,-0.1703 l -0.3368,-0.075 c -0.4013,-0.0866 -0.5888,-0.2712 -0.5888,-0.5887 0,-0.4011 0.331,-0.655 0.8084,-0.655 0.331,0 0.8231,0.1269 0.8729,0.6666 z"
     fill="#231f20"
     id="path58" />
  <path
     d="m 45.382096,81.602503 c 0.5301,0 0.864,0.2828 0.864,0.7359 0,0.4704 -0.3485,0.7618 -0.905,0.7618 h -0.2724 v 0.5108 h -0.5067 v -2.0085 z m -0.0118,1.0591 c 0.2256,0 0.3691,-0.127 0.3691,-0.3261 0,-0.1789 -0.1435,-0.2943 -0.3691,-0.2943 h -0.3016 v 0.6204 z"
     fill="#231f20"
     id="path60" />
  <path
     d="m 48.654196,82.607103 c 0,0.5829 -0.4657,1.0447 -1.0808,1.0447 -0.6151,0 -1.0779,-0.4618 -1.0779,-1.0447 0,-0.5858 0.4658,-1.0446 1.0779,-1.0446 0.6151,0 1.0808,0.4588 1.0808,1.0446 z m -0.5155,0 c 0,-0.3174 -0.2372,-0.58 -0.5653,-0.58 -0.328,0 -0.5653,0.2655 -0.5653,0.58 0,0.3146 0.2373,0.5801 0.5653,0.5801 0.3281,0 0.5653,-0.2655 0.5653,-0.5801 z"
     fill="#231f20"
     id="path62" />
  <path
     d="m 50.894496,83.611003 h -0.3925 l -0.9782,-1.1023 v 1.1023 h -0.5068 v -2.0085 h 0.3867 l 0.9812,1.1312 v -1.1312 h 0.5067 v 2.0085 z"
     fill="#231f20"
     id="path64" />
  <path
     d="m 53.012696,82.226203 h -0.5097 c -0.0263,-0.1501 -0.123,-0.254 -0.3309,-0.254 -0.1728,0 -0.29,0.0722 -0.29,0.1991 0,0.1097 0.082,0.1559 0.2343,0.1876 l 0.2841,0.0664 c 0.372,0.0808 0.6151,0.228 0.6151,0.5714 0,0.4011 -0.3368,0.6521 -0.8435,0.6521 -0.4599,0 -0.8729,-0.2135 -0.9197,-0.707 h 0.5067 c 0.0322,0.1761 0.1874,0.2828 0.4276,0.2828 0.1875,0 0.287,-0.0692 0.287,-0.176 0,-0.0693 -0.041,-0.1385 -0.2167,-0.1703 l -0.3368,-0.075 c -0.4013,-0.0866 -0.5887,-0.2712 -0.5887,-0.5887 0,-0.4011 0.3309,-0.655 0.8084,-0.655 0.3309,0 0.823,0.1269 0.8728,0.6666 z"
     fill="#231f20"
     id="path66" />
  <path
     d="m 53.885096,83.611003 h -0.5067 v -2.0085 h 0.5067 z"
     fill="#231f20"
     id="path68" />
  <path
     d="m 56.102496,83.051103 c 0,0.3348 -0.2724,0.557 -0.7322,0.557 h -1.0662 v -2.0085 h 1.0076 c 0.4393,0 0.7,0.2078 0.7,0.5339 0,0.1847 -0.1054,0.378 -0.2841,0.4386 0.249,0.0577 0.3749,0.2655 0.3749,0.479 z m -1.2916,-0.6319 h 0.4217 c 0.1875,0 0.2929,-0.0866 0.2929,-0.2165 0,-0.1269 -0.0996,-0.1962 -0.2929,-0.1962 h -0.4217 z m 0.4949,0.7762 c 0.208,0 0.2988,-0.0923 0.2988,-0.2106 0,-0.1241 -0.1054,-0.1847 -0.29,-0.1847 h -0.5037 v 0.3953 z"
     fill="#231f20"
     id="path70" />
  <path
     d="m 56.949496,83.611003 h -0.5067 v -2.0085 h 0.5067 z"
     fill="#231f20"
     id="path72" />
  <path
     d="m 58.881896,83.611003 h -1.5143 v -2.0085 h 0.5067 v 1.567 h 1.0076 z"
     fill="#231f20"
     id="path74" />
  <path
     d="m 59.687896,83.611003 h -0.5068 v -2.0085 h 0.5068 z"
     fill="#231f20"
     id="path76" />
  <path
     d="m 61.129096,82.049903 v 1.5611 h -0.5068 v -1.5611 h -0.6502 v -0.4444 h 1.8043 v 0.4444 z"
     fill="#231f20"
     id="path78" />
  <path
     d="m 63.237396,83.005003 v 0.606 h -0.5096 v -0.606 l -0.8055,-1.4025 h 0.5594 l 0.498,0.8744 0.5008,-0.8744 h 0.5595 z"
     fill="#231f20"
     id="path80" />
  <path
     d="m 67.002296,83.611003 h -0.393 l -0.9781,-1.1023 v 1.1023 h -0.5067 v -2.0085 h 0.3866 l 0.9812,1.1312 v -1.1312 h 0.507 v 2.0085 z"
     fill="#231f20"
     id="path82" />
  <path
     d="m 67.924297,82.401903 h 0.902001 v 0.4242 h -0.902001 v 0.3491 h 1.034001 v 0.4329 h -1.541001 v -2.0085 h 1.541001 v 0.4329 h -1.034001 z"
     fill="#231f20"
     id="path84" />
  <path
     d="m 69.811298,82.401903 h 0.902001 v 0.4242 h -0.902001 v 0.3491 h 1.033001 v 0.4329 h -1.540001 v -2.0085 h 1.540001 v 0.4329 h -1.033001 z"
     fill="#231f20"
     id="path86" />
  <path
     d="m 72.0133,81.602503 c 0.638,0 1.098001,0.4098 1.098001,0.9985 0,0.5973 -0.463001,1.01 -1.098001,1.01 h -0.820001 v -2.0085 z m 0,1.5583 c 0.331,0 0.583,-0.2424 0.583,-0.5598 0,-0.3088 -0.255,-0.5483 -0.583,-0.5483 h -0.314 v 1.111 h 0.314 z"
     fill="#231f20"
     id="path88" />
  <path
     d="m 75.100302,82.226203 h -0.509 c -0.027,-0.1501 -0.123,-0.254 -0.331001,-0.254 -0.173,0 -0.29,0.0722 -0.29,0.1991 0,0.1097 0.082,0.1559 0.234,0.1876 l 0.284001,0.0664 c 0.372,0.0808 0.615,0.228 0.615,0.5714 0,0.4011 -0.337,0.6521 -0.843001,0.6521 -0.457,0 -0.873,-0.2135 -0.92,-0.707 h 0.507 c 0.032,0.1761 0.187,0.2828 0.427,0.2828 0.188001,0 0.287001,-0.0692 0.287001,-0.176 0,-0.0693 -0.041,-0.1385 -0.216,-0.1703 l -0.337001,-0.075 c -0.401,-0.0866 -0.589,-0.2712 -0.589,-0.5887 0,-0.4011 0.331,-0.655 0.808,-0.655 0.331001,0 0.821001,0.1269 0.873001,0.6666 z"
     fill="#231f20"
     id="path90" />
  <path
     d="m 77.733304,82.777403 h 0.519 c -0.062,0.5194 -0.466,0.8744 -1.023,0.8744 -0.615001,0 -1.077001,-0.4387 -1.077001,-1.0447 0,-0.606 0.465,-1.0446 1.077001,-1.0446 0.557,0 0.958,0.3549 1.023,0.8744 h -0.519 c -0.055,-0.2511 -0.237,-0.4069 -0.507,-0.4069 -0.333001,0 -0.562001,0.2453 -0.562001,0.5771 0,0.3348 0.231,0.5772 0.562001,0.5772 0.273,0 0.452,-0.1559 0.507,-0.4069 z"
     fill="#231f20"
     id="path92" />
  <path
     d="m 79.130305,83.611003 h -0.507 v -2.0085 h 0.507 z"
     fill="#231f20"
     id="path94" />
  <path
     d="m 80.791306,83.622503 h -0.51 l -0.884001,-2.02 h 0.556 l 0.580001,1.3621 0.58,-1.3621 h 0.557001 z"
     fill="#231f20"
     id="path96" />
  <path
     d="m 82.428307,83.611003 h -0.507 v -2.0085 h 0.507 z"
     fill="#231f20"
     id="path98" />
  <path
     d="m 84.361309,83.611003 h -1.514002 v -2.0085 h 0.507001 v 1.567 h 1.007001 z"
     fill="#231f20"
     id="path100" />
  <path
     d="m 86.31031,81.602503 c 0.638,0 1.098001,0.4098 1.098001,0.9985 0,0.5973 -0.463001,1.01 -1.098001,1.01 h -0.821001 v -2.0085 z m 0,1.5583 c 0.33,0 0.582,-0.2424 0.582,-0.5598 0,-0.3088 -0.254,-0.5483 -0.582,-0.5483 h -0.314 v 1.111 h 0.314 z"
     fill="#231f20"
     id="path102" />
  <path
     d="m 88.263311,82.401903 h 0.902001 v 0.4242 h -0.902001 v 0.3491 h 1.034001 v 0.4329 h -1.541001 v -2.0085 h 1.541001 v 0.4329 h -1.034001 z"
     fill="#231f20"
     id="path104" />
  <path
     d="m 91.842314,83.611003 h -0.506001 v -1.0071 l -0.451,0.6868 v 0.0029 h -0.282 v -0.0029 l -0.454,-0.6926 0.003,1.0129 h -0.506001 v -2.0085 h 0.375001 l 0.726,1.0706 0.721001,-1.0706 h 0.377 v 2.0085 z"
     fill="#231f20"
     id="path106" />
  <path
     d="m 94.370316,82.607103 c 0,0.5829 -0.466001,1.0447 -1.081001,1.0447 -0.615001,0 -1.078001,-0.4618 -1.078001,-1.0447 0,-0.5858 0.466,-1.0446 1.078001,-1.0446 0.618,0 1.081001,0.4588 1.081001,1.0446 z m -0.516001,0 c 0,-0.3174 -0.237,-0.58 -0.565,-0.58 -0.328,0 -0.565001,0.2655 -0.565001,0.58 0,0.3146 0.237001,0.5801 0.565001,0.5801 0.328,0 0.565,-0.2655 0.565,-0.5801 z"
     fill="#231f20"
     id="path108" />
  <path
     d="m 96.273317,82.777403 h 0.519 c -0.065,0.5194 -0.466,0.8744 -1.023,0.8744 -0.615001,0 -1.077001,-0.4387 -1.077001,-1.0447 0,-0.606 0.465,-1.0446 1.077001,-1.0446 0.557,0 0.958,0.3549 1.023,0.8744 h -0.519 c -0.055,-0.2511 -0.237,-0.4069 -0.507,-0.4069 -0.333001,0 -0.562001,0.2453 -0.562001,0.5771 0,0.3348 0.231,0.5772 0.562001,0.5772 0.27,0 0.449,-0.1559 0.507,-0.4069 z"
     fill="#231f20"
     id="path110" />
  <path
     d="m 97.668318,83.028103 v 0.58 h -0.507 v -2.0085 h 0.894 c 0.503,0 0.840001,0.2713 0.840001,0.707 0,0.2799 -0.146,0.5021 -0.389001,0.6233 l 0.524001,0.6782 h -0.612001 l -0.437,-0.58 z m 0.375,-0.4473 c 0.193,0 0.351,-0.1068 0.351,-0.2713 0,-0.1616 -0.155,-0.2655 -0.351,-0.2655 h -0.375 v 0.5368 z"
     fill="#231f20"
     id="path112" />
  <path
     d="m 99.850319,83.264603 -0.135,0.3463 h -0.539 l 0.867001,-2.0201 h 0.483 l 0.864,2.0201 h -0.536 l -0.137,-0.3463 z m 0.430001,-1.0937 -0.263,0.6666 h 0.527 z"
     fill="#231f20"
     id="path114" />
  <path
     d="m 103.03432,82.777403 h 0.518 c -0.064,0.5194 -0.465,0.8744 -1.022,0.8744 -0.615,0 -1.078,-0.4387 -1.078,-1.0447 0,-0.606 0.466,-1.0446 1.078,-1.0446 0.557,0 0.958,0.3549 1.022,0.8744 h -0.518 c -0.056,-0.2511 -0.237,-0.4069 -0.507,-0.4069 -0.334,0 -0.562,0.2453 -0.562,0.5771 0,0.3348 0.231,0.5772 0.562,0.5772 0.27,0 0.448,-0.1559 0.507,-0.4069 z"
     fill="#231f20"
     id="path116" />
  <path
     d="m 104.87632,83.005003 v 0.606 h -0.51 v -0.606 l -0.805,-1.4025 h 0.559 l 0.498,0.8744 0.501,-0.8744 h 0.559 z"
     fill="#231f20"
     id="path118" />
  <path
     d="M 69.060298,51.576403 H 71.6753 c -0.316001,2.6203 -2.343002,4.4094 -5.155004,4.4094 -3.0985,0 -5.4417,-2.2191 -5.4417,-5.2722 0,-3.0531 2.3432,-5.2722 5.4417,-5.2722 2.812002,0 4.839003,1.7863 5.155004,4.4094 h -2.615002 c -0.287,-1.2669 -1.195001,-2.0547 -2.554002,-2.0547 -1.6786,0 -2.8414,1.2351 -2.8414,2.9204 0,1.6824 1.1628,2.9203 2.8414,2.9203 1.359001,-0.0057 2.267002,-0.7935 2.554002,-2.0604 z"
     fill="#ffffff"
     id="path120" />
  <path
     d="m 76.104303,55.775303 h -2.554002 v -10.1288 h 2.554002 z"
     fill="#ffffff"
     id="path122" />
  <path
     d="m 84.493309,55.836003 h -2.569002 l -4.461003,-10.1866 h 2.812002 l 2.932002,6.8651 2.932002,-6.8651 h 2.812002 z"
     fill="#ffffff"
     id="path124" />
  <path
     d="m 92.764314,55.775303 h -2.554001 v -10.1288 h 2.554001 z"
     fill="#ffffff"
     id="path126" />
  <path
     d="m 102.51532,55.775303 h -7.633004 v -10.1288 h 2.554002 v 7.9097 h 5.079002 z"
     fill="#ffffff"
     id="path128" />
  <path
     d="m 7.4691952,64.661103 c 3.2190008,0 5.5475008,2.0691 5.5475008,5.0327 0,3.0069 -2.3285,5.0933 -5.5475008,5.0933 H 3.327594 v -10.1289 h 4.1416012 z m 0,7.8636 c 1.6637004,0 2.9466008,-1.2207 2.9466008,-2.8309 0,-1.5641 -1.2859004,-2.7703 -2.9466008,-2.7703 H 5.8816948 v 5.6012 z"
     fill="#ffffff"
     id="path130" />
  <path
     d="m 17.023296,68.698203 h 4.5487 v 2.1441 h -4.5487 v 1.7574 h 5.2165 v 2.1903 h -7.7706 v -10.1289 h 7.7706 v 2.1903 h -5.2165 z"
     fill="#ffffff"
     id="path132" />
  <path
     d="m 34.787896,74.790003 h -2.5541 v -5.0789 l -2.2817,3.4715 v 0.0144 h -1.4206 v -0.0144 l -2.2963,-3.5003 0.0146,5.1077 h -2.5541 v -10.1289 h 1.8893 l 3.6583,5.405 3.6437,-5.405 h 1.9038 v 10.1289 z"
     fill="#ffffff"
     id="path134" />
  <path
     d="m 47.259596,69.725303 c 0,2.9492 -2.3432,5.2722 -5.4567,5.2722 -3.0989,0 -5.4421,-2.323 -5.4421,-5.2722 0,-2.9492 2.3432,-5.2722 5.4421,-5.2722 3.1135,0 5.4567,2.323 5.4567,5.2722 z m -2.601,0 c 0,-1.5929 -1.195,-2.9347 -2.8557,-2.9347 -1.6608,0 -2.8558,1.3418 -2.8558,2.9347 0,1.5929 1.195,2.9348 2.8558,2.9348 1.6607,0 2.8557,-1.3419 2.8557,-2.9348 z"
     fill="#ffffff"
     id="path136" />
  <path
     d="m 56.556196,70.588203 h 2.6156 c -0.3163,2.6202 -2.3432,4.4093 -5.1551,4.4093 -3.0988,0 -5.442,-2.2191 -5.442,-5.2722 0,-3.0531 2.3432,-5.2722 5.442,-5.2722 2.8119,0 4.8388,1.7863 5.1551,4.4094 h -2.6156 c -0.2871,-1.2668 -1.1951,-2.0546 -2.5541,-2.0546 -1.6783,0 -2.8411,1.2351 -2.8411,2.9203 0,1.6824 1.1628,2.9204 2.8411,2.9204 1.362,-0.0058 2.267,-0.7936 2.5541,-2.0604 z"
     fill="#ffffff"
     id="path138" />
  <path
     d="m 63.298696,71.855203 v 2.9348 h -2.5541 v -10.1289 h 4.5048 c 2.538901,0 4.246902,1.3707 4.246902,3.5581 0,1.414 -0.741,2.5308 -1.965001,3.1425 l 2.645002,3.4254 h -3.085003 l -2.2081,-2.9348 h -1.5845 z m 1.8921,-2.2653 c 0.9815,0 1.7695,-0.5367 1.7695,-1.3707 0,-0.8195 -0.785,-1.3418 -1.7695,-1.3418 h -1.8892 v 2.7096 h 1.8892 z"
     fill="#ffffff"
     id="path140" />
  <path
     d="m 74.019301,73.047103 -0.68,1.743 h -2.721002 l 4.370003,-10.1866 h 2.434002 l 4.353003,10.1866 h -2.706002 l -0.695001,-1.743 z m 2.176002,-5.5117 -1.330001,3.3647 h 2.660002 z"
     fill="#ffffff"
     id="path142" />
  <path
     d="m 89.785312,70.588203 h 2.616002 c -0.316,2.6202 -2.343001,4.4093 -5.155003,4.4093 -3.099003,0 -5.442004,-2.2191 -5.442004,-5.2722 0,-3.0531 2.343001,-5.2722 5.442004,-5.2722 2.812002,0 4.839003,1.7863 5.155003,4.4094 h -2.616002 c -0.287,-1.2668 -1.195,-2.0546 -2.554001,-2.0546 -1.678002,0 -2.841002,1.2351 -2.841002,2.9203 0,1.6824 1.163,2.9204 2.841002,2.9204 1.359001,-0.0058 2.267001,-0.7936 2.554001,-2.0604 z"
     fill="#ffffff"
     id="path144" />
  <path
     d="m 98.781319,71.736903 v 3.0531 h -2.569002 v -3.0531 l -4.065003,-7.0758 h 2.826002 l 2.510002,4.4094 2.525002,-4.4094 h 2.827 z"
     fill="#ffffff"
     id="path146" />
</svg>
