<svg width="32" height="32" viewBox="0 0 32 32" fill="none" xmlns="http://www.w3.org/2000/svg">
<path d="M21.9998 3V7C20.1518 7 18.3867 7.332 16.7337 7.91L16.2068 6.762L17.1087 6.359L16.2968 4.531L12.6448 6.156L13.4567 7.984L14.3787 7.574L14.8907 8.68C13.8047 9.22587 12.7839 9.89277 11.8477 10.668L11.0618 9.832L11.7887 9.164L10.4377 7.688L7.49175 10.395L8.84375 11.871L9.58575 11.187L10.3907 12.035C9.42968 13.0542 8.60725 14.1957 7.94475 15.43L6.86275 14.895L7.31275 14.012L5.53075 13.105L3.71875 16.672L5.49975 17.578L5.95675 16.676L7.10175 17.246C6.50927 18.7673 6.15445 20.3707 6.04975 22H3.99975V28H27.9998V3H21.9998ZM23.9998 5H25.9998V22H8.04975C8.56275 14.727 14.5947 9 21.9998 9H23.9998V5ZM17.9998 11.953C17.559 11.9527 17.1304 12.0979 16.7806 12.3662C16.4309 12.6345 16.1795 13.0107 16.0655 13.4365C15.9514 13.8623 15.9812 14.3138 16.1502 14.7209C16.3191 15.1281 16.6178 15.468 16.9998 15.688V20H21.9998V18H18.9998V15.684C19.3816 15.4644 19.6801 15.1248 19.849 14.718C20.0179 14.3112 20.0476 13.86 19.9335 13.4346C19.8195 13.0092 19.568 12.6334 19.2183 12.3656C18.8686 12.0978 18.4402 11.9531 17.9998 11.954V11.953ZM5.99975 24H25.9998V26H5.99975V24Z" fill="#0082CA"/>
</svg>
