<svg width="20" height="20" viewBox="0 0 20 20" fill="none" xmlns="http://www.w3.org/2000/svg">
<path d="M14.5 2V2.5H15H17C18.4239 2.5 19.5 3.57614 19.5 5V6.5H0.5V5C0.5 3.57614 1.57614 2.5 3 2.5H5H5.5V2V1C5.5 0.813624 5.55994 0.697164 5.62855 0.628553C5.69716 0.559943 5.81362 0.5 6 0.5C6.18638 0.5 6.30284 0.559943 6.37145 0.628553C6.44006 0.697164 6.5 0.813624 6.5 1V2V2.5H7H13H13.5V2V1C13.5 0.813624 13.5599 0.697164 13.6286 0.628553C13.6972 0.559943 13.8136 0.5 14 0.5C14.1864 0.5 14.3028 0.559943 14.3714 0.628553C14.4401 0.697164 14.5 0.813624 14.5 1V2ZM3 19.5C1.57614 19.5 0.5 18.4239 0.5 17V9.5H19.5V17C19.5 18.4239 18.4239 19.5 17 19.5H3Z" stroke="#FFAD92"/>
</svg>
