<svg width="21" height="21" viewBox="0 0 21 21" fill="none" xmlns="http://www.w3.org/2000/svg">
<path d="M0.5 17.7754C0.5 19.4754 1.8 20.7754 3.5 20.7754H17.5C19.2 20.7754 20.5 19.4754 20.5 17.7754V9.77539H0.5V17.7754ZM17.5 2.77539H15.5V1.77539C15.5 1.17539 15.1 0.775391 14.5 0.775391C13.9 0.775391 13.5 1.17539 13.5 1.77539V2.77539H7.5V1.77539C7.5 1.17539 7.1 0.775391 6.5 0.775391C5.9 0.775391 5.5 1.17539 5.5 1.77539V2.77539H3.5C1.8 2.77539 0.5 4.07539 0.5 5.77539V7.77539H20.5V5.77539C20.5 4.07539 19.2 2.77539 17.5 2.77539Z" fill="#0082CA"/>
</svg>
