<svg width="25" height="24" viewBox="0 0 25 24" fill="none" xmlns="http://www.w3.org/2000/svg">
<path fill-rule="evenodd" clip-rule="evenodd" d="M7.66617 1.066C8.83917 1.012 9.21317 1 12.2012 1C15.1892 1 15.5632 1.013 16.7352 1.066C17.9072 1.119 18.7072 1.306 19.4072 1.577C20.1402 1.854 20.8052 2.287 21.3552 2.847C21.9152 3.396 22.3472 4.06 22.6232 4.794C22.8952 5.494 23.0812 6.294 23.1352 7.464C23.1892 8.639 23.2012 9.013 23.2012 12C23.2012 14.988 23.1882 15.362 23.1352 16.535C23.0822 17.705 22.8952 18.505 22.6232 19.205C22.3472 19.9391 21.9145 20.6042 21.3552 21.154C20.8052 21.714 20.1402 22.146 19.4072 22.422C18.7072 22.694 17.9072 22.88 16.7372 22.934C15.5632 22.988 15.1892 23 12.2012 23C9.21317 23 8.83917 22.987 7.66617 22.934C6.49617 22.881 5.69617 22.694 4.99617 22.422C4.26209 22.146 3.59699 21.7133 3.04717 21.154C2.48755 20.6047 2.05449 19.9399 1.77817 19.206C1.50717 18.506 1.32117 17.706 1.26717 16.536C1.21317 15.361 1.20117 14.987 1.20117 12C1.20117 9.012 1.21417 8.638 1.26717 7.466C1.32017 6.294 1.50717 5.494 1.77817 4.794C2.05489 4.06008 2.48829 3.39531 3.04817 2.846C3.59721 2.2865 4.26164 1.85344 4.99517 1.577C5.69517 1.306 6.49517 1.12 7.66517 1.066H7.66617ZM16.6462 3.046C15.4862 2.993 15.1382 2.982 12.2012 2.982C9.26417 2.982 8.91617 2.993 7.75617 3.046C6.68317 3.095 6.10117 3.274 5.71317 3.425C5.20017 3.625 4.83317 3.862 4.44817 4.247C4.08322 4.60205 3.80235 5.03428 3.62617 5.512C3.47517 5.9 3.29617 6.482 3.24717 7.555C3.19417 8.715 3.18317 9.063 3.18317 12C3.18317 14.937 3.19417 15.285 3.24717 16.445C3.29617 17.518 3.47517 18.1 3.62617 18.488C3.80217 18.965 4.08317 19.398 4.44817 19.753C4.80317 20.118 5.23617 20.399 5.71317 20.575C6.10117 20.726 6.68317 20.905 7.75617 20.954C8.91617 21.007 9.26317 21.018 12.2012 21.018C15.1392 21.018 15.4862 21.007 16.6462 20.954C17.7192 20.905 18.3012 20.726 18.6892 20.575C19.2022 20.375 19.5692 20.138 19.9542 19.753C20.3192 19.398 20.6002 18.965 20.7762 18.488C20.9272 18.1 21.1062 17.518 21.1552 16.445C21.2082 15.285 21.2192 14.937 21.2192 12C21.2192 9.063 21.2082 8.715 21.1552 7.555C21.1062 6.482 20.9272 5.9 20.7762 5.512C20.5762 4.999 20.3392 4.632 19.9542 4.247C19.5991 3.88207 19.1669 3.60121 18.6892 3.425C18.3012 3.274 17.7192 3.095 16.6462 3.046ZM10.7962 15.391C11.5808 15.7176 12.4546 15.7617 13.2681 15.5157C14.0817 15.2697 14.7846 14.7489 15.2568 14.0422C15.729 13.3356 15.9412 12.4869 15.8572 11.6411C15.7732 10.7953 15.3982 10.005 14.7962 9.405C14.4124 9.02148 13.9484 8.72781 13.4375 8.54515C12.9266 8.36248 12.3816 8.29536 11.8417 8.34862C11.3017 8.40187 10.7803 8.57418 10.315 8.85313C9.84963 9.13208 9.45192 9.51074 9.15047 9.96185C8.84903 10.413 8.65136 10.9253 8.57169 11.462C8.49201 11.9986 8.53232 12.5463 8.68971 13.0655C8.8471 13.5847 9.11765 14.0626 9.48189 14.4647C9.84613 14.8668 10.295 15.1832 10.7962 15.391ZM8.20317 8.002C8.7282 7.47697 9.35149 7.0605 10.0375 6.77636C10.7234 6.49222 11.4587 6.34597 12.2012 6.34597C12.9437 6.34597 13.6789 6.49222 14.3649 6.77636C15.0509 7.0605 15.6741 7.47697 16.1992 8.002C16.7242 8.52702 17.1407 9.15032 17.4248 9.8363C17.709 10.5223 17.8552 11.2575 17.8552 12C17.8552 12.7425 17.709 13.4777 17.4248 14.1637C17.1407 14.8497 16.7242 15.473 16.1992 15.998C15.1388 17.0583 13.7007 17.654 12.2012 17.654C10.7016 17.654 9.26351 17.0583 8.20317 15.998C7.14284 14.9377 6.54715 13.4995 6.54715 12C6.54715 10.5005 7.14284 9.06234 8.20317 8.002ZM19.1092 7.188C19.2393 7.06527 19.3434 6.91768 19.4155 6.75397C19.4875 6.59027 19.526 6.41377 19.5286 6.23493C19.5312 6.05609 19.4979 5.87855 19.4307 5.71281C19.3634 5.54707 19.2636 5.39651 19.1371 5.27004C19.0107 5.14357 18.8601 5.04376 18.6944 4.97652C18.5286 4.90928 18.3511 4.87598 18.1722 4.87858C17.9934 4.88119 17.8169 4.91965 17.6532 4.9917C17.4895 5.06374 17.3419 5.1679 17.2192 5.298C16.9805 5.55103 16.8498 5.88712 16.8549 6.23493C16.8599 6.58274 17.0004 6.91488 17.2463 7.16084C17.4923 7.40681 17.8244 7.54723 18.1722 7.5523C18.5201 7.55737 18.8561 7.42669 19.1092 7.188Z" fill="#0082CA"/>
</svg>
