<svg width="21" height="20" viewBox="0 0 21 20" fill="none" xmlns="http://www.w3.org/2000/svg">
<path d="M13.7726 1.72894e-07C12.7687 -0.000230039 11.7788 0.23469 10.8821 0.685935C9.98534 1.13718 9.20678 1.7922 8.60879 2.59851C8.01079 3.40482 7.60998 4.34 7.43848 5.3291C7.26697 6.3182 7.32954 7.33372 7.62117 8.29429L0.201172 15.7143V20H4.48689L11.9069 12.58C12.7911 12.8484 13.7228 12.923 14.6385 12.7988C15.5541 12.6745 16.4322 12.3543 17.213 11.86C17.9937 11.3657 18.6587 10.7089 19.1626 9.93436C19.6665 9.15981 19.9975 8.28572 20.1331 7.37166C20.2687 6.45761 20.2056 5.52507 19.9481 4.6376C19.6907 3.75013 19.245 2.9286 18.6413 2.22897C18.0377 1.52935 17.2903 0.968087 16.4501 0.583436C15.6099 0.198785 14.6967 -0.000214124 13.7726 1.72894e-07ZM13.7726 11.4286C13.2808 11.4283 12.7918 11.3556 12.3212 11.2129L11.5019 10.9643L10.8969 11.5693L8.62474 13.8414L7.63974 12.8571L6.62974 13.8671L7.61474 14.8521L6.48189 15.985L5.49689 15L4.48689 16.01L5.47189 16.995L3.89546 18.5714H1.62974V16.3057L8.63117 9.30429L9.23689 8.69929L8.98831 7.88C8.68301 6.87357 8.70285 5.79649 9.04499 4.80198C9.38714 3.80746 10.0342 2.94616 10.8941 2.34059C11.7539 1.73502 12.7829 1.41601 13.8345 1.42895C14.8862 1.44189 15.907 1.78611 16.7517 2.41266C17.5964 3.0392 18.222 3.91616 18.5396 4.91879C18.8572 5.92142 18.8505 6.99866 18.5206 7.99727C18.1906 8.99589 17.5541 9.86504 16.7017 10.4811C15.8493 11.0971 14.8243 11.4287 13.7726 11.4286Z" fill="#FFAD92"/>
<path d="M14.4872 7.14328C15.2761 7.14328 15.9157 6.50368 15.9157 5.7147C15.9157 4.92573 15.2761 4.28613 14.4872 4.28613C13.6982 4.28613 13.0586 4.92573 13.0586 5.7147C13.0586 6.50368 13.6982 7.14328 14.4872 7.14328Z" fill="#FFAD92"/>
</svg>
