<svg width="21" height="21" viewBox="0 0 21 21" fill="none" xmlns="http://www.w3.org/2000/svg">
<path d="M14.0714 0.839844C13.0676 0.839614 12.0776 1.07453 11.1809 1.52578C10.2842 1.97702 9.50561 2.63205 8.90762 3.43836C8.30962 4.24466 7.90881 5.17984 7.7373 6.16894C7.5658 7.15804 7.62837 8.17356 7.92 9.13413L0.5 16.5541V20.8398H4.78571L12.2057 13.4198C13.0899 13.6882 14.0216 13.7629 14.9373 13.6386C15.8529 13.5144 16.7311 13.1942 17.5118 12.6999C18.2925 12.2056 18.9575 11.5488 19.4614 10.7742C19.9654 9.99965 20.2964 9.12556 20.4319 8.21151C20.5675 7.29745 20.5044 6.36492 20.247 5.47745C19.9895 4.58998 19.5438 3.76844 18.9401 3.06882C18.3365 2.36919 17.5891 1.80793 16.7489 1.42328C15.9087 1.03863 14.9955 0.83963 14.0714 0.839844ZM14.0714 12.2684C13.5797 12.2681 13.0906 12.1955 12.62 12.0527L11.8007 11.8041L11.1957 12.4091L8.92357 14.6813L7.93857 13.697L6.92857 14.707L7.91357 15.692L6.78071 16.8248L5.79571 15.8398L4.78571 16.8498L5.77071 17.8348L4.19429 19.4113H1.92857V17.1456L8.93 10.1441L9.53571 9.53913L9.28714 8.71984C8.98184 7.71341 9.00168 6.63633 9.34382 5.64182C9.68597 4.64731 10.333 3.78601 11.1929 3.18043C12.0528 2.57486 13.0817 2.25586 14.1334 2.26879C15.185 2.28173 16.2058 2.62596 17.0505 3.2525C17.8952 3.87904 18.5209 4.756 18.8385 5.75863C19.156 6.76126 19.1494 7.8385 18.8194 8.83712C18.4894 9.83574 17.853 10.7049 17.0005 11.3209C16.1481 11.9369 15.1231 12.2685 14.0714 12.2684Z" fill="#0082CA"/>
<path d="M14.786 7.98312C15.575 7.98312 16.2146 7.34353 16.2146 6.55455C16.2146 5.76557 15.575 5.12598 14.786 5.12598C13.997 5.12598 13.3574 5.76557 13.3574 6.55455C13.3574 7.34353 13.997 7.98312 14.786 7.98312Z" fill="#0082CA"/>
</svg>
