<svg width="49" height="48" viewBox="0 0 49 48" fill="none" xmlns="http://www.w3.org/2000/svg">
<path fill-rule="evenodd" clip-rule="evenodd" d="M22.2012 4C20.6099 4 19.0837 4.63214 17.9585 5.75736C16.8333 6.88258 16.2012 8.4087 16.2012 10V38C16.2012 39.5913 16.8333 41.1174 17.9585 42.2426C19.0837 43.3679 20.6099 44 22.2012 44H34.2012C35.7925 44 37.3186 43.3679 38.4438 42.2426C39.569 41.1174 40.2012 39.5913 40.2012 38V10C40.2012 8.4087 39.569 6.88258 38.4438 5.75736C37.3186 4.63214 35.7925 4 34.2012 4H22.2012ZM24.7872 16.586C25.1622 16.2111 25.6708 16.0004 26.2012 16.0004C26.7315 16.0004 27.2401 16.2111 27.6152 16.586L33.6152 22.586C33.9901 22.9611 34.2007 23.4697 34.2007 24C34.2007 24.5303 33.9901 25.0389 33.6152 25.414L27.6152 31.414C27.238 31.7783 26.7328 31.9799 26.2084 31.9753C25.684 31.9708 25.1824 31.7605 24.8115 31.3896C24.4407 31.0188 24.2304 30.5172 24.2258 29.9928C24.2213 29.4684 24.4229 28.9632 24.7872 28.586L27.3732 26H10.2012C9.67074 26 9.16203 25.7893 8.78696 25.4142C8.41189 25.0391 8.20117 24.5304 8.20117 24C8.20117 23.4696 8.41189 22.9609 8.78696 22.5858C9.16203 22.2107 9.67074 22 10.2012 22H27.3732L24.7872 19.414C24.4122 19.0389 24.2016 18.5303 24.2016 18C24.2016 17.4697 24.4122 16.9611 24.7872 16.586Z" fill="#0082CA"/>
</svg>
