<svg width="25" height="24" viewBox="0 0 25 24" fill="none" xmlns="http://www.w3.org/2000/svg">
<g clip-path="url(#clip0_101_10314)">
<path d="M23.2012 3.01006C23.2012 3.01006 21.1832 4.20206 20.0612 4.54006C19.4589 3.84757 18.6585 3.35675 17.7682 3.13398C16.8779 2.91122 15.9407 2.96725 15.0833 3.29451C14.2258 3.62177 13.4896 4.20446 12.9742 4.96377C12.4587 5.72309 12.1889 6.62239 12.2012 7.54006V8.54006C10.4438 8.58562 8.70245 8.19587 7.13218 7.4055C5.56192 6.61513 4.21149 5.44869 3.20117 4.01006C3.20117 4.01006 -0.798828 13.0101 8.20117 17.0101C6.1417 18.408 3.68833 19.109 1.20117 19.0101C10.2012 24.0101 21.2012 19.0101 21.2012 7.51006C21.2012 7.23206 21.1732 6.95406 21.1212 6.68006C22.1412 5.67406 23.2012 3.01006 23.2012 3.01006Z" stroke="#0082CA" stroke-width="1.5" stroke-linecap="round" stroke-linejoin="round"/>
</g>
<defs>
<clipPath id="clip0_101_10314">
<rect width="24" height="24" fill="white" transform="translate(0.201172)"/>
</clipPath>
</defs>
</svg>
