<svg width="42" height="42" viewBox="0 0 42 42" fill="none" xmlns="http://www.w3.org/2000/svg">
<path d="M3.5 10.5C3.5 8.64349 4.2375 6.86301 5.55025 5.55025C6.86301 4.2375 8.64349 3.5 10.5 3.5H31.5C33.3565 3.5 35.137 4.2375 36.4498 5.55025C37.7625 6.86301 38.5 8.64349 38.5 10.5V31.5C38.5 33.3565 37.7625 35.137 36.4498 36.4498C35.137 37.7625 33.3565 38.5 31.5 38.5H10.5C8.64349 38.5 6.86301 37.7625 5.55025 36.4498C4.2375 35.137 3.5 33.3565 3.5 31.5V10.5Z" stroke="#B5B5B5" stroke-width="2" stroke-linecap="round" stroke-linejoin="round"/>
<path d="M14.875 19.25C17.2912 19.25 19.25 17.2912 19.25 14.875C19.25 12.4588 17.2912 10.5 14.875 10.5C12.4588 10.5 10.5 12.4588 10.5 14.875C10.5 17.2912 12.4588 19.25 14.875 19.25Z" stroke="#B5B5B5" stroke-width="2" stroke-linecap="round" stroke-linejoin="round"/>
<path d="M25.4205 22.0868L10.5 38.5H31.7328C33.5275 38.5 35.2488 37.7871 36.5179 36.5179C37.787 35.2488 38.5 33.5276 38.5 31.7328V31.5C38.5 30.6845 38.1938 30.3713 37.6425 29.7675L30.59 22.0763C30.2613 21.7177 29.8615 21.4316 29.4161 21.2362C28.9706 21.0408 28.4893 20.9404 28.0029 20.9414C27.5165 20.9424 27.0357 21.0448 26.591 21.242C26.1464 21.4392 25.7477 21.7269 25.4205 22.0868V22.0868Z" stroke="#B5B5B5" stroke-width="2" stroke-linecap="round" stroke-linejoin="round"/>
</svg>
