<svg width="25" height="24" viewBox="0 0 25 24" fill="none" xmlns="http://www.w3.org/2000/svg">
<path d="M10 10C10 10.3978 9.84196 10.7794 9.56066 11.0607C9.27936 11.342 8.89782 11.5 8.5 11.5C8.10218 11.5 7.72064 11.342 7.43934 11.0607C7.15804 10.7794 7 10.3978 7 10C7 9.60218 7.15804 9.22064 7.43934 8.93934C7.72064 8.65804 8.10218 8.5 8.5 8.5C8.89782 8.5 9.27936 8.65804 9.56066 8.93934C9.84196 9.22064 10 9.60218 10 10ZM6 13.25C6 13.0511 6.07902 12.8603 6.21967 12.7197C6.36032 12.579 6.55109 12.5 6.75 12.5H10.25C10.4489 12.5 10.6397 12.579 10.7803 12.7197C10.921 12.8603 11 13.0511 11 13.25V13.5C11 13.5 11 15.5 8.5 15.5C6 15.5 6 13.5 6 13.5V13.25ZM13 10.125C13 9.78 13.28 9.5 13.625 9.5H18.375C18.4571 9.5 18.5383 9.51617 18.6142 9.54757C18.69 9.57898 18.7589 9.62502 18.8169 9.68306C18.875 9.74109 18.921 9.80999 18.9524 9.88582C18.9838 9.96165 19 10.0429 19 10.125C19 10.2071 18.9838 10.2883 18.9524 10.3642C18.921 10.44 18.875 10.5089 18.8169 10.5669C18.7589 10.625 18.69 10.671 18.6142 10.7024C18.5383 10.7338 18.4571 10.75 18.375 10.75H13.625C13.28 10.75 13 10.47 13 10.125ZM13.625 13C13.4592 13 13.3003 13.0658 13.1831 13.1831C13.0658 13.3003 13 13.4592 13 13.625C13 13.7908 13.0658 13.9497 13.1831 14.0669C13.3003 14.1842 13.4592 14.25 13.625 14.25H18.375C18.5408 14.25 18.6997 14.1842 18.8169 14.0669C18.9342 13.9497 19 13.7908 19 13.625C19 13.4592 18.9342 13.3003 18.8169 13.1831C18.6997 13.0658 18.5408 13 18.375 13H13.625ZM2.5 6.125C2.5 5.56141 2.72388 5.02091 3.1224 4.6224C3.52091 4.22388 4.06141 4 4.625 4H20.375C20.9386 4 21.4791 4.22388 21.8776 4.6224C22.2761 5.02091 22.5 5.56141 22.5 6.125V17.875C22.5 18.4386 22.2761 18.9791 21.8776 19.3776C21.4791 19.7761 20.9386 20 20.375 20H4.625C4.06141 20 3.52091 19.7761 3.1224 19.3776C2.72388 18.9791 2.5 18.4386 2.5 17.875V6.125ZM4.625 5.25C4.39294 5.25 4.17038 5.34219 4.00628 5.50628C3.84219 5.67038 3.75 5.89294 3.75 6.125V17.875C3.75 18.3585 4.142 18.75 4.625 18.75H20.375C20.6071 18.75 20.8296 18.6578 20.9937 18.4937C21.1578 18.3296 21.25 18.1071 21.25 17.875V6.125C21.25 5.89294 21.1578 5.67038 20.9937 5.50628C20.8296 5.34219 20.6071 5.25 20.375 5.25H4.625Z" fill="#0082CA"/>
</svg>
