<svg width="20" height="21" viewBox="0 0 20 21" fill="none" xmlns="http://www.w3.org/2000/svg">
<path d="M10.2012 1C9.21227 1 8.24557 1.29324 7.42332 1.84265C6.60108 2.39206 5.96021 3.17295 5.58177 4.08658C5.20334 5.00021 5.10432 6.00555 5.29725 6.97545C5.49017 7.94536 5.96638 8.83627 6.66564 9.53553C7.3649 10.2348 8.25582 10.711 9.22572 10.9039C10.1956 11.0969 11.201 10.9978 12.1146 10.6194C13.0282 10.241 13.8091 9.6001 14.3585 8.77785C14.9079 7.95561 15.2012 6.98891 15.2012 6C15.2012 4.67392 14.6744 3.40215 13.7367 2.46447C12.799 1.52678 11.5273 1 10.2012 1ZM10.2012 9C9.60783 9 9.02781 8.82405 8.53446 8.49441C8.04111 8.16476 7.6566 7.69623 7.42953 7.14805C7.20247 6.59987 7.14306 5.99667 7.25882 5.41473C7.37457 4.83279 7.66029 4.29824 8.07985 3.87868C8.49941 3.45912 9.03396 3.1734 9.6159 3.05764C10.1978 2.94189 10.801 3.0013 11.3492 3.22836C11.8974 3.45542 12.3659 3.83994 12.6956 4.33329C13.0252 4.82664 13.2012 5.40666 13.2012 6C13.2012 6.79565 12.8851 7.55871 12.3225 8.12132C11.7599 8.68393 10.9968 9 10.2012 9ZM19.2012 20V19C19.2012 17.1435 18.4637 15.363 17.1509 14.0503C15.8382 12.7375 14.0577 12 12.2012 12H8.20117C6.34466 12 4.56418 12.7375 3.25142 14.0503C1.93867 15.363 1.20117 17.1435 1.20117 19V20H3.20117V19C3.20117 17.6739 3.72796 16.4021 4.66564 15.4645C5.60332 14.5268 6.87509 14 8.20117 14H12.2012C13.5273 14 14.799 14.5268 15.7367 15.4645C16.6744 16.4021 17.2012 17.6739 17.2012 19V20H19.2012Z" fill="#FFAD92" stroke="white" stroke-width="0.5"/>
</svg>
