<svg width="19" height="20" viewBox="0 0 19 20" fill="none" xmlns="http://www.w3.org/2000/svg">
<path d="M9.5 0.339844C8.51109 0.339844 7.54439 0.633089 6.72215 1.1825C5.8999 1.7319 5.25904 2.5128 4.8806 3.42643C4.50216 4.34006 4.40315 5.34539 4.59607 6.3153C4.789 7.2852 5.2652 8.17612 5.96447 8.87538C6.66373 9.57464 7.55464 10.0508 8.52455 10.2438C9.49445 10.4367 10.4998 10.3377 11.4134 9.95924C12.327 9.5808 13.1079 8.93994 13.6573 8.11769C14.2068 7.29545 14.5 6.32875 14.5 5.33984C14.5 4.01376 13.9732 2.74199 13.0355 1.80431C12.0979 0.866628 10.8261 0.339844 9.5 0.339844ZM9.5 8.33984C8.90666 8.33984 8.32664 8.1639 7.83329 7.83425C7.33994 7.50461 6.95542 7.03607 6.72836 6.48789C6.5013 5.93972 6.44189 5.33652 6.55764 4.75457C6.6734 4.17263 6.95912 3.63808 7.37868 3.21852C7.79824 2.79897 8.33279 2.51324 8.91473 2.39749C9.49667 2.28173 10.0999 2.34114 10.6481 2.56821C11.1962 2.79527 11.6648 3.17979 11.9944 3.67313C12.3241 4.16648 12.5 4.7465 12.5 5.33984C12.5 6.13549 12.1839 6.89856 11.6213 7.46116C11.0587 8.02377 10.2956 8.33984 9.5 8.33984ZM18.5 19.3398V18.3398C18.5 16.4833 17.7625 14.7029 16.4497 13.3901C15.137 12.0773 13.3565 11.3398 11.5 11.3398H7.5C5.64348 11.3398 3.86301 12.0773 2.55025 13.3901C1.2375 14.7029 0.5 16.4833 0.5 18.3398V19.3398H2.5V18.3398C2.5 17.0138 3.02678 15.742 3.96447 14.8043C4.90215 13.8666 6.17392 13.3398 7.5 13.3398H11.5C12.8261 13.3398 14.0979 13.8666 15.0355 14.8043C15.9732 15.742 16.5 17.0138 16.5 18.3398V19.3398H18.5Z" fill="#0082CA" stroke="white" stroke-width="0.5"/>
</svg>
